<svg width="146" height="17" viewBox="0 0 146 17" fill="none" xmlns="http://www.w3.org/2000/svg">
<path d="M3.25391 9.46875L3.92383 1.4707L4.00586 1.34766L0.533203 1.07422C0.451172 1.0651 0.369141 1.03776 0.287109 0.992188C0.214193 0.9375 0.177734 0.864583 0.177734 0.773438C0.177734 0.709635 0.186849 0.664062 0.205078 0.636719C0.232422 0.60026 0.277995 0.563802 0.341797 0.527344H0.929688C2.15104 0.527344 3.3724 0.554688 4.59375 0.609375C5.82422 0.654948 7.05013 0.695964 8.27148 0.732422C8.32617 0.777995 8.37174 0.832682 8.4082 0.896484C8.45378 0.951172 8.47656 1.01042 8.47656 1.07422C8.47656 1.13802 8.43555 1.21094 8.35352 1.29297C8.2806 1.36589 8.21224 1.40234 8.14844 1.40234H4.63477C4.63477 1.88542 4.60286 2.35026 4.53906 2.79688C4.47526 3.23438 4.42513 3.69922 4.38867 4.19141C4.37956 4.26432 4.37044 4.41927 4.36133 4.65625C4.35221 4.88411 4.33854 5.15299 4.32031 5.46289C4.30208 5.76367 4.28385 6.08724 4.26562 6.43359C4.2474 6.77995 4.22917 7.10807 4.21094 7.41797C4.19271 7.71875 4.17448 7.98763 4.15625 8.22461C4.13802 8.45247 4.12891 8.60286 4.12891 8.67578C4.11979 8.7487 4.11979 8.85807 4.12891 9.00391C4.14714 9.14974 4.16081 9.30469 4.16992 9.46875C4.17904 9.63281 4.17448 9.80599 4.15625 9.98828C4.14714 10.1615 4.11979 10.3255 4.07422 10.4805C4.03776 10.6263 3.97396 10.7448 3.88281 10.8359C3.79167 10.918 3.67318 10.959 3.52734 10.959C3.50911 10.959 3.47266 10.959 3.41797 10.959C3.3724 10.9499 3.34505 10.9453 3.33594 10.9453L3.25391 10.8086V9.46875ZM10.3223 7.92383C10.304 7.88737 10.2721 7.83724 10.2266 7.77344C10.1901 7.70052 10.1445 7.66406 10.0898 7.66406C9.91667 7.66406 9.73893 7.74154 9.55664 7.89648C9.38346 8.04232 9.21484 8.22005 9.05078 8.42969C8.89583 8.63021 8.75911 8.83529 8.64062 9.04492C8.53125 9.25456 8.46289 9.41862 8.43555 9.53711C8.39909 9.6556 8.38086 9.79688 8.38086 9.96094C8.38086 10.125 8.36719 10.2799 8.33984 10.4258C8.32161 10.5716 8.27148 10.6947 8.18945 10.7949C8.11654 10.8952 7.98438 10.9453 7.79297 10.9453C7.67448 10.9453 7.59245 10.9225 7.54688 10.877C7.51042 10.8223 7.49219 10.7357 7.49219 10.6172C7.55599 10.1797 7.61068 9.81966 7.65625 9.53711C7.71094 9.25456 7.75651 9.00846 7.79297 8.79883C7.83854 8.58008 7.87956 8.37044 7.91602 8.16992C7.96159 7.96029 8.01172 7.70964 8.06641 7.41797C8.12109 7.1263 8.18034 6.77083 8.24414 6.35156C8.30794 5.92318 8.38542 5.38086 8.47656 4.72461C8.47656 4.58789 8.48568 4.39648 8.50391 4.15039C8.52214 3.89518 8.55404 3.6263 8.59961 3.34375C8.6543 3.05208 8.72266 2.76042 8.80469 2.46875C8.88672 2.16797 8.98698 1.89909 9.10547 1.66211C9.23307 1.42513 9.37891 1.23372 9.54297 1.08789C9.70703 0.932943 9.89844 0.855469 10.1172 0.855469C10.2721 0.855469 10.3952 0.910156 10.4863 1.01953C10.5866 1.11979 10.6595 1.24284 10.7051 1.38867C10.7598 1.53451 10.7917 1.68945 10.8008 1.85352C10.8099 2.00846 10.8145 2.13607 10.8145 2.23633C10.8145 2.46419 10.7962 2.68294 10.7598 2.89258C10.7233 3.0931 10.6777 3.29818 10.623 3.50781C10.5684 3.70833 10.5091 3.91341 10.4453 4.12305C10.3815 4.32357 10.3268 4.52409 10.2812 4.72461L9.40625 6.39258L8.91406 7.45898L8.98242 7.60938C9.17383 7.38151 9.36979 7.20833 9.57031 7.08984C9.77083 6.96224 10.0215 6.88932 10.3223 6.87109C10.459 6.86198 10.5729 6.90299 10.6641 6.99414C10.7643 7.08529 10.8464 7.20378 10.9102 7.34961C10.974 7.48633 11.0195 7.6276 11.0469 7.77344C11.0833 7.91927 11.1061 8.03776 11.1152 8.12891C11.1152 8.18359 11.1107 8.27018 11.1016 8.38867C11.0924 8.50716 11.0833 8.64388 11.0742 8.79883C11.0651 8.95378 11.056 9.11784 11.0469 9.29102C11.0469 9.45508 11.056 9.61003 11.0742 9.75586C11.0924 9.90169 11.1289 10.0293 11.1836 10.1387C11.2474 10.2389 11.3294 10.2982 11.4297 10.3164C11.7852 10.2708 12.0996 10.2116 12.373 10.1387C12.6556 10.0566 12.9017 9.94727 13.1113 9.81055C13.321 9.66471 13.4941 9.48242 13.6309 9.26367C13.7767 9.04492 13.8861 8.77604 13.959 8.45703C14.0228 8.36589 14.1139 8.32031 14.2324 8.32031C14.3691 8.32031 14.4557 8.37044 14.4922 8.4707C14.5378 8.57096 14.5605 8.68034 14.5605 8.79883C14.5605 9.16341 14.4421 9.48698 14.2051 9.76953C13.9772 10.043 13.6855 10.2708 13.3301 10.4531C12.9746 10.6354 12.5918 10.7767 12.1816 10.877C11.7715 10.9681 11.3932 11.0137 11.0469 11.0137C10.8281 11.0137 10.6777 10.9408 10.5957 10.7949C10.5137 10.64 10.4635 10.4577 10.4453 10.248C10.4362 10.0293 10.4362 9.81055 10.4453 9.5918C10.4544 9.37305 10.4544 9.19531 10.4453 9.05859C10.4453 9.01302 10.4408 8.9401 10.4316 8.83984C10.4225 8.73047 10.4089 8.61654 10.3906 8.49805C10.3815 8.37956 10.3678 8.26562 10.3496 8.15625C10.3314 8.04688 10.3223 7.9694 10.3223 7.92383ZM9.20117 4.64258C9.20117 4.66992 9.20117 4.71549 9.20117 4.7793C9.20117 4.8431 9.20117 4.90234 9.20117 4.95703C9.21029 5.01172 9.21484 5.06185 9.21484 5.10742C9.21484 5.15299 9.21484 5.18034 9.21484 5.18945L9.2832 5.25781C9.37435 5.20312 9.45638 5.10742 9.5293 4.9707C9.61133 4.83398 9.68424 4.66992 9.74805 4.47852C9.81185 4.28711 9.86654 4.08659 9.91211 3.87695C9.9668 3.6582 10.0124 3.44401 10.0488 3.23438C10.0853 3.02474 10.1126 2.83333 10.1309 2.66016C10.1582 2.48698 10.1719 2.3457 10.1719 2.23633C10.1719 2.19987 10.1673 2.13151 10.1582 2.03125C10.1582 1.93099 10.1536 1.87174 10.1445 1.85352L10.0762 1.7168C9.85742 1.88997 9.6888 2.09505 9.57031 2.33203C9.45182 2.56901 9.36523 2.8151 9.31055 3.07031C9.25586 3.32552 9.22396 3.58984 9.21484 3.86328C9.20573 4.13672 9.20117 4.39648 9.20117 4.64258ZM14.3828 8.12891C14.3919 8.08333 14.4193 8.0013 14.4648 7.88281C14.5104 7.76432 14.556 7.63672 14.6016 7.5C14.6562 7.36328 14.7064 7.23568 14.752 7.11719C14.7975 6.9987 14.8294 6.91667 14.8477 6.87109C14.9023 6.72526 14.9525 6.62956 14.998 6.58398C15.0527 6.53841 15.1484 6.51562 15.2852 6.51562C15.431 6.51562 15.5267 6.56576 15.5723 6.66602C15.6178 6.76628 15.6406 6.88477 15.6406 7.02148C15.6406 7.25846 15.6042 7.47721 15.5312 7.67773C15.4674 7.86914 15.3945 8.0651 15.3125 8.26562C15.2305 8.45703 15.153 8.66667 15.0801 8.89453C15.0163 9.11328 14.9844 9.36849 14.9844 9.66016C14.9844 9.69661 14.9844 9.7513 14.9844 9.82422C14.9844 9.88802 14.9889 9.95638 14.998 10.0293C15.0072 10.0931 15.0254 10.1523 15.0527 10.207C15.0801 10.2526 15.1165 10.2754 15.1621 10.2754C15.3991 10.2754 15.6361 10.2298 15.873 10.1387C16.1191 10.0384 16.3561 9.92448 16.584 9.79688C16.821 9.66016 17.0443 9.51432 17.2539 9.35938C17.4727 9.19531 17.6686 9.05404 17.8418 8.93555C17.9056 8.88997 17.9512 8.8444 17.9785 8.79883C18.015 8.75326 18.0469 8.71224 18.0742 8.67578C18.1016 8.63021 18.1335 8.59375 18.1699 8.56641C18.2155 8.52995 18.2839 8.51172 18.375 8.51172C18.4935 8.51172 18.5892 8.53906 18.6621 8.59375C18.7441 8.63932 18.7852 8.72591 18.7852 8.85352C18.7852 8.9082 18.7806 8.95833 18.7715 9.00391C18.7715 9.04948 18.7487 9.09049 18.7031 9.12695C18.694 9.1543 18.6576 9.19076 18.5938 9.23633C18.5391 9.2819 18.4798 9.33203 18.416 9.38672C18.3522 9.43229 18.293 9.47786 18.2383 9.52344C18.1836 9.5599 18.1426 9.58268 18.1152 9.5918C18.1061 9.5918 18.0788 9.60547 18.0332 9.63281C17.9967 9.65104 17.974 9.66016 17.9648 9.66016C17.9557 9.66927 17.9421 9.68294 17.9238 9.70117C17.9147 9.71029 17.9102 9.7194 17.9102 9.72852C17.7188 9.87435 17.5091 10.0247 17.2812 10.1797C17.0625 10.3255 16.8301 10.4622 16.584 10.5898C16.3379 10.7083 16.0827 10.8086 15.8184 10.8906C15.5632 10.9727 15.3079 11.0137 15.0527 11.0137C14.834 11.0137 14.6654 10.959 14.5469 10.8496C14.4375 10.7311 14.3555 10.5853 14.3008 10.4121C14.2461 10.2389 14.2142 10.0566 14.2051 9.86523C14.196 9.67383 14.1914 9.50065 14.1914 9.3457L14.3828 8.12891ZM15.0391 4.5332C15.0391 4.36914 15.071 4.25977 15.1348 4.20508C15.1986 4.15039 15.3125 4.12305 15.4766 4.12305C15.5586 4.12305 15.6406 4.14128 15.7227 4.17773C15.8047 4.20508 15.8457 4.27799 15.8457 4.39648C15.8457 4.51497 15.7865 4.62435 15.668 4.72461C15.5586 4.82487 15.4492 4.875 15.3398 4.875C15.2305 4.875 15.153 4.8431 15.1074 4.7793C15.0618 4.70638 15.0391 4.62435 15.0391 4.5332ZM19.7422 9.07227C19.6693 9.10872 19.5918 9.13151 19.5098 9.14062C19.4277 9.14062 19.3457 9.14062 19.2637 9.14062C19.1816 9.14062 19.0996 9.14518 19.0176 9.1543C18.9355 9.1543 18.8535 9.17253 18.7715 9.20898C18.6165 9.22721 18.5163 9.2181 18.4707 9.18164C18.4251 9.13607 18.4115 9.07682 18.4297 9.00391C18.4479 8.93099 18.498 8.84896 18.5801 8.75781C18.6621 8.66667 18.7578 8.58919 18.8672 8.52539C18.9674 8.46159 19.0768 8.41602 19.1953 8.38867C19.3229 8.36133 19.4368 8.36589 19.5371 8.40234C19.4915 8.23828 19.4961 8.09701 19.5508 7.97852C19.6055 7.86003 19.7148 7.80078 19.8789 7.80078C19.9609 7.80078 20.0339 7.8099 20.0977 7.82812C20.1706 7.83724 20.2253 7.8737 20.2617 7.9375C20.3984 7.85547 20.5807 7.71875 20.8086 7.52734C21.0365 7.32682 21.2689 7.1263 21.5059 6.92578C21.752 6.71615 21.9753 6.53385 22.1758 6.37891C22.3763 6.21484 22.513 6.13281 22.5859 6.13281C22.6133 6.13281 22.6497 6.13737 22.6953 6.14648C22.7409 6.14648 22.7865 6.1556 22.832 6.17383C22.8867 6.19206 22.9277 6.21484 22.9551 6.24219C22.9915 6.26042 23.0098 6.29232 23.0098 6.33789V6.92578C22.946 7.18099 22.8822 7.42253 22.8184 7.65039C22.7637 7.86914 22.7135 8.08789 22.668 8.30664C22.6315 8.51628 22.6042 8.73047 22.5859 8.94922C22.5677 9.16797 22.5586 9.40039 22.5586 9.64648C22.7044 9.64648 22.8776 9.61458 23.0781 9.55078C23.2878 9.48698 23.4974 9.40951 23.707 9.31836C23.9167 9.22721 24.1126 9.13607 24.2949 9.04492C24.4772 8.94466 24.623 8.86263 24.7324 8.79883C24.7507 8.78971 24.7917 8.75781 24.8555 8.70312C24.9193 8.64844 24.9876 8.59375 25.0605 8.53906C25.1335 8.47526 25.2018 8.42057 25.2656 8.375C25.3385 8.32031 25.3841 8.28385 25.4023 8.26562C25.4206 8.2474 25.4661 8.22461 25.5391 8.19727C25.612 8.16081 25.653 8.13802 25.6621 8.12891C25.6986 8.11979 25.7305 8.13346 25.7578 8.16992C25.7943 8.19727 25.8262 8.23372 25.8535 8.2793C25.8809 8.31576 25.8991 8.35677 25.9082 8.40234C25.9264 8.4388 25.9355 8.46159 25.9355 8.4707C25.9355 8.56185 25.8991 8.65299 25.8262 8.74414C25.7533 8.83529 25.6667 8.92188 25.5664 9.00391C25.4661 9.07682 25.3613 9.14974 25.252 9.22266C25.1517 9.28646 25.0742 9.3457 25.0195 9.40039C24.9466 9.43685 24.819 9.49609 24.6367 9.57812C24.4635 9.66016 24.2767 9.74674 24.0762 9.83789C23.8757 9.92904 23.6842 10.0156 23.502 10.0977C23.3288 10.1797 23.2057 10.2389 23.1328 10.2754C23.1146 10.2845 23.0736 10.2982 23.0098 10.3164C22.946 10.3255 22.8776 10.3438 22.8047 10.3711C22.7318 10.3984 22.6589 10.4212 22.5859 10.4395C22.5221 10.4486 22.4811 10.4577 22.4629 10.4668C22.3809 10.4941 22.3171 10.5397 22.2715 10.6035C22.235 10.6673 22.194 10.7311 22.1484 10.7949C22.112 10.8587 22.0618 10.9134 21.998 10.959C21.9434 11.0046 21.8522 11.0182 21.7246 11C21.7155 10.9909 21.6745 10.9727 21.6016 10.9453C21.5378 10.9089 21.4967 10.8815 21.4785 10.8633C21.2598 10.7083 21.0729 10.5625 20.918 10.4258C20.763 10.2891 20.6217 10.1569 20.4941 10.0293C20.3665 9.89258 20.2435 9.74674 20.125 9.5918C20.0156 9.43685 19.888 9.26367 19.7422 9.07227ZM20.6035 8.52539C20.6673 8.66211 20.7266 8.79427 20.7812 8.92188C20.8451 9.04948 20.918 9.17253 21 9.29102C21.082 9.40039 21.1732 9.49609 21.2734 9.57812C21.3828 9.66016 21.515 9.71029 21.6699 9.72852C21.6882 9.5918 21.7109 9.42773 21.7383 9.23633C21.7656 9.04492 21.7975 8.8444 21.834 8.63477C21.8704 8.42513 21.9115 8.22005 21.957 8.01953C22.0117 7.8099 22.071 7.6276 22.1348 7.47266H21.998C21.8522 7.57292 21.7155 7.67318 21.5879 7.77344C21.4694 7.86458 21.3509 7.95573 21.2324 8.04688C21.1139 8.12891 21.0182 8.20182 20.9453 8.26562C20.9362 8.27474 20.9225 8.28841 20.9043 8.30664C20.8861 8.32487 20.8724 8.33398 20.8633 8.33398C20.8542 8.35221 20.8132 8.38411 20.7402 8.42969C20.6673 8.47526 20.6217 8.50716 20.6035 8.52539ZM22.1348 7.26758C22.1074 7.26758 22.0938 7.29036 22.0938 7.33594C22.0938 7.3724 22.1074 7.39062 22.1348 7.39062C22.1712 7.39062 22.1895 7.3724 22.1895 7.33594C22.1895 7.29036 22.1712 7.26758 22.1348 7.26758ZM31.9238 8.12891C31.9329 8.08333 31.9603 8.0013 32.0059 7.88281C32.0514 7.76432 32.097 7.63672 32.1426 7.5C32.1973 7.36328 32.2474 7.23568 32.293 7.11719C32.3385 6.9987 32.3704 6.91667 32.3887 6.87109C32.4434 6.72526 32.4935 6.62956 32.5391 6.58398C32.5938 6.53841 32.6895 6.51562 32.8262 6.51562C32.972 6.51562 33.0677 6.56576 33.1133 6.66602C33.1589 6.76628 33.1816 6.88477 33.1816 7.02148C33.1816 7.25846 33.1452 7.47721 33.0723 7.67773C33.0085 7.86914 32.9355 8.0651 32.8535 8.26562C32.7715 8.45703 32.694 8.66667 32.6211 8.89453C32.5573 9.11328 32.5254 9.36849 32.5254 9.66016C32.5254 9.69661 32.5254 9.7513 32.5254 9.82422C32.5254 9.88802 32.5299 9.95638 32.5391 10.0293C32.5482 10.0931 32.5664 10.1523 32.5938 10.207C32.6211 10.2526 32.6576 10.2754 32.7031 10.2754C32.9401 10.2754 33.1771 10.2298 33.4141 10.1387C33.6602 10.0384 33.8971 9.92448 34.125 9.79688C34.362 9.66016 34.5853 9.51432 34.7949 9.35938C35.0137 9.19531 35.2096 9.05404 35.3828 8.93555C35.4466 8.88997 35.4922 8.8444 35.5195 8.79883C35.556 8.75326 35.5879 8.71224 35.6152 8.67578C35.6426 8.63021 35.6745 8.59375 35.7109 8.56641C35.7565 8.52995 35.8249 8.51172 35.916 8.51172C36.0345 8.51172 36.1302 8.53906 36.2031 8.59375C36.2852 8.63932 36.3262 8.72591 36.3262 8.85352C36.3262 8.9082 36.3216 8.95833 36.3125 9.00391C36.3125 9.04948 36.2897 9.09049 36.2441 9.12695C36.235 9.1543 36.1986 9.19076 36.1348 9.23633C36.0801 9.2819 36.0208 9.33203 35.957 9.38672C35.8932 9.43229 35.834 9.47786 35.7793 9.52344C35.7246 9.5599 35.6836 9.58268 35.6562 9.5918C35.6471 9.5918 35.6198 9.60547 35.5742 9.63281C35.5378 9.65104 35.515 9.66016 35.5059 9.66016C35.4967 9.66927 35.4831 9.68294 35.4648 9.70117C35.4557 9.71029 35.4512 9.7194 35.4512 9.72852C35.2598 9.87435 35.0501 10.0247 34.8223 10.1797C34.6035 10.3255 34.3711 10.4622 34.125 10.5898C33.8789 10.7083 33.6237 10.8086 33.3594 10.8906C33.1042 10.9727 32.849 11.0137 32.5938 11.0137C32.375 11.0137 32.2064 10.959 32.0879 10.8496C31.9785 10.7311 31.8965 10.5853 31.8418 10.4121C31.7871 10.2389 31.7552 10.0566 31.7461 9.86523C31.737 9.67383 31.7324 9.50065 31.7324 9.3457L31.9238 8.12891ZM32.5801 4.5332C32.5801 4.36914 32.612 4.25977 32.6758 4.20508C32.7396 4.15039 32.8535 4.12305 33.0176 4.12305C33.0996 4.12305 33.1816 4.14128 33.2637 4.17773C33.3457 4.20508 33.3867 4.27799 33.3867 4.39648C33.3867 4.51497 33.3275 4.62435 33.209 4.72461C33.0996 4.82487 32.9902 4.875 32.8809 4.875C32.7715 4.875 32.694 4.8431 32.6484 4.7793C32.6029 4.70638 32.5801 4.62435 32.5801 4.5332ZM37.2832 9.07227C37.2103 9.10872 37.1328 9.13151 37.0508 9.14062C36.9688 9.14062 36.8867 9.14062 36.8047 9.14062C36.7227 9.14062 36.6406 9.14518 36.5586 9.1543C36.4766 9.1543 36.3945 9.17253 36.3125 9.20898C36.1576 9.22721 36.0573 9.2181 36.0117 9.18164C35.9661 9.13607 35.9525 9.07682 35.9707 9.00391C35.9889 8.93099 36.0391 8.84896 36.1211 8.75781C36.2031 8.66667 36.2988 8.58919 36.4082 8.52539C36.5085 8.46159 36.6178 8.41602 36.7363 8.38867C36.8639 8.36133 36.9779 8.36589 37.0781 8.40234C37.0326 8.23828 37.0371 8.09701 37.0918 7.97852C37.1465 7.86003 37.2559 7.80078 37.4199 7.80078C37.502 7.80078 37.5749 7.8099 37.6387 7.82812C37.7116 7.83724 37.7663 7.8737 37.8027 7.9375C37.9395 7.85547 38.1217 7.71875 38.3496 7.52734C38.5775 7.32682 38.8099 7.1263 39.0469 6.92578C39.293 6.71615 39.5163 6.53385 39.7168 6.37891C39.9173 6.21484 40.054 6.13281 40.127 6.13281C40.1543 6.13281 40.1908 6.13737 40.2363 6.14648C40.2819 6.14648 40.3275 6.1556 40.373 6.17383C40.4277 6.19206 40.4688 6.21484 40.4961 6.24219C40.5326 6.26042 40.5508 6.29232 40.5508 6.33789V6.92578C40.487 7.18099 40.4232 7.42253 40.3594 7.65039C40.3047 7.86914 40.2546 8.08789 40.209 8.30664C40.1725 8.51628 40.1452 8.73047 40.127 8.94922C40.1087 9.16797 40.0996 9.40039 40.0996 9.64648C40.2454 9.64648 40.4186 9.61458 40.6191 9.55078C40.8288 9.48698 41.0384 9.40951 41.248 9.31836C41.4577 9.22721 41.6536 9.13607 41.8359 9.04492C42.0182 8.94466 42.1641 8.86263 42.2734 8.79883C42.2917 8.78971 42.3327 8.75781 42.3965 8.70312C42.4603 8.64844 42.5286 8.59375 42.6016 8.53906C42.6745 8.47526 42.7428 8.42057 42.8066 8.375C42.8796 8.32031 42.9251 8.28385 42.9434 8.26562C42.9616 8.2474 43.0072 8.22461 43.0801 8.19727C43.153 8.16081 43.194 8.13802 43.2031 8.12891C43.2396 8.11979 43.2715 8.13346 43.2988 8.16992C43.3353 8.19727 43.3672 8.23372 43.3945 8.2793C43.4219 8.31576 43.4401 8.35677 43.4492 8.40234C43.4674 8.4388 43.4766 8.46159 43.4766 8.4707C43.4766 8.56185 43.4401 8.65299 43.3672 8.74414C43.2943 8.83529 43.2077 8.92188 43.1074 9.00391C43.0072 9.07682 42.9023 9.14974 42.793 9.22266C42.6927 9.28646 42.6152 9.3457 42.5605 9.40039C42.4876 9.43685 42.36 9.49609 42.1777 9.57812C42.0046 9.66016 41.8177 9.74674 41.6172 9.83789C41.4167 9.92904 41.2253 10.0156 41.043 10.0977C40.8698 10.1797 40.7467 10.2389 40.6738 10.2754C40.6556 10.2845 40.6146 10.2982 40.5508 10.3164C40.487 10.3255 40.4186 10.3438 40.3457 10.3711C40.2728 10.3984 40.1999 10.4212 40.127 10.4395C40.0632 10.4486 40.0221 10.4577 40.0039 10.4668C39.9219 10.4941 39.8581 10.5397 39.8125 10.6035C39.776 10.6673 39.735 10.7311 39.6895 10.7949C39.653 10.8587 39.6029 10.9134 39.5391 10.959C39.4844 11.0046 39.3932 11.0182 39.2656 11C39.2565 10.9909 39.2155 10.9727 39.1426 10.9453C39.0788 10.9089 39.0378 10.8815 39.0195 10.8633C38.8008 10.7083 38.6139 10.5625 38.459 10.4258C38.304 10.2891 38.1628 10.1569 38.0352 10.0293C37.9076 9.89258 37.7845 9.74674 37.666 9.5918C37.5566 9.43685 37.429 9.26367 37.2832 9.07227ZM38.1445 8.52539C38.2083 8.66211 38.2676 8.79427 38.3223 8.92188C38.3861 9.04948 38.459 9.17253 38.541 9.29102C38.623 9.40039 38.7142 9.49609 38.8145 9.57812C38.9238 9.66016 39.056 9.71029 39.2109 9.72852C39.2292 9.5918 39.252 9.42773 39.2793 9.23633C39.3066 9.04492 39.3385 8.8444 39.375 8.63477C39.4115 8.42513 39.4525 8.22005 39.498 8.01953C39.5527 7.8099 39.612 7.6276 39.6758 7.47266H39.5391C39.3932 7.57292 39.2565 7.67318 39.1289 7.77344C39.0104 7.86458 38.8919 7.95573 38.7734 8.04688C38.6549 8.12891 38.5592 8.20182 38.4863 8.26562C38.4772 8.27474 38.4635 8.28841 38.4453 8.30664C38.4271 8.32487 38.4134 8.33398 38.4043 8.33398C38.3952 8.35221 38.3542 8.38411 38.2812 8.42969C38.2083 8.47526 38.1628 8.50716 38.1445 8.52539ZM39.6758 7.26758C39.6484 7.26758 39.6348 7.29036 39.6348 7.33594C39.6348 7.3724 39.6484 7.39062 39.6758 7.39062C39.7122 7.39062 39.7305 7.3724 39.7305 7.33594C39.7305 7.29036 39.7122 7.26758 39.6758 7.26758ZM49.4648 10.5898C49.4648 10.5625 49.4648 10.4941 49.4648 10.3848C49.4648 10.2754 49.4648 10.2025 49.4648 10.166C49.3099 9.61914 49.2871 9.08138 49.3965 8.55273C49.515 8.02409 49.7201 7.55013 50.0117 7.13086C50.3125 6.70247 50.6908 6.34701 51.1465 6.06445C51.6113 5.77279 52.1172 5.59505 52.6641 5.53125H52.9102C53.1107 5.53125 53.2747 5.57682 53.4023 5.66797C53.5391 5.75 53.6439 5.85938 53.7168 5.99609C53.7988 6.13281 53.8535 6.28776 53.8809 6.46094C53.9173 6.63411 53.9355 6.80729 53.9355 6.98047C53.9355 7.21745 53.9082 7.44987 53.8535 7.67773C53.8079 7.89648 53.7533 8.11979 53.6895 8.34766C53.6348 8.57552 53.5801 8.80339 53.5254 9.03125C53.4798 9.25 53.457 9.48242 53.457 9.72852V9.81055C53.4661 9.82878 53.4753 9.88346 53.4844 9.97461C53.5026 10.0566 53.5163 10.1068 53.5254 10.125C53.5436 10.125 53.5892 10.1296 53.6621 10.1387C53.735 10.1387 53.7806 10.1387 53.7988 10.1387C53.89 10.1387 53.9766 10.1387 54.0586 10.1387C54.1497 10.1296 54.2409 10.1068 54.332 10.0703L56.9297 8.86719C56.9388 8.86719 56.9525 8.86719 56.9707 8.86719C56.998 8.85807 57.0163 8.85352 57.0254 8.85352C57.1165 8.85352 57.1895 8.88086 57.2441 8.93555C57.3079 8.99023 57.3398 9.06315 57.3398 9.1543C57.3398 9.19987 57.3353 9.24544 57.3262 9.29102C57.3262 9.32747 57.3034 9.36393 57.2578 9.40039C57.194 9.44596 57.0755 9.50977 56.9023 9.5918C56.7383 9.67383 56.5605 9.76497 56.3691 9.86523C56.1777 9.96549 55.9954 10.0612 55.8223 10.1523C55.6582 10.2435 55.5397 10.3027 55.4668 10.3301C55.3392 10.403 55.1979 10.4714 55.043 10.5352C54.888 10.5898 54.7285 10.6445 54.5645 10.6992C54.4004 10.7539 54.2363 10.7995 54.0723 10.8359C53.9173 10.8633 53.776 10.877 53.6484 10.877C53.4479 10.877 53.2839 10.8451 53.1562 10.7812C53.0286 10.7083 52.9329 10.6172 52.8691 10.5078C52.8053 10.3893 52.7598 10.2526 52.7324 10.0977C52.7142 9.93359 52.7142 9.76497 52.7324 9.5918C52.5501 9.73763 52.3542 9.89258 52.1445 10.0566C51.9349 10.2207 51.7161 10.3711 51.4883 10.5078C51.2604 10.6445 51.028 10.763 50.791 10.8633C50.554 10.9635 50.3125 11.0137 50.0664 11.0137C49.9297 11.0137 49.8066 10.9818 49.6973 10.918C49.5879 10.8451 49.5104 10.7357 49.4648 10.5898ZM50.2031 10.3027C50.4128 10.3027 50.6452 10.2435 50.9004 10.125C51.1556 9.9974 51.4062 9.84245 51.6523 9.66016C51.8984 9.47786 52.1217 9.28646 52.3223 9.08594C52.5228 8.8763 52.6777 8.68945 52.7871 8.52539C52.7962 8.25195 52.8327 7.99219 52.8965 7.74609C52.9694 7.49089 53.0059 7.23112 53.0059 6.9668C53.0059 6.94857 53.0013 6.92122 52.9922 6.88477C52.9922 6.84831 52.9922 6.82096 52.9922 6.80273C52.8737 6.70247 52.7734 6.64323 52.6914 6.625C52.6094 6.60677 52.5 6.59766 52.3633 6.59766C52.3451 6.59766 52.304 6.59766 52.2402 6.59766C52.1855 6.59766 52.1491 6.60221 52.1309 6.61133C52.0762 6.6569 51.985 6.74349 51.8574 6.87109C51.7298 6.98958 51.5931 7.12174 51.4473 7.26758C51.3105 7.41341 51.1784 7.55013 51.0508 7.67773C50.9323 7.80534 50.8503 7.89193 50.8047 7.9375C50.7956 7.9375 50.7773 7.95573 50.75 7.99219C50.7227 8.01953 50.6908 8.05599 50.6543 8.10156C50.627 8.14714 50.5996 8.19271 50.5723 8.23828C50.554 8.27474 50.5404 8.30664 50.5312 8.33398L50.2031 9.93359V10.3027ZM62.4941 13.9121C62.4941 13.6478 62.526 13.3516 62.5898 13.0234C62.6536 12.7044 62.722 12.3809 62.7949 12.0527C62.8678 11.7337 62.9362 11.4193 63 11.1094C63.0638 10.7995 63.0957 10.5078 63.0957 10.2344V10.125L63.4238 9.20898C63.5423 8.94466 63.679 8.67122 63.834 8.38867C63.9889 8.10612 64.1621 7.84635 64.3535 7.60938C64.554 7.36328 64.7819 7.1582 65.0371 6.99414C65.2923 6.82096 65.5794 6.71159 65.8984 6.66602C66.0078 6.64779 66.1263 6.67057 66.2539 6.73438C66.3815 6.78906 66.5 6.86198 66.6094 6.95312C66.7279 7.04427 66.8236 7.14909 66.8965 7.26758C66.9694 7.38607 67.015 7.5 67.0332 7.60938C67.0332 7.6276 67.0332 7.66406 67.0332 7.71875C67.0332 7.77344 67.0332 7.83268 67.0332 7.89648C67.0332 7.96029 67.0332 8.01953 67.0332 8.07422C67.0332 8.12891 67.0332 8.16992 67.0332 8.19727C67.0332 8.45247 66.9967 8.69857 66.9238 8.93555C66.8509 9.17253 66.8145 9.40039 66.8145 9.61914V9.66016C66.8418 9.64193 66.9056 9.61003 67.0059 9.56445C67.1061 9.51888 67.2201 9.46875 67.3477 9.41406C67.4844 9.35938 67.6302 9.30013 67.7852 9.23633C67.9492 9.17253 68.1042 9.11328 68.25 9.05859C68.3958 9.00391 68.5234 8.96289 68.6328 8.93555C68.7513 8.89909 68.8333 8.88086 68.8789 8.88086C68.9883 8.88086 69.0521 8.89909 69.0703 8.93555C69.0977 8.96289 69.1113 9.01302 69.1113 9.08594C69.1113 9.1862 69.0521 9.28646 68.9336 9.38672C68.8151 9.48698 68.6602 9.58268 68.4688 9.67383C68.2865 9.76497 68.0814 9.85156 67.8535 9.93359C67.6348 10.0065 67.4206 10.0749 67.2109 10.1387C67.0104 10.2025 66.8327 10.2663 66.6777 10.3301C66.5228 10.3848 66.418 10.4258 66.3633 10.4531C66.263 10.526 66.1673 10.6035 66.0762 10.6855C65.9941 10.7676 65.9076 10.8405 65.8164 10.9043C65.7253 10.9681 65.6296 11.0228 65.5293 11.0684C65.429 11.1139 65.3151 11.1367 65.1875 11.1367C64.9961 11.1367 64.8092 11.0866 64.627 10.9863C64.4538 10.877 64.2943 10.7676 64.1484 10.6582L64.0801 10.7129C64.0801 10.722 64.0482 10.8451 63.9844 11.082C63.9297 11.319 63.8613 11.5924 63.7793 11.9023C63.7064 12.2214 63.6289 12.5358 63.5469 12.8457C63.474 13.1556 63.4147 13.3971 63.3691 13.5703C63.3509 13.6706 63.3372 13.7708 63.3281 13.8711C63.319 13.9805 63.2962 14.0807 63.2598 14.1719C63.2324 14.2721 63.1823 14.3542 63.1094 14.418C63.0365 14.4818 62.9362 14.5137 62.8086 14.5137H62.6309C62.5762 14.4043 62.5397 14.304 62.5215 14.2129C62.5033 14.1309 62.4941 14.0306 62.4941 13.9121ZM64.3262 9.87891C64.4264 9.94271 64.5312 9.97917 64.6406 9.98828C64.75 9.9974 64.8548 9.9974 64.9551 9.98828C65.0645 9.97005 65.1693 9.94727 65.2695 9.91992C65.3789 9.89258 65.4837 9.87891 65.584 9.87891C65.6022 9.87891 65.6432 9.87891 65.707 9.87891C65.7708 9.86979 65.8073 9.86523 65.8164 9.86523C65.9258 9.81055 66.0124 9.71029 66.0762 9.56445C66.14 9.41862 66.1855 9.26367 66.2129 9.09961C66.2493 8.93555 66.2721 8.77604 66.2812 8.62109C66.2904 8.45703 66.2949 8.32943 66.2949 8.23828C66.2949 8.15625 66.2904 8.06966 66.2812 7.97852C66.2721 7.88737 66.2493 7.80534 66.2129 7.73242C66.1855 7.65039 66.1445 7.58203 66.0898 7.52734C66.0352 7.47266 65.9577 7.44531 65.8574 7.44531C65.8392 7.44531 65.8073 7.44987 65.7617 7.45898C65.7253 7.45898 65.6979 7.45898 65.6797 7.45898C65.6432 7.56836 65.5658 7.71875 65.4473 7.91016C65.3379 8.09245 65.2194 8.28385 65.0918 8.48438C64.9733 8.6849 64.8639 8.88086 64.7637 9.07227C64.6634 9.25456 64.6133 9.39583 64.6133 9.49609L64.3262 9.87891ZM68.9336 8.12891C68.9427 8.08333 68.9701 8.0013 69.0156 7.88281C69.0612 7.76432 69.1068 7.63672 69.1523 7.5C69.207 7.36328 69.2572 7.23568 69.3027 7.11719C69.3483 6.9987 69.3802 6.91667 69.3984 6.87109C69.4531 6.72526 69.5033 6.62956 69.5488 6.58398C69.6035 6.53841 69.6992 6.51562 69.8359 6.51562C69.9818 6.51562 70.0775 6.56576 70.123 6.66602C70.1686 6.76628 70.1914 6.88477 70.1914 7.02148C70.1914 7.25846 70.1549 7.47721 70.082 7.67773C70.0182 7.86914 69.9453 8.0651 69.8633 8.26562C69.7812 8.45703 69.7038 8.66667 69.6309 8.89453C69.5671 9.11328 69.5352 9.36849 69.5352 9.66016C69.5352 9.69661 69.5352 9.7513 69.5352 9.82422C69.5352 9.88802 69.5397 9.95638 69.5488 10.0293C69.5579 10.0931 69.5762 10.1523 69.6035 10.207C69.6309 10.2526 69.6673 10.2754 69.7129 10.2754C69.9499 10.2754 70.1868 10.2298 70.4238 10.1387C70.6699 10.0384 70.9069 9.92448 71.1348 9.79688C71.3717 9.66016 71.5951 9.51432 71.8047 9.35938C72.0234 9.19531 72.2194 9.05404 72.3926 8.93555C72.4564 8.88997 72.502 8.8444 72.5293 8.79883C72.5658 8.75326 72.5977 8.71224 72.625 8.67578C72.6523 8.63021 72.6842 8.59375 72.7207 8.56641C72.7663 8.52995 72.8346 8.51172 72.9258 8.51172C73.0443 8.51172 73.14 8.53906 73.2129 8.59375C73.2949 8.63932 73.3359 8.72591 73.3359 8.85352C73.3359 8.9082 73.3314 8.95833 73.3223 9.00391C73.3223 9.04948 73.2995 9.09049 73.2539 9.12695C73.2448 9.1543 73.2083 9.19076 73.1445 9.23633C73.0898 9.2819 73.0306 9.33203 72.9668 9.38672C72.903 9.43229 72.8438 9.47786 72.7891 9.52344C72.7344 9.5599 72.6934 9.58268 72.666 9.5918C72.6569 9.5918 72.6296 9.60547 72.584 9.63281C72.5475 9.65104 72.5247 9.66016 72.5156 9.66016C72.5065 9.66927 72.4928 9.68294 72.4746 9.70117C72.4655 9.71029 72.4609 9.7194 72.4609 9.72852C72.2695 9.87435 72.0599 10.0247 71.832 10.1797C71.6133 10.3255 71.3809 10.4622 71.1348 10.5898C70.8887 10.7083 70.6335 10.8086 70.3691 10.8906C70.1139 10.9727 69.8587 11.0137 69.6035 11.0137C69.3848 11.0137 69.2161 10.959 69.0977 10.8496C68.9883 10.7311 68.9062 10.5853 68.8516 10.4121C68.7969 10.2389 68.765 10.0566 68.7559 9.86523C68.7467 9.67383 68.7422 9.50065 68.7422 9.3457L68.9336 8.12891ZM69.5898 4.5332C69.5898 4.36914 69.6217 4.25977 69.6855 4.20508C69.7493 4.15039 69.8633 4.12305 70.0273 4.12305C70.1094 4.12305 70.1914 4.14128 70.2734 4.17773C70.3555 4.20508 70.3965 4.27799 70.3965 4.39648C70.3965 4.51497 70.3372 4.62435 70.2188 4.72461C70.1094 4.82487 70 4.875 69.8906 4.875C69.7812 4.875 69.7038 4.8431 69.6582 4.7793C69.6126 4.70638 69.5898 4.62435 69.5898 4.5332ZM73.7871 9.12695C73.8327 8.66211 73.9375 8.22005 74.1016 7.80078C74.2747 7.38151 74.4707 7.02148 74.6895 6.7207C74.9173 6.41992 75.1452 6.1875 75.373 6.02344C75.61 5.85938 75.8151 5.80924 75.9883 5.87305C76.0339 5.8457 76.0703 5.82292 76.0977 5.80469C76.1341 5.77734 76.1615 5.75456 76.1797 5.73633C76.207 5.70898 76.2344 5.69076 76.2617 5.68164C76.2982 5.66341 76.3483 5.6543 76.4121 5.6543C76.5397 5.6543 76.6536 5.69531 76.7539 5.77734C76.8542 5.85938 76.9408 5.95964 77.0137 6.07812C77.0957 6.19661 77.1549 6.32422 77.1914 6.46094C77.237 6.58854 77.2598 6.70703 77.2598 6.81641C77.2598 6.9349 77.2142 7.01693 77.123 7.0625C77.0319 7.10807 76.9271 7.13086 76.8086 7.13086C76.7357 7.13086 76.6719 7.11719 76.6172 7.08984C76.5625 7.05339 76.5124 7.01237 76.4668 6.9668C76.4303 6.92122 76.3893 6.87565 76.3438 6.83008C76.2982 6.78451 76.2389 6.7526 76.166 6.73438H76.1523H76.1113C76.1022 6.74349 76.0794 6.76628 76.043 6.80273C76.0156 6.83008 75.9974 6.85286 75.9883 6.87109C75.7969 7.09896 75.6191 7.30404 75.4551 7.48633C75.291 7.65951 75.1452 7.83724 75.0176 8.01953C74.8991 8.20182 74.8034 8.39779 74.7305 8.60742C74.6667 8.81706 74.6348 9.06771 74.6348 9.35938C74.6348 9.38672 74.6348 9.42773 74.6348 9.48242C74.6348 9.53711 74.6348 9.5918 74.6348 9.64648C74.6439 9.70117 74.6484 9.75586 74.6484 9.81055C74.6484 9.86523 74.6484 9.90625 74.6484 9.93359C74.6667 10.0247 74.7168 10.0931 74.7988 10.1387C74.89 10.1842 74.972 10.2298 75.0449 10.2754C75.0723 10.2754 75.1406 10.2799 75.25 10.2891C75.3594 10.2891 75.4232 10.2891 75.4414 10.2891C75.7695 10.2891 76.1569 10.2389 76.6035 10.1387C77.0501 10.0293 77.4967 9.88802 77.9434 9.71484C78.3991 9.54167 78.8275 9.33659 79.2285 9.09961C79.6296 8.85352 79.9486 8.59831 80.1855 8.33398C80.2402 8.26107 80.2858 8.16081 80.3223 8.0332C80.3678 7.9056 80.4134 7.78255 80.459 7.66406C80.5137 7.53646 80.5729 7.42708 80.6367 7.33594C80.7005 7.24479 80.7962 7.19922 80.9238 7.19922C81.0423 7.19922 81.1152 7.24935 81.1426 7.34961C81.179 7.44076 81.1973 7.5319 81.1973 7.62305C81.1973 7.91471 81.1243 8.17904 80.9785 8.41602C80.8418 8.65299 80.6686 8.86719 80.459 9.05859C80.2493 9.25 80.0169 9.41862 79.7617 9.56445C79.5156 9.71029 79.2786 9.83333 79.0508 9.93359C78.987 9.95182 78.8457 10.002 78.627 10.084C78.4173 10.166 78.1895 10.2526 77.9434 10.3438C77.6973 10.4349 77.4557 10.526 77.2188 10.6172C76.9909 10.6992 76.8223 10.763 76.7129 10.8086C76.5671 10.8542 76.444 10.8906 76.3438 10.918C76.2435 10.9362 76.1523 10.9544 76.0703 10.9727C75.9883 10.9909 75.9017 11 75.8105 11C75.7285 11.0091 75.6283 11.0137 75.5098 11.0137C75.1816 11.0137 74.9082 10.9727 74.6895 10.8906C74.4798 10.8086 74.3112 10.6901 74.1836 10.5352C74.056 10.3711 73.9603 10.1751 73.8965 9.94727C73.8418 9.71029 73.8053 9.43685 73.7871 9.12695ZM81.0742 7.33594C81.0924 7.29948 81.1289 7.24479 81.1836 7.17188C81.2383 7.08984 81.2656 7.02148 81.2656 6.9668V6.92578C81.2656 6.91667 81.2565 6.90755 81.2383 6.89844C81.2201 6.88021 81.2064 6.87109 81.1973 6.87109H80.9512C80.7142 6.94401 80.4499 6.99414 80.1582 7.02148C79.8574 7.04883 79.5703 7.05794 79.2969 7.04883C79.0143 7.03971 78.7728 7.01693 78.5723 6.98047C78.3717 6.9349 78.2533 6.88477 78.2168 6.83008C78.1803 6.77539 78.2487 6.71159 78.4219 6.63867C78.5951 6.55664 78.9232 6.47461 79.4062 6.39258C79.4336 6.39258 79.4974 6.38346 79.5977 6.36523C79.6888 6.33789 79.7936 6.3151 79.9121 6.29688C80.0215 6.27865 80.1263 6.26042 80.2266 6.24219C80.3268 6.21484 80.3906 6.20117 80.418 6.20117C80.4544 6.19206 80.5319 6.1875 80.6504 6.1875C80.7689 6.17839 80.8874 6.16927 81.0059 6.16016C81.1335 6.15104 81.252 6.14648 81.3613 6.14648C81.4798 6.14648 81.5618 6.14648 81.6074 6.14648L81.6758 6.06445L82.7422 4.27344C82.7786 4.20964 82.8424 4.15951 82.9336 4.12305C83.0339 4.08659 83.1113 4.06836 83.166 4.06836C83.2845 4.06836 83.3665 4.11849 83.4121 4.21875C83.4577 4.3099 83.4805 4.40104 83.4805 4.49219C83.4805 4.5013 83.4759 4.51042 83.4668 4.51953C83.4668 4.52865 83.4668 4.53776 83.4668 4.54688V4.60156L82.8652 6.06445V6.14648C82.8835 6.0918 82.9154 6.06445 82.9609 6.06445C83.0156 6.06445 83.0566 6.06445 83.084 6.06445C83.2207 6.06445 83.3529 6.11003 83.4805 6.20117C83.6081 6.29232 83.6719 6.41536 83.6719 6.57031C83.6719 6.64323 83.6491 6.70247 83.6035 6.74805C83.5579 6.79362 83.5033 6.83008 83.4395 6.85742C83.3757 6.88477 83.3073 6.90755 83.2344 6.92578C83.1615 6.9349 83.0977 6.93945 83.043 6.93945C82.9336 6.93945 82.8288 6.92578 82.7285 6.89844C82.6374 6.87109 82.5371 6.85742 82.4277 6.85742C82.3275 6.85742 82.2363 6.91211 82.1543 7.02148C82.0723 7.12174 81.9948 7.25846 81.9219 7.43164C81.8581 7.5957 81.8034 7.78255 81.7578 7.99219C81.7122 8.20182 81.6712 8.4069 81.6348 8.60742C81.5983 8.80794 81.571 8.99479 81.5527 9.16797C81.5436 9.34115 81.5391 9.47331 81.5391 9.56445C81.5391 9.60091 81.5391 9.67383 81.5391 9.7832C81.5482 9.89258 81.5527 9.96549 81.5527 10.002C81.5618 10.0566 81.5846 10.1068 81.6211 10.1523C81.6576 10.1888 81.694 10.2298 81.7305 10.2754H82.0449C82.4095 10.2754 82.7695 10.1934 83.125 10.0293C83.4896 9.86523 83.8314 9.67839 84.1504 9.46875C84.1686 9.45964 84.2096 9.41862 84.2734 9.3457C84.3464 9.26367 84.4238 9.1862 84.5059 9.11328C84.5879 9.03125 84.6608 8.95833 84.7246 8.89453C84.7975 8.83073 84.8477 8.79883 84.875 8.79883C84.9388 8.79883 84.998 8.83073 85.0527 8.89453C85.1074 8.95833 85.1348 9.02669 85.1348 9.09961C85.1348 9.27279 85.071 9.44141 84.9434 9.60547C84.8249 9.76953 84.6699 9.92448 84.4785 10.0703C84.2871 10.207 84.0684 10.3346 83.8223 10.4531C83.5762 10.5716 83.3301 10.6719 83.084 10.7539C82.847 10.8359 82.6191 10.8997 82.4004 10.9453C82.1908 10.9909 82.0176 11.0137 81.8809 11.0137C81.7533 11.0137 81.6211 11 81.4844 10.9727C81.3477 10.9362 81.2246 10.8815 81.1152 10.8086C81.0059 10.7357 80.9147 10.6445 80.8418 10.5352C80.7689 10.4258 80.7324 10.2891 80.7324 10.125V8.60742L81.0742 7.33594ZM84.5742 9.52344C84.6107 9.39583 84.6335 9.26367 84.6426 9.12695C84.6608 8.99023 84.679 8.8444 84.6973 8.68945C84.7246 8.53451 84.7656 8.36133 84.8203 8.16992C84.8841 7.9694 84.9798 7.74609 85.1074 7.5C85.235 7.25391 85.4036 6.97135 85.6133 6.65234C85.832 6.32422 86.1146 5.95052 86.4609 5.53125C86.4974 5.47656 86.543 5.43099 86.5977 5.39453C86.6523 5.34896 86.7116 5.32617 86.7754 5.32617C86.8848 5.32617 86.9805 5.37174 87.0625 5.46289C87.1445 5.54492 87.1855 5.63607 87.1855 5.73633C87.1855 5.74544 87.1764 5.77734 87.1582 5.83203C87.1491 5.8776 87.14 5.90951 87.1309 5.92773C87.0306 6.13737 86.9349 6.32422 86.8438 6.48828C86.7526 6.65234 86.6569 6.81185 86.5566 6.9668C86.4564 7.11263 86.3424 7.26758 86.2148 7.43164C86.0964 7.5957 85.9551 7.78255 85.791 7.99219C85.6816 8.26562 85.5859 8.52083 85.5039 8.75781C85.4219 8.99479 85.3809 9.25911 85.3809 9.55078C85.3809 9.69661 85.3854 9.8151 85.3945 9.90625C85.4128 9.9974 85.4583 10.1204 85.5312 10.2754H85.6816C85.946 10.2754 86.2467 10.1706 86.584 9.96094C86.9303 9.74219 87.2676 9.48698 87.5957 9.19531C87.9329 8.89453 88.2383 8.58919 88.5117 8.2793C88.7852 7.9694 88.9857 7.71875 89.1133 7.52734C89.1315 7.50911 89.1543 7.4681 89.1816 7.4043C89.2181 7.33138 89.2409 7.28581 89.25 7.26758C89.2682 7.21289 89.3001 7.12174 89.3457 6.99414C89.3913 6.85742 89.4368 6.71615 89.4824 6.57031C89.5371 6.42448 89.5872 6.28776 89.6328 6.16016C89.6784 6.02344 89.7103 5.92773 89.7285 5.87305C89.7467 5.79102 89.7832 5.74544 89.8379 5.73633C89.8926 5.72721 89.9473 5.72266 90.002 5.72266C90.166 5.72266 90.2708 5.75911 90.3164 5.83203C90.362 5.89583 90.3848 6.00521 90.3848 6.16016V6.39258C90.2936 6.63867 90.2116 6.86654 90.1387 7.07617C90.0749 7.28581 90.0111 7.49089 89.9473 7.69141C89.8926 7.89193 89.8516 8.09245 89.8242 8.29297C89.7969 8.49349 89.7832 8.71224 89.7832 8.94922C89.7832 8.97656 89.7786 9.04036 89.7695 9.14062C89.7695 9.24089 89.7741 9.3457 89.7832 9.45508C89.8014 9.55534 89.8288 9.65104 89.8652 9.74219C89.9108 9.82422 89.9746 9.86523 90.0566 9.86523C90.2754 9.86523 90.4987 9.83789 90.7266 9.7832C90.9635 9.7194 91.2005 9.64193 91.4375 9.55078C91.6745 9.45052 91.8978 9.34115 92.1074 9.22266C92.3262 9.10417 92.5312 8.98568 92.7227 8.86719C92.7682 8.84896 92.8229 8.80794 92.8867 8.74414C92.9505 8.68034 93.0189 8.62109 93.0918 8.56641C93.1647 8.5026 93.2376 8.44792 93.3105 8.40234C93.3835 8.35677 93.4518 8.33398 93.5156 8.33398C93.6979 8.33398 93.7891 8.42513 93.7891 8.60742C93.7891 8.74414 93.707 8.88997 93.543 9.04492C93.3789 9.19076 93.1693 9.33659 92.9141 9.48242C92.668 9.62826 92.39 9.76497 92.0801 9.89258C91.7702 10.0202 91.4694 10.1341 91.1777 10.2344C90.8952 10.3255 90.64 10.403 90.4121 10.4668C90.1842 10.5215 90.0202 10.5488 89.9199 10.5488C89.8835 10.5488 89.8151 10.5488 89.7148 10.5488C89.6237 10.5397 89.5599 10.5352 89.5234 10.5352C89.3776 10.4987 89.2637 10.4167 89.1816 10.2891C89.0996 10.1615 89.0358 10.0202 88.9902 9.86523C88.9538 9.70117 88.931 9.54167 88.9219 9.38672C88.9128 9.22266 88.9082 9.09049 88.9082 8.99023C88.8809 9.00846 88.8444 9.03125 88.7988 9.05859C88.7624 9.07682 88.7396 9.09961 88.7305 9.12695C88.6576 9.19076 88.5345 9.29102 88.3613 9.42773C88.1973 9.55534 88.015 9.69661 87.8145 9.85156C87.623 9.9974 87.4408 10.1341 87.2676 10.2617C87.1035 10.3893 86.9896 10.4805 86.9258 10.5352C86.7435 10.6719 86.543 10.7858 86.3242 10.877C86.1055 10.9681 85.8822 11.0137 85.6543 11.0137C85.4173 11.0137 85.2305 10.9772 85.0938 10.9043C84.957 10.8223 84.8477 10.7174 84.7656 10.5898C84.6927 10.4531 84.6426 10.2936 84.6152 10.1113C84.5879 9.92904 84.5742 9.73307 84.5742 9.52344ZM92.9551 9.37305C93.2103 9.18164 93.3971 8.99479 93.5156 8.8125C93.6432 8.63021 93.7435 8.44792 93.8164 8.26562C93.8893 8.08333 93.9486 7.89193 93.9941 7.69141C94.0397 7.48177 94.1126 7.25391 94.2129 7.00781C94.1764 6.94401 94.1536 6.88932 94.1445 6.84375C94.1445 6.78906 94.1445 6.72526 94.1445 6.65234C94.1445 6.57943 94.1536 6.49284 94.1719 6.39258C94.1992 6.29232 94.2357 6.20117 94.2812 6.11914C94.3268 6.02799 94.3815 5.95052 94.4453 5.88672C94.5091 5.82292 94.5866 5.79102 94.6777 5.79102C94.6686 5.82747 94.7188 5.86849 94.8281 5.91406C94.9466 5.95964 95.0879 6.00977 95.252 6.06445C95.4251 6.11914 95.6074 6.17839 95.7988 6.24219C95.9902 6.30599 96.1589 6.37435 96.3047 6.44727C96.4688 6.53841 96.5827 6.63867 96.6465 6.74805C96.7194 6.84831 96.7559 6.99414 96.7559 7.18555C96.7559 7.35872 96.7331 7.55469 96.6875 7.77344C96.651 7.99219 96.61 8.21549 96.5645 8.44336C96.528 8.66211 96.487 8.88542 96.4414 9.11328C96.4049 9.33203 96.3867 9.53255 96.3867 9.71484V10.0703C96.3776 10.1523 96.3958 10.1979 96.4414 10.207C96.4961 10.207 96.5462 10.207 96.5918 10.207C96.7012 10.207 96.8014 10.1888 96.8926 10.1523C96.9837 10.1159 97.0749 10.0749 97.166 10.0293C97.2663 9.98372 97.362 9.94271 97.4531 9.90625C97.5443 9.86068 97.64 9.82878 97.7402 9.81055L98.9434 9.07227C98.9798 9.00846 99.0254 8.95833 99.0801 8.92188C99.1439 8.8763 99.2031 8.83529 99.2578 8.79883C99.349 8.74414 99.4583 8.66667 99.5859 8.56641C99.6497 8.51172 99.7181 8.45703 99.791 8.40234H100.201C100.229 8.40234 100.247 8.42969 100.256 8.48438C100.265 8.53906 100.27 8.58008 100.27 8.60742C100.27 8.7168 100.192 8.85352 100.037 9.01758C99.8822 9.18164 99.6816 9.35026 99.4355 9.52344C99.1895 9.69661 98.916 9.86979 98.6152 10.043C98.3145 10.207 98.0182 10.3574 97.7266 10.4941C97.444 10.6309 97.1797 10.7402 96.9336 10.8223C96.6966 10.9043 96.5143 10.9453 96.3867 10.9453C96.2227 10.9453 96.0905 10.9043 95.9902 10.8223C95.89 10.7402 95.8079 10.64 95.7441 10.5215C95.6803 10.403 95.6348 10.2754 95.6074 10.1387C95.5892 9.99284 95.5801 9.85156 95.5801 9.71484C95.5801 9.61458 95.612 9.47331 95.6758 9.29102C95.7396 9.10872 95.8125 8.92188 95.8945 8.73047C95.9766 8.53906 96.0495 8.35221 96.1133 8.16992C96.1771 7.98763 96.209 7.8418 96.209 7.73242C96.209 7.72331 96.1406 7.68685 96.0039 7.62305C95.8763 7.55924 95.735 7.49089 95.5801 7.41797C95.4251 7.33594 95.2793 7.26758 95.1426 7.21289C95.015 7.14909 94.9512 7.11263 94.9512 7.10352C94.7507 7.31315 94.6094 7.53646 94.5273 7.77344C94.4544 8.01042 94.377 8.25651 94.2949 8.51172C94.222 8.76693 94.1081 9.02214 93.9531 9.27734C93.8073 9.53255 93.5566 9.7832 93.2012 10.0293C93.1921 10.0293 93.1738 10.0247 93.1465 10.0156C93.11 10.0065 93.0781 9.98372 93.0508 9.94727C93.0143 9.90169 92.987 9.83789 92.9688 9.75586C92.9505 9.66471 92.946 9.53711 92.9551 9.37305ZM99.6816 8.86719C99.6999 8.8125 99.7272 8.7168 99.7637 8.58008C99.8092 8.43424 99.8503 8.2793 99.8867 8.11523C99.9323 7.95117 99.9688 7.79622 99.9961 7.65039C100.033 7.49544 100.06 7.39062 100.078 7.33594C100.133 7.11719 100.197 6.88021 100.27 6.625C100.352 6.36979 100.461 6.13281 100.598 5.91406C100.734 5.69531 100.908 5.51758 101.117 5.38086C101.336 5.23503 101.605 5.16211 101.924 5.16211C102.042 5.16211 102.124 5.20768 102.17 5.29883C102.225 5.38086 102.27 5.47201 102.307 5.57227C102.307 5.60872 102.307 5.67708 102.307 5.77734C102.316 5.86849 102.32 5.93229 102.32 5.96875C102.32 6.36068 102.279 6.70703 102.197 7.00781C102.124 7.30859 102.006 7.58659 101.842 7.8418C101.687 8.09701 101.495 8.33854 101.268 8.56641C101.04 8.78516 100.78 9.01758 100.488 9.26367C100.479 9.29102 100.465 9.33659 100.447 9.40039C100.429 9.46419 100.42 9.50977 100.42 9.53711V9.56445C100.42 9.72852 100.447 9.86068 100.502 9.96094C100.557 10.0612 100.63 10.1432 100.721 10.207C100.821 10.2617 100.93 10.2982 101.049 10.3164C101.176 10.3255 101.313 10.3301 101.459 10.3301C101.887 10.3301 102.298 10.2708 102.689 10.1523C103.081 10.0339 103.441 9.84245 103.77 9.57812C103.815 9.53255 103.87 9.46875 103.934 9.38672C104.007 9.29557 104.079 9.20443 104.152 9.11328C104.225 9.02214 104.303 8.94466 104.385 8.88086C104.467 8.80794 104.553 8.77148 104.645 8.77148C104.736 8.77148 104.79 8.80794 104.809 8.88086C104.827 8.95378 104.836 9.02669 104.836 9.09961C104.836 9.30013 104.772 9.49154 104.645 9.67383C104.526 9.84701 104.367 10.0065 104.166 10.1523C103.975 10.2891 103.751 10.4121 103.496 10.5215C103.25 10.6309 103.004 10.722 102.758 10.7949C102.512 10.8678 102.275 10.9225 102.047 10.959C101.828 10.9954 101.641 11.0137 101.486 11.0137C101.003 11.0137 100.598 10.9362 100.27 10.7812C99.9505 10.6172 99.7318 10.2936 99.6133 9.81055L99.6816 8.86719ZM101.637 6.17383C101.454 6.33789 101.309 6.48828 101.199 6.625C101.099 6.7526 101.017 6.88932 100.953 7.03516C100.898 7.17188 100.848 7.32227 100.803 7.48633C100.766 7.65039 100.725 7.8418 100.68 8.06055C100.853 7.92383 100.994 7.78711 101.104 7.65039C101.222 7.51367 101.318 7.3724 101.391 7.22656C101.464 7.08073 101.518 6.92578 101.555 6.76172C101.591 6.58854 101.618 6.39258 101.637 6.17383ZM111.043 9.93359C111.043 9.92448 111.048 9.89258 111.057 9.83789C111.066 9.7832 111.075 9.72852 111.084 9.67383C111.093 9.61003 111.102 9.55534 111.111 9.50977C111.12 9.45508 111.125 9.41862 111.125 9.40039V9.3457V9.26367L111.316 8.40234C111.471 8.07422 111.631 7.75977 111.795 7.45898C111.968 7.1582 112.164 6.89388 112.383 6.66602C112.602 6.43815 112.852 6.25586 113.135 6.11914C113.426 5.98242 113.777 5.91406 114.188 5.91406C114.27 5.91406 114.37 5.94141 114.488 5.99609C114.616 6.04167 114.739 6.10091 114.857 6.17383C114.985 6.24674 115.099 6.32422 115.199 6.40625C115.309 6.47917 115.391 6.54753 115.445 6.61133C115.728 6.56576 115.933 6.54297 116.061 6.54297C116.188 6.53385 116.298 6.5293 116.389 6.5293C116.48 6.52018 116.576 6.50195 116.676 6.47461C116.785 6.44727 116.949 6.38802 117.168 6.29688C117.323 6.2513 117.473 6.22852 117.619 6.22852C117.683 6.22852 117.742 6.25586 117.797 6.31055C117.861 6.36523 117.893 6.42904 117.893 6.50195C117.893 6.5931 117.861 6.67513 117.797 6.74805C117.733 6.82096 117.656 6.86654 117.564 6.88477L115.855 7.26758L115.705 7.33594C115.696 7.82812 115.587 8.29753 115.377 8.74414C115.167 9.19076 114.889 9.58268 114.543 9.91992C114.197 10.2572 113.796 10.526 113.34 10.7266C112.884 10.918 112.41 11.0137 111.918 11.0137C111.882 11.0137 111.822 11.0091 111.74 11C111.658 11 111.604 11 111.576 11C111.376 10.918 111.234 10.7676 111.152 10.5488C111.079 10.3301 111.043 10.125 111.043 9.93359ZM111.918 10.207C111.927 10.2526 111.964 10.2754 112.027 10.2754C112.091 10.2754 112.137 10.2754 112.164 10.2754C112.492 10.2754 112.829 10.1934 113.176 10.0293C113.522 9.85612 113.832 9.63737 114.105 9.37305C114.388 9.09961 114.616 8.79427 114.789 8.45703C114.971 8.11068 115.062 7.76432 115.062 7.41797C114.771 7.41797 114.479 7.39518 114.188 7.34961C113.896 7.29492 113.613 7.26758 113.34 7.26758H113.326L112.191 8.4707C112.128 8.53451 112.077 8.62109 112.041 8.73047C112.005 8.83984 111.977 8.95833 111.959 9.08594C111.941 9.21354 111.927 9.34115 111.918 9.46875C111.909 9.59635 111.904 9.71029 111.904 9.81055C111.904 9.83789 111.904 9.90169 111.904 10.002C111.904 10.1022 111.909 10.1706 111.918 10.207ZM117.264 15.4023C117.264 15.375 117.264 15.3294 117.264 15.2656C117.264 15.2109 117.264 15.1517 117.264 15.0879C117.264 15.0332 117.264 14.9831 117.264 14.9375C117.264 14.901 117.264 14.8783 117.264 14.8691L117.742 10.5898C117.806 10.2526 117.861 9.98828 117.906 9.79688C117.952 9.59635 117.988 9.44596 118.016 9.3457C118.052 9.23633 118.089 9.16341 118.125 9.12695L119.123 5.92773C119.16 5.81836 119.228 5.66341 119.328 5.46289C119.428 5.25326 119.542 5.04818 119.67 4.84766C119.807 4.64714 119.952 4.47852 120.107 4.3418C120.262 4.19596 120.417 4.12305 120.572 4.12305C120.636 4.12305 120.691 4.14583 120.736 4.19141C120.782 4.23698 120.818 4.29167 120.846 4.35547C120.882 4.41927 120.905 4.48763 120.914 4.56055C120.932 4.63346 120.941 4.69271 120.941 4.73828C120.941 5.15755 120.882 5.58594 120.764 6.02344C120.654 6.46094 120.508 6.89388 120.326 7.32227C120.144 7.74154 119.925 8.14258 119.67 8.52539C119.415 8.9082 119.146 9.24544 118.863 9.53711L118.658 10.2754C119.688 10.2572 120.686 10.0885 121.652 9.76953C122.628 9.45052 123.562 9.05859 124.455 8.59375H124.523C124.605 8.59375 124.66 8.62565 124.688 8.68945C124.724 8.74414 124.742 8.80339 124.742 8.86719C124.742 8.9401 124.729 9.00391 124.701 9.05859C124.674 9.11328 124.615 9.16341 124.523 9.20898C123.803 9.6556 123.033 10.0202 122.213 10.3027C121.393 10.5853 120.563 10.7995 119.725 10.9453C119.889 11.1276 120.025 11.278 120.135 11.3965C120.244 11.515 120.331 11.6335 120.395 11.752C120.467 11.8796 120.518 12.0254 120.545 12.1895C120.581 12.3535 120.6 12.5768 120.6 12.8594C120.6 13.5703 120.431 14.1901 120.094 14.7188C119.766 15.2565 119.333 15.7533 118.795 16.209C118.667 16.3092 118.508 16.4141 118.316 16.5234C118.134 16.6328 117.956 16.6875 117.783 16.6875C117.628 16.6875 117.514 16.6374 117.441 16.5371C117.368 16.4368 117.318 16.3184 117.291 16.1816C117.264 16.054 117.255 15.9173 117.264 15.7715C117.264 15.6257 117.264 15.5026 117.264 15.4023ZM118.385 11.5332C118.348 11.8158 118.307 12.1348 118.262 12.4902C118.216 12.8457 118.175 13.2103 118.139 13.584C118.102 13.9577 118.07 14.3314 118.043 14.7051C118.016 15.0788 118.002 15.4297 118.002 15.7578C118.248 15.7578 118.485 15.6484 118.713 15.4297C118.95 15.2201 119.16 14.9603 119.342 14.6504C119.524 14.3496 119.674 14.0397 119.793 13.7207C119.911 13.4017 119.975 13.1374 119.984 12.9277C120.003 12.6725 119.984 12.4538 119.93 12.2715C119.884 12.0983 119.807 11.9479 119.697 11.8203C119.588 11.7018 119.447 11.6016 119.273 11.5195C119.1 11.4375 118.895 11.3555 118.658 11.2734H118.59C118.526 11.2734 118.48 11.3008 118.453 11.3555C118.426 11.4102 118.403 11.4694 118.385 11.5332ZM120.066 5.66797C120.057 5.66797 120.039 5.70443 120.012 5.77734C119.984 5.84115 119.948 5.91406 119.902 5.99609C119.866 6.07812 119.829 6.16471 119.793 6.25586C119.766 6.34701 119.743 6.41536 119.725 6.46094C119.697 6.53385 119.665 6.62956 119.629 6.74805C119.592 6.85742 119.556 6.97135 119.52 7.08984C119.492 7.19922 119.465 7.29948 119.438 7.39062C119.41 7.47266 119.396 7.51823 119.396 7.52734V7.60938C119.57 7.29948 119.729 6.97591 119.875 6.63867C120.021 6.29232 120.103 5.94596 120.121 5.59961L120.066 5.66797ZM130.826 10.6719C130.854 10.444 130.89 10.2298 130.936 10.0293C130.981 9.81966 131.031 9.61458 131.086 9.41406C131.141 9.21354 131.2 9.00846 131.264 8.79883C131.337 8.58008 131.414 8.33398 131.496 8.06055V7.99219C131.132 8.20182 130.872 8.30664 130.717 8.30664C130.571 8.30664 130.498 8.25195 130.498 8.14258C130.489 8.0332 130.535 7.88737 130.635 7.70508C130.744 7.52279 130.872 7.35417 131.018 7.19922C131.173 7.04427 131.327 6.92122 131.482 6.83008C131.646 6.73893 131.774 6.72526 131.865 6.78906C131.975 6.78906 132.061 6.80729 132.125 6.84375C132.198 6.88021 132.275 6.9349 132.357 7.00781C132.567 6.84375 132.763 6.71159 132.945 6.61133C133.128 6.51107 133.346 6.46094 133.602 6.46094C134.003 6.46094 134.303 6.55208 134.504 6.73438C134.714 6.91667 134.864 7.20833 134.955 7.60938C135.11 7.45443 135.251 7.31315 135.379 7.18555C135.507 7.04883 135.643 6.9349 135.789 6.84375C135.944 6.74349 136.108 6.67057 136.281 6.625C136.454 6.57031 136.65 6.54297 136.869 6.54297C137.051 6.54297 137.229 6.61133 137.402 6.74805C137.576 6.88477 137.699 7.03516 137.771 7.19922C137.771 7.23568 137.771 7.31771 137.771 7.44531C137.771 7.57292 137.771 7.65951 137.771 7.70508C137.771 8.01497 137.735 8.31576 137.662 8.60742C137.589 8.88997 137.553 9.18164 137.553 9.48242C137.553 9.61003 137.566 9.74219 137.594 9.87891C137.63 10.0065 137.73 10.0703 137.895 10.0703C138.113 10.0703 138.309 10.0247 138.482 9.93359C138.665 9.84245 138.829 9.73307 138.975 9.60547C139.13 9.46875 139.266 9.32292 139.385 9.16797C139.512 9.01302 139.626 8.87174 139.727 8.74414C139.836 8.60742 139.936 8.49349 140.027 8.40234C140.118 8.3112 140.21 8.26562 140.301 8.26562C140.365 8.26562 140.433 8.29297 140.506 8.34766C140.588 8.39323 140.629 8.45247 140.629 8.52539C140.629 8.53451 140.624 8.54818 140.615 8.56641C140.615 8.58464 140.615 8.59831 140.615 8.60742C140.524 8.88997 140.392 9.15885 140.219 9.41406C140.046 9.66927 139.845 9.89714 139.617 10.0977C139.389 10.2891 139.134 10.444 138.852 10.5625C138.578 10.6719 138.286 10.7266 137.977 10.7266C137.685 10.7266 137.439 10.6901 137.238 10.6172C137.038 10.5352 136.883 10.3529 136.773 10.0703C136.773 10.043 136.769 9.98372 136.76 9.89258C136.76 9.79232 136.76 9.73307 136.76 9.71484C136.76 9.36849 136.792 9.03581 136.855 8.7168C136.928 8.39779 136.965 8.07422 136.965 7.74609C136.965 7.71875 136.96 7.65951 136.951 7.56836C136.951 7.47721 136.951 7.41797 136.951 7.39062C136.915 7.34505 136.855 7.32227 136.773 7.32227C136.701 7.32227 136.632 7.32227 136.568 7.32227C136.377 7.32227 136.195 7.39062 136.021 7.52734C135.848 7.66406 135.689 7.83724 135.543 8.04688C135.397 8.25651 135.265 8.49349 135.146 8.75781C135.037 9.01302 134.941 9.27279 134.859 9.53711C134.777 9.79232 134.709 10.0339 134.654 10.2617C134.609 10.4805 134.581 10.6628 134.572 10.8086L134.422 10.9453H133.957C133.875 10.9453 133.829 10.9043 133.82 10.8223C133.82 10.7311 133.82 10.6628 133.82 10.6172C133.82 10.3984 133.834 10.1797 133.861 9.96094C133.898 9.73307 133.934 9.50977 133.971 9.29102C134.016 9.06315 134.057 8.83529 134.094 8.60742C134.13 8.37956 134.153 8.15625 134.162 7.9375C134.153 7.86458 134.144 7.78711 134.135 7.70508C134.126 7.61393 134.107 7.5319 134.08 7.45898C134.053 7.38607 134.012 7.32682 133.957 7.28125C133.902 7.22656 133.825 7.19922 133.725 7.19922C133.579 7.19922 133.438 7.22656 133.301 7.28125C133.164 7.33594 133.036 7.40885 132.918 7.5C132.809 7.58203 132.708 7.68685 132.617 7.81445C132.535 7.93294 132.476 8.0651 132.439 8.21094L131.619 10.8633L131.496 11C131.496 11 131.469 11 131.414 11C131.359 11.0091 131.318 11.0137 131.291 11.0137C131.191 11.0137 131.086 11.0046 130.977 10.9863C130.876 10.959 130.826 10.8724 130.826 10.7266V10.6719ZM140.178 8.86719C140.196 8.8125 140.223 8.7168 140.26 8.58008C140.305 8.43424 140.346 8.2793 140.383 8.11523C140.428 7.95117 140.465 7.79622 140.492 7.65039C140.529 7.49544 140.556 7.39062 140.574 7.33594C140.629 7.11719 140.693 6.88021 140.766 6.625C140.848 6.36979 140.957 6.13281 141.094 5.91406C141.23 5.69531 141.404 5.51758 141.613 5.38086C141.832 5.23503 142.101 5.16211 142.42 5.16211C142.538 5.16211 142.62 5.20768 142.666 5.29883C142.721 5.38086 142.766 5.47201 142.803 5.57227C142.803 5.60872 142.803 5.67708 142.803 5.77734C142.812 5.86849 142.816 5.93229 142.816 5.96875C142.816 6.36068 142.775 6.70703 142.693 7.00781C142.62 7.30859 142.502 7.58659 142.338 7.8418C142.183 8.09701 141.992 8.33854 141.764 8.56641C141.536 8.78516 141.276 9.01758 140.984 9.26367C140.975 9.29102 140.962 9.33659 140.943 9.40039C140.925 9.46419 140.916 9.50977 140.916 9.53711V9.56445C140.916 9.72852 140.943 9.86068 140.998 9.96094C141.053 10.0612 141.126 10.1432 141.217 10.207C141.317 10.2617 141.426 10.2982 141.545 10.3164C141.673 10.3255 141.809 10.3301 141.955 10.3301C142.383 10.3301 142.794 10.2708 143.186 10.1523C143.577 10.0339 143.938 9.84245 144.266 9.57812C144.311 9.53255 144.366 9.46875 144.43 9.38672C144.503 9.29557 144.576 9.20443 144.648 9.11328C144.721 9.02214 144.799 8.94466 144.881 8.88086C144.963 8.80794 145.049 8.77148 145.141 8.77148C145.232 8.77148 145.286 8.80794 145.305 8.88086C145.323 8.95378 145.332 9.02669 145.332 9.09961C145.332 9.30013 145.268 9.49154 145.141 9.67383C145.022 9.84701 144.863 10.0065 144.662 10.1523C144.471 10.2891 144.247 10.4121 143.992 10.5215C143.746 10.6309 143.5 10.722 143.254 10.7949C143.008 10.8678 142.771 10.9225 142.543 10.959C142.324 10.9954 142.137 11.0137 141.982 11.0137C141.499 11.0137 141.094 10.9362 140.766 10.7812C140.447 10.6172 140.228 10.2936 140.109 9.81055L140.178 8.86719ZM142.133 6.17383C141.951 6.33789 141.805 6.48828 141.695 6.625C141.595 6.7526 141.513 6.88932 141.449 7.03516C141.395 7.17188 141.344 7.32227 141.299 7.48633C141.262 7.65039 141.221 7.8418 141.176 8.06055C141.349 7.92383 141.49 7.78711 141.6 7.65039C141.718 7.51367 141.814 7.3724 141.887 7.22656C141.96 7.08073 142.014 6.92578 142.051 6.76172C142.087 6.58854 142.115 6.39258 142.133 6.17383Z" fill="#6C6C6C"/>
</svg>
