<svg width="55" height="53" viewBox="0 0 55 53" fill="none" xmlns="http://www.w3.org/2000/svg">
<path d="M16.1707 26.6055H3.04688V35.2122H16.1707V26.6055ZM15.2569 34.2983H3.96068V27.5195H15.2569V34.2983Z" fill="#555555"/>
<path d="M16.1707 40.3906H3.04688V48.9957H16.1707V40.3906ZM15.2569 48.0819H3.96068V41.3044H15.2569V48.0819Z" fill="#555555"/>
<path d="M53.4175 19.751H37.788V17.5342H45.1436C45.617 17.5342 46.0023 17.149 46.0023 16.6753V4.59387C46.0023 4.12034 45.6171 3.73515 45.1436 3.73515H22.9191C22.4456 3.73515 22.0602 4.12034 22.0602 4.59387V16.6753C22.0602 17.1488 22.4454 17.5342 22.9191 17.5342H30.2745V19.751H9.339L5.39553 11.7644C5.66511 11.4642 5.83074 11.069 5.83074 10.6347C5.83074 10.2426 5.69557 9.88203 5.47105 9.59456L8.43217 5.2093L11.977 8.05112C12.1119 8.15938 12.278 8.21687 12.4479 8.21687C12.4953 8.21687 12.543 8.2123 12.5905 8.20329C12.8078 8.16153 12.995 8.02725 13.104 7.83472L15.7777 3.11401C15.8882 2.91855 15.9061 2.68604 15.8267 2.47612C15.7472 2.2662 15.5801 2.10374 15.3679 2.03051L9.60616 0.0414527C9.26285 -0.0773425 8.88362 0.0662018 8.70454 0.382354L7.05511 3.29385C6.87197 3.61724 6.94952 4.02071 7.23952 4.2531L7.71674 4.63563L4.73518 9.05148C4.54874 8.98066 4.34745 8.94017 4.13638 8.94017C3.20214 8.94017 2.44203 9.70029 2.44203 10.6345C2.44203 11.5688 3.20214 12.3289 4.13638 12.3289C4.30455 12.3289 4.46662 12.3035 4.62007 12.2577L8.31998 19.7509H1.09606C0.49168 19.7509 0 20.2426 0 20.847V24.4737H0.000761573V37.3445V38.2583V50.9527C0.000761573 51.5531 0.489268 52.0416 1.08984 52.0416H18.1278C18.7281 52.0416 19.2168 51.5531 19.2168 50.9527V38.2583V37.3445V24.4737H51.1544V50.9712C51.1544 51.5614 51.6345 52.0416 52.2248 52.0416H53.4432C54.0334 52.0416 54.5138 51.5615 54.5138 50.9712V24.4737V24.2706V20.847C54.5135 20.2426 54.0218 19.751 53.4175 19.751ZM9.43368 0.948408L14.8873 2.83111L12.4015 7.22031L7.91752 3.62549L9.43368 0.948408ZM4.13638 11.4152C3.706 11.4152 3.35584 11.065 3.35584 10.6347C3.35584 10.2043 3.706 9.85411 4.13638 9.85411C4.56689 9.85411 4.91693 10.2043 4.91693 10.6347C4.9168 11.065 4.56676 11.4152 4.13638 11.4152ZM22.9742 16.6204V4.64883H45.0885V16.6202H37.788V16.5806H30.2746V16.6202H22.9742V16.6204ZM36.8742 17.5342V19.751H31.1882V17.5342H36.8742ZM18.3028 50.9525C18.3028 51.0493 18.2243 51.1278 18.1277 51.1278H1.08984C0.993259 51.1278 0.914697 51.0493 0.914697 50.9525V38.2582H18.303L18.3028 50.9525ZM18.3028 37.3445H0.91457V24.4737H18.3028V37.3445ZM53.5997 50.9712C53.5997 51.0576 53.5294 51.1278 53.4431 51.1278H52.2247C52.1384 51.1278 52.0682 51.0575 52.0682 50.9712V24.4737H53.5997V50.9712ZM53.5997 23.5598H51.865H19.2166L0.913809 23.5597V20.847C0.913809 20.7465 0.995544 20.6647 1.09606 20.6647H30.2745H37.7879H53.4173C53.5177 20.6647 53.5996 20.7465 53.5996 20.847L53.5997 23.5598Z" fill="#555555"/>
<path d="M10.4897 30.4521H8.43359V31.3658H10.4897V30.4521Z" fill="#555555"/>
<path d="M10.4897 44.2969H8.43359V45.2107H10.4897V44.2969Z" fill="#555555"/>
</svg>
