<svg width="1103" height="170" viewBox="0 0 1103 170" fill="none" xmlns="http://www.w3.org/2000/svg">
    <path
        d="M46.9407 129.433C41.0179 129.433 35.3339 128.669 29.8887 127.14C24.539 125.612 19.7148 123.367 15.416 120.405C11.2127 117.348 7.86914 113.671 5.38538 109.372C2.90161 104.977 1.61197 99.9621 1.51644 94.3259C1.51644 93.4661 1.80303 92.7496 2.3762 92.1765C3.04491 91.5078 3.80914 91.1734 4.66891 91.1734H33.9009C35.5249 91.1734 36.719 91.5555 37.4833 92.3198C38.343 92.9885 39.1073 94.1348 39.776 95.7588C40.4447 97.0007 41.1134 98.0515 41.7821 98.9113C42.4508 99.7711 43.2628 100.44 44.2181 100.917C45.2689 101.3 46.5586 101.491 48.087 101.491C50.6663 101.491 52.7202 100.679 54.2487 99.0546C55.7772 97.3351 56.5414 94.2781 56.5414 89.8838V56.7828H13.983C12.9322 56.7828 12.0247 56.4007 11.2604 55.6365C10.4962 54.8722 10.1141 53.9647 10.1141 52.9139V31.563C10.1141 30.5122 10.4962 29.6047 11.2604 28.8405C12.0247 28.0762 12.9322 27.6941 13.983 27.6941H89.7856C90.8364 27.6941 91.744 28.0762 92.5082 28.8405C93.2725 29.6047 93.6546 30.5122 93.6546 31.563V91.0301C93.6546 99.8188 91.5529 107.079 87.3496 112.811C83.2419 118.447 77.6534 122.65 70.5842 125.421C63.515 128.096 55.6339 129.433 46.9407 129.433ZM197.277 108.512C196.8 109.658 196.322 110.47 195.845 110.948L194.125 113.527C193.265 114.674 192.31 115.772 191.259 116.823L188.68 119.116C188.584 120.835 188.489 122.555 188.393 124.274C188.393 125.994 188.345 127.761 188.25 129.576C188.154 130.436 188.154 131.296 188.25 132.156C188.345 133.111 188.154 133.971 187.677 134.735C187.295 135.212 187.104 134.878 187.104 133.732C187.199 132.585 187.247 131.678 187.247 131.009C187.151 129.385 187.056 127.713 186.96 125.994C186.96 124.179 186.865 122.459 186.674 120.835C186.005 121.6 185.432 122.555 184.954 123.701C184.477 124.848 184.094 125.898 183.808 126.854C183.235 128.478 182.661 130.149 182.088 131.869C181.515 133.588 180.894 135.26 180.225 136.884C179.939 137.648 179.652 138.413 179.366 139.177C179.079 140.037 178.697 140.801 178.219 141.47C178.124 141.565 177.933 141.708 177.646 141.9C177.455 142.091 177.264 142.234 177.073 142.329C176.404 142.425 175.831 141.995 175.353 141.04C174.876 140.18 174.541 139.559 174.35 139.177C174.255 138.986 174.112 138.795 173.921 138.604C173.825 138.413 173.777 138.222 173.777 138.031C173.682 136.598 173.586 135.117 173.491 133.588C173.491 132.156 173.395 130.675 173.204 129.146C172.822 129.72 172.392 130.293 171.914 130.866C171.532 131.439 171.102 132.012 170.625 132.585C170.434 132.776 170.338 132.872 170.338 132.872C170.243 133.063 170.099 133.206 169.908 133.302C169.717 133.493 169.526 133.684 169.335 133.875C169.24 134.066 169.049 134.4 168.762 134.878C168.571 135.451 168.38 135.833 168.189 136.024C167.998 136.216 167.807 136.216 167.616 136.024C167.329 135.833 167.09 135.404 166.899 134.735C166.804 134.162 166.66 133.732 166.469 133.445C166.087 133.159 165.753 132.776 165.466 132.299C165.18 131.821 164.941 131.391 164.75 131.009C164.559 130.723 164.368 130.388 164.177 130.006C164.081 130.484 163.985 131.009 163.89 131.582C163.89 132.251 163.794 132.824 163.603 133.302C163.603 133.302 163.412 133.302 163.03 133.302C162.744 133.302 162.457 133.254 162.17 133.159C161.884 133.159 161.597 133.159 161.311 133.159C160.642 133.063 160.164 132.968 159.878 132.872H159.018C158.54 133.159 157.776 133.159 156.725 132.872C156.63 132.776 156.486 132.681 156.295 132.585C156.2 132.49 156.152 132.49 156.152 132.585C155.961 134.305 155.865 135.977 155.865 137.601C155.865 139.32 155.77 140.992 155.579 142.616C155.483 142.998 155.388 142.807 155.292 142.043C155.197 141.374 155.101 140.849 155.006 140.467C154.91 138.938 154.862 137.41 154.862 135.881C154.958 134.353 154.815 132.824 154.433 131.296C154.337 130.723 154.241 130.77 154.146 131.439C154.146 132.108 154.146 132.92 154.146 133.875C154.146 134.83 154.05 135.547 153.859 136.024C153.764 136.407 153.668 136.216 153.573 135.451C153.573 134.783 153.525 134.257 153.429 133.875L152.57 129.433H152.426C142.969 129.242 134.753 127.57 127.78 124.418C120.806 121.265 115.409 116.632 111.588 110.518C110.919 109.754 110.346 108.846 109.868 107.796C109.486 106.745 109.152 105.742 108.865 104.786L108.005 102.78V102.637C107.814 102.064 107.623 101.491 107.432 100.917C107.241 100.344 107.05 99.7711 106.859 99.1979C106.477 97.7649 106.19 95.9021 105.999 93.6094C105.808 91.3167 105.713 89.0718 105.713 86.8746C105.713 84.5819 105.713 82.7191 105.713 81.2861C105.713 79.3755 105.713 77.4649 105.713 75.5543C105.713 73.5482 105.76 71.6376 105.856 69.8226V68.6762C105.856 67.3388 105.856 65.9536 105.856 64.5207C105.951 63.0878 106.142 61.7026 106.429 60.3652C106.429 60.1741 106.429 60.0308 106.429 59.9353C106.525 59.8398 106.572 59.7442 106.572 59.6487C107.432 54.3946 109.152 49.7136 111.731 45.6059C112.591 43.8863 113.737 42.3101 115.17 40.8772C123.768 31.1332 136.664 26.2612 153.859 26.2612H156.869C157.06 26.2612 157.203 26.3089 157.298 26.4045C157.776 26.4045 158.206 26.4045 158.588 26.4045C159.066 26.4045 159.496 26.4522 159.878 26.5478C160.164 26.4522 160.403 26.4522 160.594 26.5478C160.881 26.5478 161.167 26.5478 161.454 26.5478L163.89 26.9776C164.845 27.0732 165.753 27.2165 166.613 27.4075C167.568 27.5986 168.523 27.7896 169.478 27.9807C170.529 28.0762 171.723 28.3628 173.061 28.8405C173.156 28.8405 173.204 28.8882 173.204 28.9838C173.3 28.9838 173.395 28.9838 173.491 28.9838C174.255 29.0793 174.971 29.2703 175.64 29.5569C176.404 29.748 177.025 30.0346 177.503 30.4167C183.617 32.9005 188.871 36.6261 193.265 41.5936C194.603 42.931 195.797 44.7461 196.848 47.0388C198.567 50.2868 199.857 53.6781 200.717 57.2127C201.003 57.8814 201.146 58.6934 201.146 59.6487L201.576 62.3713C201.672 63.4221 201.72 64.4729 201.72 65.5238C201.815 66.5746 201.863 67.6254 201.863 68.6762C201.958 70.1092 202.006 71.8765 202.006 73.9781C202.006 76.0798 202.006 78.1814 202.006 80.2831C202.006 82.3847 202.006 84.152 202.006 85.5849C201.911 87.4 201.863 89.2628 201.863 91.1734C201.863 92.9885 201.624 94.7558 201.146 96.4753C200.478 100.87 199.188 104.882 197.277 108.512ZM147.841 98.9113C148.414 99.6755 149.035 100.344 149.704 100.917C150.659 101.108 151.805 101.3 153.143 101.491H154.862C155.149 101.395 155.436 101.347 155.722 101.347C156.104 101.347 156.439 101.3 156.725 101.204C158.54 100.726 160.021 99.8666 161.167 98.6247C161.645 98.1471 162.075 97.5739 162.457 96.9052C162.839 96.2365 163.126 95.5678 163.317 94.8991L163.747 93.3228C164.129 91.6988 164.32 90.1226 164.32 88.5941C164.415 86.9701 164.511 85.5849 164.606 84.4386V74.5513C164.606 73.4049 164.606 72.2586 164.606 71.1122C164.606 69.8703 164.559 68.6762 164.463 67.5299C164.463 66.8612 164.463 66.2402 164.463 65.667C164.463 64.9983 164.415 64.3774 164.32 63.8042C164.224 63.6132 164.177 63.4221 164.177 63.2311C164.177 62.9445 164.129 62.7534 164.033 62.6579C164.033 62.3713 163.938 61.9414 163.747 61.3682C163.46 60.2219 163.03 59.2666 162.457 58.5023C161.884 57.6426 161.215 56.8783 160.451 56.2096L160.308 56.0663C159.925 55.8753 159.687 55.7798 159.591 55.7798C159.4 55.6842 159.066 55.6365 158.588 55.6365C158.493 55.6365 158.397 55.6842 158.301 55.7798C158.206 55.8753 158.015 55.9708 157.728 56.0663C157.633 56.0663 157.537 56.0663 157.442 56.0663C157.442 55.9708 157.346 55.9231 157.155 55.9231C156.773 56.0186 156.343 56.2574 155.865 56.6395C155.388 57.0216 155.006 57.356 154.719 57.6426C154.528 57.7381 154.241 57.8814 153.859 58.0725C153.477 58.2635 153.238 58.4546 153.143 58.6456C152.761 59.1233 152.57 59.5532 152.57 59.9353C152.57 60.3174 152.188 60.4607 151.423 60.3652C150.755 60.3652 150.468 60.2696 150.564 60.0786C150.755 59.8875 150.611 59.4576 150.134 58.7889C150.038 58.5979 149.895 58.4546 149.704 58.359C149.513 58.2635 149.322 58.168 149.131 58.0725C149.226 58.0725 149.083 57.9769 148.701 57.7859C148.414 57.4993 148.223 57.3082 148.128 57.2127C148.128 57.2127 148.08 57.2127 147.984 57.2127C147.984 57.1172 147.793 56.8783 147.411 56.4962C147.22 56.2096 147.172 56.1619 147.268 56.3529C147.459 56.4485 147.411 56.4485 147.125 56.3529C147.125 56.3529 147.077 56.3529 146.981 56.3529C146.981 56.3529 146.981 56.4007 146.981 56.4962C146.79 56.6873 146.551 56.9261 146.265 57.2127C145.978 57.4038 145.596 57.8814 145.118 58.6456C144.45 59.8875 144.02 61.1294 143.829 62.3713C143.638 63.5176 143.447 64.664 143.256 65.8103C143.256 66.288 143.208 66.9567 143.112 67.8165C143.112 68.6762 143.112 69.4882 143.112 70.2525V81.2861C143.112 82.0503 143.112 82.8146 143.112 83.5788C143.208 84.2475 143.303 84.964 143.399 85.7282C143.685 87.7343 144.211 90.0748 144.975 92.7496L145.405 93.896C145.787 94.8513 146.169 95.7588 146.551 96.6186C146.933 97.3828 147.363 98.1471 147.841 98.9113ZM223.67 128C222.715 128 221.951 127.713 221.378 127.14C220.805 126.567 220.518 125.803 220.518 124.848V30.9899C220.518 29.939 220.805 29.127 221.378 28.5539C221.951 27.9807 222.715 27.6941 223.67 27.6941H226.25C227.301 27.6941 228.113 27.9807 228.686 28.5539C229.259 29.127 229.546 29.939 229.546 30.9899V72.8318H284.857V30.9899C284.857 29.939 285.144 29.127 285.717 28.5539C286.29 27.9807 287.054 27.6941 288.01 27.6941H290.589C291.64 27.6941 292.452 27.9807 293.025 28.5539C293.598 29.127 293.885 29.939 293.885 30.9899V124.848C293.885 125.803 293.598 126.567 293.025 127.14C292.452 127.713 291.64 128 290.589 128H288.01C287.054 128 286.29 127.713 285.717 127.14C285.144 126.567 284.857 125.803 284.857 124.848V81.4294H229.546V124.848C229.546 125.803 229.259 126.567 228.686 127.14C228.113 127.713 227.301 128 226.25 128H223.67ZM319.132 128C318.082 128 317.174 127.618 316.41 126.854C315.646 126.089 315.263 125.182 315.263 124.131V31.563C315.263 30.5122 315.646 29.6047 316.41 28.8405C317.174 28.0762 318.082 27.6941 319.132 27.6941H341.773C343.683 27.6941 345.069 28.124 345.928 28.9838C346.788 29.8435 347.361 30.5122 347.648 30.9899L371.865 70.6823V31.563C371.865 30.5122 372.247 29.6047 373.011 28.8405C373.775 28.0762 374.683 27.6941 375.734 27.6941H401.67C402.721 27.6941 403.628 28.0762 404.392 28.8405C405.157 29.6047 405.539 30.5122 405.539 31.563V124.131C405.539 125.182 405.157 126.089 404.392 126.854C403.628 127.618 402.721 128 401.67 128H379.029C377.119 128 375.734 127.57 374.874 126.71C374.014 125.755 373.441 125.086 373.154 124.704L348.938 88.1642V124.131C348.938 125.182 348.555 126.089 347.791 126.854C347.027 127.618 346.119 128 345.069 128H319.132ZM425.204 128C424.153 128 423.245 127.618 422.481 126.854C421.717 126.089 421.335 125.182 421.335 124.131V31.563C421.335 30.5122 421.717 29.6047 422.481 28.8405C423.245 28.0762 424.153 27.6941 425.204 27.6941H447.844C449.755 27.6941 451.188 28.2195 452.143 29.2703C453.098 30.3212 453.719 31.0854 454.006 31.563L474.783 65.9536L495.561 31.563C495.848 31.0854 496.469 30.3212 497.424 29.2703C498.379 28.2195 499.812 27.6941 501.723 27.6941H524.363C525.414 27.6941 526.322 28.0762 527.086 28.8405C527.85 29.6047 528.232 30.5122 528.232 31.563V124.131C528.232 125.182 527.85 126.089 527.086 126.854C526.322 127.618 525.414 128 524.363 128H498.427C497.376 128 496.469 127.618 495.704 126.854C494.94 126.089 494.558 125.182 494.558 124.131V84.8685L485.101 100.344C484.623 101.108 483.954 101.92 483.094 102.78C482.33 103.544 481.232 103.927 479.799 103.927H469.768C468.335 103.927 467.189 103.544 466.329 102.78C465.565 101.92 464.944 101.108 464.466 100.344L455.009 84.8685V124.131C455.009 125.182 454.627 126.089 453.862 126.854C453.098 127.618 452.191 128 451.14 128H425.204ZM543.772 128C542.816 128 542.1 127.713 541.622 127.14C541.145 126.567 541.001 125.803 541.192 124.848L561.397 30.8466C561.588 29.8913 562.018 29.127 562.686 28.5539C563.355 27.9807 564.167 27.6941 565.122 27.6941H567.845C568.8 27.6941 569.517 27.9807 569.994 28.5539C570.472 29.127 570.615 29.8913 570.424 30.8466L550.363 124.848C550.172 125.803 549.742 126.567 549.074 127.14C548.405 127.713 547.593 128 546.638 128H543.772ZM579.875 128C578.92 128 578.203 127.713 577.726 127.14C577.248 126.567 577.105 125.803 577.296 124.848L597.5 30.8466C597.691 29.8913 598.121 29.127 598.79 28.5539C599.459 27.9807 600.271 27.6941 601.226 27.6941H603.948C604.904 27.6941 605.62 27.9807 606.098 28.5539C606.576 29.127 606.719 29.8913 606.528 30.8466L586.467 124.848C586.276 125.803 585.846 126.567 585.177 127.14C584.508 127.713 583.696 128 582.741 128H579.875ZM661.689 129.433C652.518 129.433 644.398 128.096 637.329 125.421C630.26 122.746 624.624 118.543 620.421 112.811C616.313 107.079 614.068 99.6755 613.686 90.6002C613.59 86.6835 613.542 82.4802 613.542 77.9903C613.542 73.5005 613.59 69.2016 613.686 65.0939C614.068 56.2096 616.361 48.9016 620.564 43.1699C624.863 37.4381 630.547 33.187 637.616 30.4167C644.781 27.6463 652.805 26.2612 661.689 26.2612C667.803 26.2612 673.678 26.9776 679.314 28.4106C685.046 29.748 690.205 31.8974 694.79 34.8588C699.376 37.8202 703.006 41.6414 705.681 46.3223C708.451 50.9078 709.884 56.4485 709.979 62.9445C709.979 63.8042 709.645 64.5685 708.976 65.2372C708.403 65.8103 707.687 66.0969 706.827 66.0969H677.595C676.066 66.0969 674.92 65.8103 674.156 65.2372C673.487 64.5685 672.866 63.4699 672.293 61.9414C671.242 58.8845 669.809 56.8306 667.994 55.7798C666.179 54.7289 664.03 54.2035 661.546 54.2035C658.394 54.2035 655.862 55.0633 653.951 56.7828C652.136 58.4068 651.133 61.416 650.942 65.8103C650.656 73.6438 650.656 81.6682 650.942 89.8838C651.133 94.2781 652.136 97.3351 653.951 99.0546C655.862 100.679 658.394 101.491 661.546 101.491C664.03 101.491 666.179 100.917 667.994 99.7711C669.905 98.6247 671.338 96.6186 672.293 93.7527C672.771 92.1287 673.392 91.0301 674.156 90.4569C674.92 89.8838 676.066 89.5972 677.595 89.5972H706.827C707.687 89.5972 708.403 89.9315 708.976 90.6002C709.645 91.1734 709.979 91.8899 709.979 92.7496C709.884 99.2456 708.451 104.834 705.681 109.515C703.006 114.1 699.376 117.874 694.79 120.835C690.205 123.797 685.046 125.994 679.314 127.427C673.678 128.764 667.803 129.433 661.689 129.433ZM725.226 128C724.175 128 723.267 127.666 722.503 126.997C721.739 126.233 721.357 125.277 721.357 124.131V31.563C721.357 30.5122 721.739 29.6047 722.503 28.8405C723.267 28.0762 724.175 27.6941 725.226 27.6941H753.311C754.362 27.6941 755.27 28.0762 756.034 28.8405C756.798 29.6047 757.18 30.5122 757.18 31.563V61.6548H780.394V31.563C780.394 30.5122 780.776 29.6047 781.54 28.8405C782.305 28.0762 783.212 27.6941 784.263 27.6941H812.349C813.399 27.6941 814.307 28.0762 815.071 28.8405C815.835 29.6047 816.217 30.5122 816.217 31.563V124.131C816.217 125.182 815.835 126.089 815.071 126.854C814.307 127.618 813.399 128 812.349 128H784.263C783.212 128 782.305 127.618 781.54 126.854C780.776 126.089 780.394 125.182 780.394 124.131V93.1795H757.18V124.131C757.18 125.182 756.798 126.089 756.034 126.854C755.27 127.618 754.362 128 753.311 128H725.226ZM856.148 20.3575C856.606 20.3575 856.95 20.5485 857.18 20.9306C857.485 21.2363 857.638 21.542 857.638 21.8477V22.3063C852.671 22.3063 848.391 23.7583 844.799 26.6624C839.755 30.7893 837.233 35.7568 837.233 41.565C837.233 44.087 837.768 46.6089 838.838 49.1309C840.519 53.2578 843.614 56.4294 848.123 58.6456C849.958 51.8439 853.741 46.0358 859.472 41.2211C865.281 36.33 872.388 33.8844 880.795 33.8844C887.138 33.8844 891.188 36.0243 892.946 40.304C893.481 41.6032 893.748 42.9406 893.748 44.3162C893.748 47.1439 892.602 50.1244 890.309 53.2578C884.654 60.7473 875.598 64.492 863.141 64.492C859.319 64.492 855.995 64.1481 853.167 63.4603C852.938 64.9124 852.823 66.4408 852.823 68.0457C852.823 69.6506 853.091 71.2555 853.626 72.8604C858.288 71.1791 863.217 70.3384 868.414 70.3384C873.687 70.3384 876.897 71.6759 878.043 74.3507C878.273 74.9621 878.387 75.5352 878.387 76.0702C878.387 77.6751 877.164 79.28 874.719 80.8849C872.273 82.4898 868.49 83.2922 863.37 83.2922C858.25 83.2922 854.123 81.5345 850.989 78.019C844.188 82.3751 839.182 88.7947 835.972 97.2777C833.832 102.933 832.762 108.436 832.762 113.785C832.762 116.46 833.03 119.058 833.565 121.58C835.17 129.376 838.914 134.611 844.799 137.285C844.799 137.056 844.799 136.827 844.799 136.598C844.799 129.49 845.945 122.536 848.238 115.734C850.607 108.932 854.314 103.086 859.358 98.1948C864.402 93.2273 870.21 90.7435 876.782 90.7435C883.355 90.7435 887.596 93.724 889.507 99.6851C890.195 101.825 890.539 104.041 890.539 106.334C890.539 110.537 889.392 115.123 887.099 120.09C883.125 128.573 877.126 134.725 869.102 138.546C864.211 140.839 858.937 141.986 853.282 141.986C852.365 141.986 851.142 141.909 849.614 141.756C849.843 148.023 851.257 153.105 853.855 157.003C856.454 160.9 860.198 162.849 865.089 162.849C864.784 164.148 863.828 164.798 862.224 164.798C857.103 164.798 853.053 162.582 850.072 158.149C847.168 153.717 845.487 147.985 845.028 140.954C839.526 139.578 835.093 136.865 831.731 132.815C827.604 127.924 825.54 121.695 825.54 114.129C825.54 110.232 826.113 105.914 827.26 101.175C828.406 96.3607 830.928 91.4696 834.826 86.502C838.723 81.4581 843.423 77.5605 848.926 74.8092C847.703 72.2108 847.092 69.7653 847.092 67.4726C847.092 65.1034 847.206 63.1164 847.436 61.5115C843.997 59.9066 841.207 57.7668 839.067 55.092C836.163 51.3472 834.711 47.1821 834.711 42.5967C834.711 37.4763 836.163 32.8527 839.067 28.7258C840.901 26.2803 843.309 24.2933 846.289 22.7648C849.27 21.1599 852.556 20.3575 856.148 20.3575ZM877.699 93.4948C872.579 93.4948 867.803 95.9021 863.37 100.717C859.014 105.455 855.651 111.263 853.282 118.141C850.989 125.019 849.767 131.859 849.614 138.661C850.684 138.89 851.83 139.005 853.053 139.005C864.211 139.005 873.114 134.687 879.763 126.051C884.654 119.708 887.099 113.25 887.099 106.678C887.099 100.105 885.189 95.9785 881.368 94.2972C880.298 93.7623 879.075 93.4948 877.699 93.4948ZM863.026 61.6262C871.891 61.6262 878.846 58.8749 883.89 53.3724C886.87 50.1626 888.36 47.0293 888.36 43.9723C888.36 43.2845 888.322 42.6349 888.246 42.0235C887.329 38.4316 884.577 36.5975 879.992 36.521C873.725 36.521 868.146 38.9666 863.255 43.8577C858.441 48.7488 855.269 54.3659 853.741 60.7091C856.568 61.3205 859.663 61.6262 863.026 61.6262ZM868.414 72.8604C863.676 72.8604 859.205 73.8157 855.002 75.7263C857.065 78.9361 860.504 80.541 865.319 80.541C870.21 80.541 873.343 79.4711 874.719 77.3312C875.025 76.7962 875.177 76.3377 875.177 75.9556C875.177 74.9621 874.49 74.1978 873.114 73.6629C871.815 73.1279 870.248 72.8604 868.414 72.8604ZM908.2 128C907.34 128 906.576 127.713 905.907 127.14C905.334 126.472 905.047 125.707 905.047 124.848C905.047 124.465 905.095 124.131 905.191 123.844L937.145 32.4228C937.432 31.372 938.101 30.3212 939.151 29.2703C940.202 28.2195 941.683 27.6941 943.594 27.6941H974.688C976.599 27.6941 978.08 28.2195 979.131 29.2703C980.181 30.3212 980.85 31.372 981.137 32.4228L1013.09 123.844C1013.19 124.131 1013.23 124.465 1013.23 124.848C1013.23 125.707 1012.9 126.472 1012.23 127.14C1011.66 127.713 1010.94 128 1010.08 128H983.573C981.758 128 980.42 127.618 979.56 126.854C978.796 125.994 978.271 125.182 977.984 124.418L974.545 114.96H943.737L940.298 124.418C940.011 125.182 939.486 125.994 938.722 126.854C937.957 127.618 936.62 128 934.709 128H908.2ZM951.045 87.0179H967.237L959.069 60.3652L951.045 87.0179ZM1024.97 128C1023.92 128 1023.01 127.618 1022.25 126.854C1021.48 126.089 1021.1 125.182 1021.1 124.131V31.563C1021.1 30.5122 1021.48 29.6047 1022.25 28.8405C1023.01 28.0762 1023.92 27.6941 1024.97 27.6941H1053.63C1054.68 27.6941 1055.59 28.0762 1056.35 28.8405C1057.11 29.6047 1057.5 30.5122 1057.5 31.563V98.6247H1097.19C1098.24 98.6247 1099.15 99.0068 1099.91 99.7711C1100.67 100.535 1101.06 101.443 1101.06 102.494V124.131C1101.06 125.182 1100.67 126.089 1099.91 126.854C1099.15 127.618 1098.24 128 1097.19 128H1024.97Z"
        fill="black" />

</svg>