<svg width="154" height="31" viewBox="0 0 154 31" fill="none" xmlns="http://www.w3.org/2000/svg">
<path d="M16.588 10.12H15.488V21.56H16.588V22H11.088V21.56H12.188V10.934L7.832 22.22H7.326L2.442 10.626V21.56H4.202V22H0.682V21.56H2.002V10.12H0.66V9.68H5.566L8.998 17.93L12.188 9.68H16.588V10.12ZM21.762 20.68C22.0846 21.4133 22.642 21.78 23.434 21.78C24.226 21.78 24.7906 21.406 25.128 20.658C25.4653 19.91 25.634 18.678 25.634 16.962C25.634 15.2313 25.4653 13.992 25.128 13.244C24.7906 12.4813 24.226 12.1 23.434 12.1C22.642 12.1 22.0846 12.4813 21.762 13.244C21.4393 13.992 21.278 15.2313 21.278 16.962C21.278 18.6927 21.4393 19.932 21.762 20.68ZM23.39 22.22C21.9966 22.22 20.7353 21.7653 19.606 20.856C18.4766 19.9467 17.912 18.656 17.912 16.984C17.912 16.0893 18.0733 15.29 18.396 14.586C18.7333 13.882 19.1733 13.3247 19.716 12.914C20.2733 12.5033 20.8673 12.1953 21.498 11.99C22.1286 11.77 22.774 11.66 23.434 11.66C24.094 11.66 24.7393 11.77 25.37 11.99C26.0153 12.1953 26.6093 12.5033 27.152 12.914C27.7093 13.3247 28.1566 13.882 28.494 14.586C28.8313 15.29 29 16.082 29 16.962C29 17.842 28.8313 18.6267 28.494 19.316C28.1566 20.0053 27.7093 20.5553 27.152 20.966C26.0373 21.802 24.7833 22.22 23.39 22.22ZM34.2899 18.568C34.2899 19.6827 34.4146 20.4893 34.6639 20.988C34.9133 21.472 35.3093 21.714 35.8519 21.714C36.4093 21.714 36.9006 21.3033 37.3259 20.482C37.7513 19.646 37.9639 18.48 37.9639 16.984C37.9639 15.4733 37.7366 14.3147 37.2819 13.508C36.8419 12.7013 36.3213 12.298 35.7199 12.298C35.1186 12.298 34.6419 12.6427 34.2899 13.332V18.568ZM39.4599 21.23C38.9173 21.582 38.3893 21.8313 37.8759 21.978C37.3626 22.1247 36.8566 22.198 36.3579 22.198C35.8739 22.198 35.4266 22.11 35.0159 21.934C34.6053 21.7433 34.2753 21.5453 34.0259 21.34C33.7913 21.12 33.5273 20.922 33.2339 20.746C32.9406 20.5553 32.6619 20.46 32.3979 20.46C32.1339 20.46 31.8993 20.6067 31.6939 20.9C31.5033 21.1933 31.4079 21.56 31.4079 22H30.9899V7.7H29.8899V7.26H34.2899V12.672C34.5246 12.276 34.9059 11.968 35.4339 11.748C35.9766 11.5133 36.5413 11.396 37.1279 11.396C38.2426 11.396 39.2106 11.8873 40.0319 12.87C40.8679 13.838 41.2859 15.1947 41.2859 16.94C41.2859 17.9667 41.1173 18.8467 40.7799 19.58C40.4426 20.3133 40.0026 20.8633 39.4599 21.23ZM47.2175 21.56H48.3175V22H42.8175V21.56H43.9175V12.32H43.0375V11.88H47.2175V21.56ZM47.4155 8.976C47.4155 9.504 47.2248 9.95867 46.8435 10.34C46.4768 10.7067 46.0222 10.89 45.4795 10.89C44.9515 10.89 44.4968 10.7067 44.1155 10.34C43.7342 9.95867 43.5435 9.504 43.5435 8.976C43.5435 8.43333 43.7342 7.97133 44.1155 7.59C44.4968 7.20867 44.9515 7.018 45.4795 7.018C46.0222 7.018 46.4768 7.20867 46.8435 7.59C47.2248 7.97133 47.4155 8.43333 47.4155 8.976ZM54.2644 21.56H55.3644V22H49.8644V21.56H50.9644V7.7H49.8644V7.26H54.2644V21.56ZM66.6353 17.6H59.9913C60.1379 20.1813 61.1426 21.472 63.0053 21.472C63.5039 21.472 64.0686 21.3547 64.6993 21.12C65.3446 20.8853 65.8139 20.5553 66.1073 20.13L66.4153 20.35C66.0926 20.8927 65.5426 21.34 64.7653 21.692C63.9879 22.044 63.2106 22.22 62.4333 22.22C61.6706 22.22 60.9813 22.1467 60.3653 22C59.7493 21.8387 59.1479 21.5747 58.5613 21.208C57.9746 20.8413 57.5126 20.2913 57.1753 19.558C56.8526 18.8247 56.6913 17.9373 56.6913 16.896C56.6913 15.1213 57.1826 13.8087 58.1653 12.958C59.1479 12.0927 60.3359 11.66 61.7293 11.66C63.1373 11.66 64.3033 12.1293 65.2273 13.068C66.1659 14.0067 66.6353 15.5173 66.6353 17.6ZM59.9693 17.16H63.5553C63.5553 15.8107 63.4086 14.63 63.1153 13.618C62.8366 12.606 62.3819 12.1 61.7513 12.1C61.1206 12.1 60.6659 12.5913 60.3873 13.574C60.1086 14.542 59.9693 15.6567 59.9693 16.918V17.16ZM90.8021 17.248V17.534C90.8021 18.4727 90.5527 19.382 90.0541 20.262C89.8487 20.6433 89.5994 20.9733 89.3061 21.252C89.0127 21.516 88.6167 21.7433 88.1181 21.934C87.6194 22.1247 87.0621 22.22 86.4461 22.22C84.8327 22.22 83.3294 21.7067 81.9361 20.68C81.4814 21.2667 80.9167 21.67 80.2421 21.89C79.5821 22.0953 78.7901 22.198 77.8661 22.198C76.9421 22.198 76.1354 22.0513 75.4461 21.758C74.7714 21.4647 74.2361 21.0907 73.8401 20.636C73.4587 20.1667 73.1801 19.646 73.0041 19.074C72.8427 18.4873 72.7987 17.9153 72.8721 17.358C72.9601 16.8007 73.1727 16.2727 73.5101 15.774C73.8474 15.2607 74.3241 14.828 74.9401 14.476C75.5561 14.124 76.3041 13.926 77.1841 13.882C77.1107 13.486 77.0741 13.1267 77.0741 12.804C77.0741 11.6013 77.5067 10.6113 78.3721 9.834C79.2374 9.05667 80.3667 8.668 81.7601 8.668C83.1681 8.668 84.2094 8.98333 84.8841 9.614C85.5734 10.2447 85.9181 10.978 85.9181 11.814C85.9181 12.65 85.5881 13.354 84.9281 13.926C84.2827 14.4833 83.4174 14.762 82.3321 14.762L82.2221 14.41C82.5887 14.278 82.8821 13.9333 83.1021 13.376C83.3221 12.8187 83.4321 12.188 83.4321 11.484C83.4321 9.9 82.8601 9.108 81.7161 9.108C81.2174 9.108 80.8141 9.306 80.5061 9.702C80.1981 10.0833 80.0441 10.6113 80.0441 11.286C80.0441 11.946 80.2494 12.7893 80.6601 13.816C81.1587 15.0773 81.9727 16.2727 83.1021 17.402C83.6594 16.126 84.4001 15.268 85.3241 14.828C86.2627 14.3733 87.2381 14.3147 88.2501 14.652C88.7634 14.828 89.1594 15.1507 89.4381 15.62C89.7167 16.0893 89.7534 16.5733 89.5481 17.072C89.3427 17.5707 89.0347 17.908 88.6241 18.084C88.2134 18.2453 87.8101 18.2453 87.4141 18.084C87.0181 17.9227 86.7394 17.71 86.5781 17.446C86.4314 17.1673 86.3581 16.9107 86.3581 16.676C86.3581 16.0307 86.2261 15.6493 85.9621 15.532C85.5661 15.3707 85.1481 15.4953 84.7081 15.906C84.2827 16.3167 83.8867 16.9547 83.5201 17.82C84.8401 19.0667 86.1381 19.69 87.4141 19.69C87.9274 19.69 88.3747 19.6093 88.7561 19.448C89.1521 19.272 89.4454 19.0667 89.6361 18.832C90.0467 18.3187 90.2741 17.8787 90.3181 17.512L90.3621 17.248H90.8021ZM76.3921 18.458C76.6707 19.074 77.1181 19.6387 77.7341 20.152C78.3647 20.6653 79.0174 20.9733 79.6921 21.076C80.3814 21.164 80.9827 20.9147 81.4961 20.328C80.8947 19.844 80.3081 19.272 79.7361 18.612C78.4601 17.1893 77.6387 15.752 77.2721 14.3C76.7001 14.652 76.3187 15.2093 76.1281 15.972C75.9374 16.72 76.0254 17.5487 76.3921 18.458ZM95.8684 10.12V9.68H102.314V10.12H101.236L104.25 16.918L105.658 13.42L104.184 10.12H103.348V9.68H109.376V10.12H108.342L111.29 16.83L113.622 10.12H111.862V9.68H115.646V10.12H114.15L110.036 22H109.508L109.596 21.758L109.486 22L105.944 14.036L102.754 22H102.226L96.9244 10.12H95.8684ZM126.469 17.6H119.825C119.972 20.1813 120.977 21.472 122.839 21.472C123.338 21.472 123.903 21.3547 124.533 21.12C125.179 20.8853 125.648 20.5553 125.941 20.13L126.249 20.35C125.927 20.8927 125.377 21.34 124.599 21.692C123.822 22.044 123.045 22.22 122.267 22.22C121.505 22.22 120.815 22.1467 120.199 22C119.583 21.8387 118.982 21.5747 118.395 21.208C117.809 20.8413 117.347 20.2913 117.009 19.558C116.687 18.8247 116.525 17.9373 116.525 16.896C116.525 15.1213 117.017 13.8087 117.999 12.958C118.982 12.0927 120.17 11.66 121.563 11.66C122.971 11.66 124.137 12.1293 125.061 13.068C126 14.0067 126.469 15.5173 126.469 17.6ZM119.803 17.16H123.389C123.389 15.8107 123.243 14.63 122.949 13.618C122.671 12.606 122.216 12.1 121.585 12.1C120.955 12.1 120.5 12.5913 120.221 13.574C119.943 14.542 119.803 15.6567 119.803 16.918V17.16ZM131.808 18.568C131.808 19.6827 131.932 20.4893 132.182 20.988C132.431 21.472 132.827 21.714 133.37 21.714C133.927 21.714 134.418 21.3033 134.844 20.482C135.269 19.646 135.482 18.48 135.482 16.984C135.482 15.4733 135.254 14.3147 134.8 13.508C134.36 12.7013 133.839 12.298 133.238 12.298C132.636 12.298 132.16 12.6427 131.808 13.332V18.568ZM136.978 21.23C136.435 21.582 135.907 21.8313 135.394 21.978C134.88 22.1247 134.374 22.198 133.876 22.198C133.392 22.198 132.944 22.11 132.534 21.934C132.123 21.7433 131.793 21.5453 131.544 21.34C131.309 21.12 131.045 20.922 130.752 20.746C130.458 20.5553 130.18 20.46 129.916 20.46C129.652 20.46 129.417 20.6067 129.212 20.9C129.021 21.1933 128.926 21.56 128.926 22H128.508V7.7H127.408V7.26H131.808V12.672C132.042 12.276 132.424 11.968 132.952 11.748C133.494 11.5133 134.059 11.396 134.646 11.396C135.76 11.396 136.728 11.8873 137.55 12.87C138.386 13.838 138.803 15.1947 138.803 16.94C138.803 17.9667 138.635 18.8467 138.297 19.58C137.96 20.3133 137.52 20.8633 136.978 21.23ZM142.271 22.462C141.714 22.462 141.237 22.264 140.841 21.868C140.445 21.472 140.247 20.9953 140.247 20.438C140.247 19.866 140.445 19.382 140.841 18.986C141.237 18.59 141.714 18.392 142.271 18.392C142.843 18.392 143.327 18.59 143.723 18.986C144.119 19.382 144.317 19.866 144.317 20.438C144.317 20.9953 144.119 21.472 143.723 21.868C143.327 22.264 142.843 22.462 142.271 22.462Z" fill="#212121"/>
</svg>
