<svg width="154" height="26" viewBox="0 0 154 26" fill="none" xmlns="http://www.w3.org/2000/svg">
<path d="M4.598 21C4.45133 21 4.34133 20.956 4.268 20.868C4.19467 20.78 4.17267 20.6627 4.202 20.516L6.952 7.58L2.464 10.528C2.31733 10.616 2.18533 10.6527 2.068 10.638C1.95067 10.6233 1.85533 10.5573 1.782 10.44L1.562 10.044C1.50333 9.92667 1.48867 9.80933 1.518 9.692C1.562 9.56 1.65733 9.45 1.804 9.362L7.26 5.754C7.37733 5.68067 7.46533 5.63667 7.524 5.622C7.58267 5.60733 7.678 5.6 7.81 5.6H8.272C8.41867 5.6 8.52867 5.644 8.602 5.732C8.67533 5.82 8.69733 5.93733 8.668 6.084L5.588 20.516C5.55867 20.6627 5.49267 20.78 5.39 20.868C5.28733 20.956 5.16267 21 5.016 21H4.598ZM14.1142 21.22C13.0142 21.22 12.1122 21.0073 11.4082 20.582C10.7042 20.142 10.2275 19.4747 9.9782 18.58C9.74354 17.6707 9.75087 16.5267 10.0002 15.148C10.0882 14.708 10.1689 14.29 10.2422 13.894C10.3155 13.498 10.3962 13.102 10.4842 12.706C10.5869 12.31 10.6895 11.892 10.7922 11.452C11.1149 10.088 11.5622 8.95867 12.1342 8.064C12.7062 7.15467 13.4102 6.48 14.2462 6.04C15.0969 5.6 16.0795 5.38 17.1942 5.38C18.3089 5.38 19.2109 5.6 19.9002 6.04C20.6042 6.48 21.0735 7.15467 21.3082 8.064C21.5575 8.95867 21.5575 10.088 21.3082 11.452C21.2349 11.892 21.1542 12.31 21.0662 12.706C20.9929 13.102 20.9122 13.498 20.8242 13.894C20.7362 14.29 20.6335 14.708 20.5162 15.148C20.1935 16.5267 19.7389 17.6707 19.1522 18.58C18.5802 19.4747 17.8762 20.142 17.0402 20.582C16.2042 21.0073 15.2289 21.22 14.1142 21.22ZM14.1142 19.9C15.3755 19.9 16.4242 19.5187 17.2602 18.756C18.1109 17.9933 18.7415 16.754 19.1522 15.038C19.2695 14.598 19.3649 14.202 19.4382 13.85C19.5262 13.4833 19.6069 13.124 19.6802 12.772C19.7535 12.4053 19.8269 12.002 19.9002 11.562C20.2082 9.846 20.1569 8.60667 19.7462 7.844C19.3502 7.08133 18.4995 6.7 17.1942 6.7C15.9182 6.7 14.8622 7.08133 14.0262 7.844C13.2049 8.60667 12.5815 9.846 12.1562 11.562C12.0535 12.002 11.9582 12.4053 11.8702 12.772C11.7822 13.124 11.7015 13.4833 11.6282 13.85C11.5695 14.202 11.4962 14.598 11.4082 15.038C11.1002 16.754 11.1442 17.9933 11.5402 18.756C11.9509 19.5187 12.8089 19.9 14.1142 19.9ZM22.1059 21C21.9152 21 21.7832 20.912 21.7099 20.736C21.6219 20.56 21.6512 20.3987 21.7979 20.252L26.8579 15.148L24.0859 10.242C24.0125 10.11 24.0052 9.96333 24.0639 9.802C24.1225 9.64067 24.2472 9.56 24.4379 9.56H24.8559C25.0025 9.56 25.1125 9.59667 25.1859 9.67C25.2739 9.74333 25.3399 9.81667 25.3839 9.89L27.8479 14.268L32.2039 9.89C32.2772 9.81667 32.3579 9.74333 32.4459 9.67C32.5485 9.59667 32.7099 9.56 32.9299 9.56H33.2819C33.4432 9.54533 33.5752 9.626 33.6779 9.802C33.7805 9.978 33.7439 10.154 33.5679 10.33L28.5299 15.434L31.2579 20.318C31.3459 20.4647 31.3605 20.6187 31.3019 20.78C31.2579 20.9267 31.1332 21 30.9279 21H30.5099C30.3632 21 30.2459 20.9633 30.1579 20.89C30.0699 20.8167 30.0039 20.7433 29.9599 20.67L27.5179 16.336L23.2279 20.67C23.1692 20.7287 23.0885 20.802 22.9859 20.89C22.8832 20.9633 22.7219 21 22.5019 21H22.1059ZM40.5259 21C40.3792 21 40.2692 20.956 40.1959 20.868C40.1226 20.78 40.1006 20.6627 40.1299 20.516L43.1879 6.106C43.2172 5.94467 43.2832 5.82 43.3859 5.732C43.5032 5.644 43.6352 5.6 43.7819 5.6H52.3619C52.5232 5.6 52.6332 5.644 52.6919 5.732C52.7652 5.82 52.7872 5.94467 52.7579 6.106L52.6919 6.436C52.6626 6.58267 52.5966 6.7 52.4939 6.788C52.3912 6.876 52.2592 6.92 52.0979 6.92H44.4199L43.2099 12.53H50.4039C50.5652 12.53 50.6752 12.574 50.7339 12.662C50.8072 12.75 50.8292 12.8747 50.7999 13.036L50.7339 13.366C50.7046 13.5127 50.6386 13.63 50.5359 13.718C50.4332 13.806 50.3012 13.85 50.1399 13.85H42.9459L41.6919 19.68H49.5459C49.7072 19.68 49.8172 19.724 49.8759 19.812C49.9492 19.9 49.9712 20.0247 49.9419 20.186L49.8759 20.516C49.8466 20.6627 49.7806 20.78 49.6779 20.868C49.5752 20.956 49.4432 21 49.2819 21H40.5259ZM53.2379 21C53.0913 21 52.9813 20.956 52.9079 20.868C52.8346 20.78 52.8126 20.6627 52.8419 20.516L55.0639 10.044C55.0933 9.89733 55.1593 9.78 55.2619 9.692C55.3793 9.604 55.5113 9.56 55.6579 9.56H56.0319C56.1786 9.56 56.2813 9.604 56.3399 9.692C56.4133 9.78 56.4353 9.89733 56.4059 10.044L56.1859 11.078C56.6406 10.5647 57.1906 10.1467 57.8359 9.824C58.4813 9.50133 59.2219 9.34 60.0579 9.34C61.1726 9.34 62.0233 9.56 62.6099 10C63.2113 10.4253 63.5926 11.012 63.7539 11.76C63.9153 12.4933 63.8933 13.3293 63.6879 14.268L62.3459 20.516C62.3166 20.6627 62.2506 20.78 62.1479 20.868C62.0453 20.956 61.9206 21 61.7739 21H61.3999C61.2533 21 61.1433 20.956 61.0699 20.868C60.9966 20.78 60.9746 20.6627 61.0039 20.516L62.3019 14.378C62.5659 13.1313 62.5586 12.1927 62.2799 11.562C62.0013 10.9313 61.2606 10.616 60.0579 10.616C58.8993 10.616 57.9093 10.9533 57.0879 11.628C56.2666 12.288 55.7313 13.2047 55.4819 14.378L54.1839 20.516C54.1546 20.6627 54.0886 20.78 53.9859 20.868C53.8833 20.956 53.7586 21 53.6119 21H53.2379ZM68.9645 25.84C68.0552 25.84 67.3292 25.7153 66.7865 25.466C66.2438 25.2167 65.8332 24.9087 65.5545 24.542C65.2758 24.19 65.0998 23.8307 65.0265 23.464C64.9532 23.112 64.9385 22.826 64.9825 22.606C65.0118 22.4593 65.0705 22.3347 65.1585 22.232C65.2318 22.144 65.3345 22.1 65.4665 22.1H65.8845C66.0018 22.1 66.0972 22.122 66.1705 22.166C66.2438 22.2247 66.2878 22.3567 66.3025 22.562C66.3172 22.7967 66.3832 23.068 66.5005 23.376C66.6325 23.6987 66.8818 23.9773 67.2485 24.212C67.6298 24.4467 68.2018 24.564 68.9645 24.564C69.6538 24.564 70.3065 24.4613 70.9225 24.256C71.5532 24.0507 72.0958 23.684 72.5505 23.156C73.0052 22.6427 73.3278 21.924 73.5185 21L73.8265 19.482C73.3718 19.9807 72.8438 20.3987 72.2425 20.736C71.6412 21.0587 70.8858 21.22 69.9765 21.22C69.0965 21.22 68.3778 21.066 67.8205 20.758C67.2778 20.45 66.8672 20.0393 66.5885 19.526C66.3245 19.0127 66.1632 18.4407 66.1045 17.81C66.0605 17.1793 66.0898 16.5413 66.1925 15.896C66.2218 15.676 66.2585 15.4707 66.3025 15.28C66.3465 15.0893 66.3978 14.884 66.4565 14.664C66.6325 14.0187 66.8672 13.388 67.1605 12.772C67.4538 12.1413 67.8278 11.5693 68.2825 11.056C68.7372 10.528 69.2872 10.11 69.9325 9.802C70.5778 9.494 71.3405 9.34 72.2205 9.34C73.1298 9.34 73.8558 9.50867 74.3985 9.846C74.9558 10.1833 75.3592 10.594 75.6085 11.078L75.8285 10.066C75.8578 9.91933 75.9238 9.802 76.0265 9.714C76.1438 9.61133 76.2758 9.56 76.4225 9.56H76.7745C76.9212 9.56 77.0312 9.61133 77.1045 9.714C77.1778 9.802 77.1998 9.91933 77.1705 10.066L74.9045 20.78C74.7578 21.484 74.5598 22.1367 74.3105 22.738C74.0758 23.354 73.7385 23.8967 73.2985 24.366C72.8732 24.8353 72.3085 25.1947 71.6045 25.444C70.9005 25.708 70.0205 25.84 68.9645 25.84ZM69.9765 19.944C70.7978 19.944 71.5238 19.746 72.1545 19.35C72.7852 18.954 73.3058 18.4627 73.7165 17.876C74.1272 17.2747 74.4058 16.6733 74.5525 16.072C74.6112 15.852 74.6698 15.588 74.7285 15.28C74.8018 14.972 74.8532 14.708 74.8825 14.488C74.9852 13.8867 74.9852 13.2927 74.8825 12.706C74.7798 12.1047 74.5158 11.606 74.0905 11.21C73.6798 10.814 73.0565 10.616 72.2205 10.616C71.4285 10.616 70.7318 10.8067 70.1305 11.188C69.5438 11.5693 69.0525 12.068 68.6565 12.684C68.2752 13.3 67.9892 13.96 67.7985 14.664C67.7398 14.884 67.6885 15.0893 67.6445 15.28C67.6005 15.4707 67.5638 15.676 67.5345 15.896C67.4172 16.6 67.3878 17.26 67.4465 17.876C67.5198 18.492 67.7472 18.9907 68.1285 19.372C68.5245 19.7533 69.1405 19.944 69.9765 19.944ZM78.9547 21C78.8081 21 78.6981 20.956 78.6247 20.868C78.5514 20.78 78.5294 20.6627 78.5587 20.516L80.7807 10.044C80.8101 9.89733 80.8761 9.78 80.9787 9.692C81.0961 9.604 81.2281 9.56 81.3747 9.56H81.7487C81.8954 9.56 81.9981 9.604 82.0567 9.692C82.1301 9.78 82.1521 9.89733 82.1227 10.044L79.9007 20.516C79.8714 20.6627 79.8054 20.78 79.7027 20.868C79.6001 20.956 79.4754 21 79.3287 21H78.9547ZM81.6387 7.206C81.4921 7.206 81.3821 7.162 81.3087 7.074C81.2501 6.986 81.2281 6.86867 81.2427 6.722L81.4407 5.886C81.4701 5.73933 81.5361 5.622 81.6387 5.534C81.7414 5.43133 81.8661 5.38 82.0127 5.38H82.8487C82.9954 5.38 83.1054 5.43133 83.1787 5.534C83.2667 5.622 83.2961 5.73933 83.2667 5.886L83.0687 6.722C83.0541 6.86867 82.9881 6.986 82.8707 7.074C82.7534 7.162 82.6214 7.206 82.4747 7.206H81.6387ZM83.8747 21C83.728 21 83.618 20.956 83.5447 20.868C83.4713 20.78 83.4493 20.6627 83.4787 20.516L85.7007 10.044C85.73 9.89733 85.796 9.78 85.8987 9.692C86.016 9.604 86.148 9.56 86.2947 9.56H86.6687C86.8153 9.56 86.918 9.604 86.9767 9.692C87.05 9.78 87.072 9.89733 87.0427 10.044L86.8227 11.078C87.2773 10.5647 87.8273 10.1467 88.4727 9.824C89.118 9.50133 89.8587 9.34 90.6947 9.34C91.8093 9.34 92.66 9.56 93.2467 10C93.848 10.4253 94.2293 11.012 94.3907 11.76C94.552 12.4933 94.53 13.3293 94.3247 14.268L92.9827 20.516C92.9533 20.6627 92.8873 20.78 92.7847 20.868C92.682 20.956 92.5573 21 92.4107 21H92.0367C91.89 21 91.78 20.956 91.7067 20.868C91.6333 20.78 91.6113 20.6627 91.6407 20.516L92.9387 14.378C93.2027 13.1313 93.1953 12.1927 92.9167 11.562C92.638 10.9313 91.8973 10.616 90.6947 10.616C89.536 10.616 88.546 10.9533 87.7247 11.628C86.9033 12.288 86.368 13.2047 86.1187 14.378L84.8207 20.516C84.7913 20.6627 84.7253 20.78 84.6227 20.868C84.52 20.956 84.3953 21 84.2487 21H83.8747ZM100.855 21.22C99.9166 21.22 99.1392 21.0073 98.5232 20.582C97.9219 20.1567 97.5039 19.5627 97.2692 18.8C97.0346 18.0373 96.9832 17.1573 97.1152 16.16C97.1446 15.94 97.1959 15.6467 97.2692 15.28C97.3572 14.9133 97.4306 14.62 97.4892 14.4C97.7826 13.4027 98.2079 12.5227 98.7652 11.76C99.3226 10.9973 99.9899 10.4033 100.767 9.978C101.559 9.55267 102.432 9.34 103.385 9.34C104.412 9.34 105.233 9.56733 105.849 10.022C106.465 10.4767 106.876 11.1293 107.081 11.98C107.287 12.8307 107.272 13.8427 107.037 15.016L106.971 15.346C106.942 15.4927 106.869 15.61 106.751 15.698C106.634 15.786 106.502 15.83 106.355 15.83H98.5232C98.5232 15.83 98.5159 15.8593 98.5012 15.918C98.5012 15.9767 98.4939 16.0207 98.4792 16.05C98.3766 16.71 98.3986 17.3407 98.5452 17.942C98.6919 18.5287 98.9779 19.0127 99.4032 19.394C99.8432 19.7607 100.415 19.944 101.119 19.944C101.75 19.944 102.293 19.8487 102.747 19.658C103.217 19.4673 103.598 19.262 103.891 19.042C104.185 18.8073 104.383 18.6313 104.485 18.514C104.661 18.3233 104.786 18.2133 104.859 18.184C104.947 18.14 105.072 18.118 105.233 18.118H105.585C105.717 18.118 105.82 18.162 105.893 18.25C105.967 18.3233 105.989 18.426 105.959 18.558C105.901 18.7633 105.732 19.02 105.453 19.328C105.189 19.6213 104.823 19.9147 104.353 20.208C103.899 20.5013 103.371 20.7433 102.769 20.934C102.183 21.1247 101.545 21.22 100.855 21.22ZM98.7872 14.598H105.783L105.805 14.51C105.996 13.7767 106.011 13.1167 105.849 12.53C105.688 11.9433 105.373 11.4813 104.903 11.144C104.449 10.792 103.855 10.616 103.121 10.616C102.388 10.616 101.728 10.792 101.141 11.144C100.569 11.4813 100.085 11.9433 99.6892 12.53C99.2932 13.1167 98.9999 13.7767 98.8092 14.51L98.7872 14.598ZM112.822 21.22C111.883 21.22 111.106 21.0073 110.49 20.582C109.889 20.1567 109.471 19.5627 109.236 18.8C109.001 18.0373 108.95 17.1573 109.082 16.16C109.111 15.94 109.163 15.6467 109.236 15.28C109.324 14.9133 109.397 14.62 109.456 14.4C109.749 13.4027 110.175 12.5227 110.732 11.76C111.289 10.9973 111.957 10.4033 112.734 9.978C113.526 9.55267 114.399 9.34 115.352 9.34C116.379 9.34 117.2 9.56733 117.816 10.022C118.432 10.4767 118.843 11.1293 119.048 11.98C119.253 12.8307 119.239 13.8427 119.004 15.016L118.938 15.346C118.909 15.4927 118.835 15.61 118.718 15.698C118.601 15.786 118.469 15.83 118.322 15.83H110.49C110.49 15.83 110.483 15.8593 110.468 15.918C110.468 15.9767 110.461 16.0207 110.446 16.05C110.343 16.71 110.365 17.3407 110.512 17.942C110.659 18.5287 110.945 19.0127 111.37 19.394C111.81 19.7607 112.382 19.944 113.086 19.944C113.717 19.944 114.259 19.8487 114.714 19.658C115.183 19.4673 115.565 19.262 115.858 19.042C116.151 18.8073 116.349 18.6313 116.452 18.514C116.628 18.3233 116.753 18.2133 116.826 18.184C116.914 18.14 117.039 18.118 117.2 18.118H117.552C117.684 18.118 117.787 18.162 117.86 18.25C117.933 18.3233 117.955 18.426 117.926 18.558C117.867 18.7633 117.699 19.02 117.42 19.328C117.156 19.6213 116.789 19.9147 116.32 20.208C115.865 20.5013 115.337 20.7433 114.736 20.934C114.149 21.1247 113.511 21.22 112.822 21.22ZM110.754 14.598H117.75L117.772 14.51C117.963 13.7767 117.977 13.1167 117.816 12.53C117.655 11.9433 117.339 11.4813 116.87 11.144C116.415 10.792 115.821 10.616 115.088 10.616C114.355 10.616 113.695 10.792 113.108 11.144C112.536 11.4813 112.052 11.9433 111.656 12.53C111.26 13.1167 110.967 13.7767 110.776 14.51L110.754 14.598ZM120.785 21C120.638 21 120.528 20.956 120.455 20.868C120.381 20.78 120.359 20.6627 120.389 20.516L122.611 10.066C122.64 9.91933 122.706 9.802 122.809 9.714C122.926 9.61133 123.058 9.56 123.205 9.56H123.557C123.703 9.56 123.813 9.61133 123.887 9.714C123.96 9.802 123.982 9.91933 123.953 10.066L123.733 11.078C124.07 10.5647 124.525 10.1833 125.097 9.934C125.669 9.68467 126.321 9.56 127.055 9.56H127.869C128.015 9.56 128.118 9.604 128.177 9.692C128.25 9.78 128.272 9.89733 128.243 10.044L128.177 10.352C128.147 10.4987 128.081 10.616 127.979 10.704C127.876 10.792 127.751 10.836 127.605 10.836H126.659C125.779 10.836 125.023 11.0927 124.393 11.606C123.777 12.1193 123.373 12.816 123.183 13.696L121.731 20.516C121.701 20.6627 121.628 20.78 121.511 20.868C121.408 20.956 121.283 21 121.137 21H120.785ZM133.316 7.866L133.382 5.6C133.382 5.40933 133.441 5.25533 133.558 5.138C133.676 5.02067 133.822 4.95467 133.998 4.94H134.856C135.062 4.94 135.179 5.01333 135.208 5.16C135.252 5.30667 135.245 5.45333 135.186 5.6L134.262 7.888L136.55 6.766C136.682 6.69267 136.829 6.656 136.99 6.656C137.152 6.656 137.247 6.766 137.276 6.986L137.386 7.888C137.416 8.07867 137.372 8.218 137.254 8.306C137.137 8.37933 136.99 8.43067 136.814 8.46L134.372 8.79L135.736 10.352C135.839 10.4693 135.883 10.6013 135.868 10.748C135.868 10.8947 135.788 11.0267 135.626 11.144L134.768 11.694C134.607 11.7967 134.453 11.8187 134.306 11.76C134.174 11.7013 134.094 11.5913 134.064 11.43L133.492 9.318L131.974 11.518C131.886 11.6353 131.769 11.7307 131.622 11.804C131.49 11.8627 131.358 11.8333 131.226 11.716L130.61 11.144C130.464 11.012 130.427 10.8727 130.5 10.726C130.574 10.5793 130.676 10.4547 130.808 10.352L132.832 8.768L130.61 8.482C130.464 8.45267 130.339 8.37933 130.236 8.262C130.148 8.14467 130.156 7.998 130.258 7.822L130.764 6.92C130.852 6.75867 130.962 6.67067 131.094 6.656C131.226 6.62667 131.336 6.64133 131.424 6.7L133.316 7.866ZM138.163 21C138.016 21 137.906 20.956 137.833 20.868C137.759 20.78 137.737 20.6627 137.767 20.516L137.987 19.46C138.016 19.3133 138.082 19.196 138.185 19.108C138.302 19.0053 138.434 18.954 138.581 18.954H139.637C139.783 18.954 139.893 19.0053 139.967 19.108C140.04 19.196 140.062 19.3133 140.033 19.46L139.813 20.516C139.783 20.6627 139.71 20.78 139.593 20.868C139.49 20.956 139.365 21 139.219 21H138.163Z" fill="#212121"/>
</svg>
