<svg width="210" height="26" viewBox="0 0 210 26" fill="none" xmlns="http://www.w3.org/2000/svg">
<path d="M2.42 21C2.25867 21 2.134 20.956 2.046 20.868C1.958 20.7653 1.914 20.6407 1.914 20.494V6.128C1.914 5.96667 1.958 5.842 2.046 5.754C2.134 5.65133 2.25867 5.6 2.42 5.6H11.506C11.6673 5.6 11.792 5.65133 11.88 5.754C11.968 5.842 12.012 5.96667 12.012 6.128V6.964C12.012 7.12533 11.968 7.25 11.88 7.338C11.792 7.426 11.6673 7.47 11.506 7.47H4.026V12.288H11.022C11.1833 12.288 11.308 12.3393 11.396 12.442C11.484 12.53 11.528 12.6547 11.528 12.816V13.63C11.528 13.7767 11.484 13.9013 11.396 14.004C11.308 14.092 11.1833 14.136 11.022 14.136H4.026V19.13H11.682C11.8433 19.13 11.968 19.174 12.056 19.262C12.144 19.35 12.188 19.4747 12.188 19.636V20.494C12.188 20.6407 12.144 20.7653 12.056 20.868C11.968 20.956 11.8433 21 11.682 21H2.42ZM14.4418 21C14.3245 21 14.2145 20.956 14.1118 20.868C14.0238 20.78 13.9798 20.67 13.9798 20.538C13.9798 20.494 13.9871 20.4427 14.0018 20.384C14.0311 20.3107 14.0751 20.23 14.1338 20.142L17.9618 15.148L14.3758 10.418C14.3171 10.33 14.2731 10.2567 14.2438 10.198C14.2291 10.1393 14.2218 10.0807 14.2218 10.022C14.2218 9.89 14.2658 9.78 14.3538 9.692C14.4418 9.604 14.5518 9.56 14.6838 9.56H15.8058C15.9671 9.56 16.0845 9.604 16.1578 9.692C16.2458 9.76533 16.3191 9.83867 16.3778 9.912L19.3038 13.718L22.2298 9.934C22.2885 9.86067 22.3545 9.78 22.4278 9.692C22.5158 9.604 22.6405 9.56 22.8018 9.56H23.8798C24.0118 9.56 24.1218 9.604 24.2098 9.692C24.2978 9.78 24.3418 9.89 24.3418 10.022C24.3418 10.0807 24.3271 10.1393 24.2978 10.198C24.2831 10.2567 24.2465 10.33 24.1878 10.418L20.5578 15.192L24.3858 20.142C24.4445 20.23 24.4811 20.3033 24.4958 20.362C24.5251 20.4207 24.5398 20.4793 24.5398 20.538C24.5398 20.67 24.4958 20.78 24.4078 20.868C24.3198 20.956 24.2098 21 24.0778 21H22.9118C22.7651 21 22.6478 20.9633 22.5598 20.89C22.4718 20.8167 22.3985 20.7433 22.3398 20.67L19.2378 16.644L16.1358 20.67C16.0771 20.7287 16.0038 20.802 15.9158 20.89C15.8425 20.9633 15.7251 21 15.5638 21H14.4418ZM27.3572 25.18C27.2105 25.18 27.0858 25.1287 26.9832 25.026C26.8952 24.938 26.8512 24.8207 26.8512 24.674V10.066C26.8512 9.91933 26.8952 9.802 26.9832 9.714C27.0858 9.61133 27.2105 9.56 27.3572 9.56H28.3692C28.5158 9.56 28.6332 9.61133 28.7212 9.714C28.8238 9.802 28.8752 9.91933 28.8752 10.066V11.034C29.2272 10.55 29.6965 10.1467 30.2832 9.824C30.8698 9.50133 31.6032 9.34 32.4832 9.34C33.3045 9.34 34.0012 9.47933 34.5732 9.758C35.1598 10.0367 35.6365 10.418 36.0032 10.902C36.3845 11.386 36.6705 11.936 36.8612 12.552C37.0518 13.168 37.1545 13.828 37.1692 14.532C37.1838 14.7667 37.1912 15.016 37.1912 15.28C37.1912 15.544 37.1838 15.7933 37.1692 16.028C37.1545 16.7173 37.0518 17.3773 36.8612 18.008C36.6705 18.624 36.3845 19.174 36.0032 19.658C35.6365 20.1273 35.1598 20.5087 34.5732 20.802C34.0012 21.0807 33.3045 21.22 32.4832 21.22C31.6325 21.22 30.9138 21.066 30.3272 20.758C29.7552 20.4353 29.2858 20.0393 28.9192 19.57V24.674C28.9192 24.8207 28.8752 24.938 28.7872 25.026C28.6992 25.1287 28.5745 25.18 28.4132 25.18H27.3572ZM32.0212 19.438C32.7838 19.438 33.3778 19.2767 33.8032 18.954C34.2432 18.6167 34.5585 18.184 34.7492 17.656C34.9398 17.1133 35.0498 16.534 35.0792 15.918C35.0938 15.4927 35.0938 15.0673 35.0792 14.642C35.0498 14.026 34.9398 13.454 34.7492 12.926C34.5585 12.3833 34.2432 11.9507 33.8032 11.628C33.3778 11.2907 32.7838 11.122 32.0212 11.122C31.3025 11.122 30.7158 11.2907 30.2612 11.628C29.8212 11.9653 29.4912 12.398 29.2712 12.926C29.0658 13.4393 28.9485 13.9673 28.9192 14.51C28.9045 14.7447 28.8972 15.0233 28.8972 15.346C28.8972 15.6687 28.9045 15.9547 28.9192 16.204C28.9338 16.7173 29.0512 17.2233 29.2712 17.722C29.5058 18.2207 29.8505 18.6313 30.3052 18.954C30.7598 19.2767 31.3318 19.438 32.0212 19.438ZM44.4886 21.22C42.978 21.22 41.7753 20.758 40.8806 19.834C39.986 18.8953 39.4946 17.6193 39.4066 16.006C39.392 15.8153 39.3846 15.5733 39.3846 15.28C39.3846 14.972 39.392 14.7227 39.4066 14.532C39.4653 13.4907 39.7073 12.5813 40.1326 11.804C40.558 11.012 41.1373 10.4033 41.8706 9.978C42.6186 9.55267 43.4913 9.34 44.4886 9.34C45.6033 9.34 46.5346 9.57467 47.2826 10.044C48.0453 10.5133 48.6246 11.1807 49.0206 12.046C49.4166 12.9113 49.6146 13.9233 49.6146 15.082V15.456C49.6146 15.6173 49.5633 15.742 49.4606 15.83C49.3726 15.918 49.2553 15.962 49.1086 15.962H41.4966C41.4966 15.9767 41.4966 16.006 41.4966 16.05C41.4966 16.094 41.4966 16.1307 41.4966 16.16C41.526 16.7613 41.658 17.326 41.8926 17.854C42.1273 18.3673 42.4646 18.7853 42.9046 19.108C43.3446 19.4307 43.8726 19.592 44.4886 19.592C45.0166 19.592 45.4566 19.5113 45.8086 19.35C46.1606 19.1887 46.4466 19.0127 46.6666 18.822C46.8866 18.6167 47.0333 18.4627 47.1066 18.36C47.2386 18.1693 47.3413 18.0593 47.4146 18.03C47.488 17.986 47.6053 17.964 47.7666 17.964H48.8226C48.9693 17.964 49.0866 18.008 49.1746 18.096C49.2773 18.1693 49.3213 18.2793 49.3066 18.426C49.292 18.646 49.1746 18.9173 48.9546 19.24C48.7346 19.548 48.4193 19.856 48.0086 20.164C47.598 20.472 47.0993 20.7287 46.5126 20.934C45.926 21.1247 45.2513 21.22 44.4886 21.22ZM41.4966 14.444H47.5246V14.378C47.5246 13.718 47.4 13.1313 47.1506 12.618C46.916 12.1047 46.5713 11.7013 46.1166 11.408C45.662 11.1 45.1193 10.946 44.4886 10.946C43.858 10.946 43.3153 11.1 42.8606 11.408C42.4206 11.7013 42.0833 12.1047 41.8486 12.618C41.614 13.1313 41.4966 13.718 41.4966 14.378V14.444ZM52.7512 21C52.6045 21 52.4799 20.956 52.3772 20.868C52.2892 20.7653 52.2452 20.6407 52.2452 20.494V10.088C52.2452 9.94133 52.2892 9.81667 52.3772 9.714C52.4799 9.61133 52.6045 9.56 52.7512 9.56H53.7632C53.9099 9.56 54.0345 9.61133 54.1372 9.714C54.2399 9.81667 54.2912 9.94133 54.2912 10.088V11.056C54.5845 10.5573 54.9879 10.1833 55.5012 9.934C56.0145 9.68467 56.6305 9.56 57.3492 9.56H58.2292C58.3759 9.56 58.4932 9.61133 58.5812 9.714C58.6692 9.802 58.7132 9.91933 58.7132 10.066V10.968C58.7132 11.1147 58.6692 11.232 58.5812 11.32C58.4932 11.408 58.3759 11.452 58.2292 11.452H56.9092C56.1172 11.452 55.4939 11.6867 55.0392 12.156C54.5845 12.6107 54.3572 13.234 54.3572 14.026V20.494C54.3572 20.6407 54.3059 20.7653 54.2032 20.868C54.1005 20.956 53.9759 21 53.8292 21H52.7512ZM61.1086 21C60.9619 21 60.8373 20.956 60.7346 20.868C60.6466 20.7653 60.6026 20.6407 60.6026 20.494V10.066C60.6026 9.91933 60.6466 9.802 60.7346 9.714C60.8373 9.61133 60.9619 9.56 61.1086 9.56H62.1646C62.3113 9.56 62.4286 9.61133 62.5166 9.714C62.6046 9.802 62.6486 9.91933 62.6486 10.066V20.494C62.6486 20.6407 62.6046 20.7653 62.5166 20.868C62.4286 20.956 62.3113 21 62.1646 21H61.1086ZM60.9326 7.426C60.7859 7.426 60.6613 7.382 60.5586 7.294C60.4706 7.19133 60.4266 7.06667 60.4266 6.92V5.732C60.4266 5.58533 60.4706 5.468 60.5586 5.38C60.6613 5.27733 60.7859 5.226 60.9326 5.226H62.3186C62.4653 5.226 62.5826 5.27733 62.6706 5.38C62.7733 5.468 62.8246 5.58533 62.8246 5.732V6.92C62.8246 7.06667 62.7733 7.19133 62.6706 7.294C62.5826 7.382 62.4653 7.426 62.3186 7.426H60.9326ZM66.6516 21C66.5049 21 66.3802 20.956 66.2776 20.868C66.1896 20.7653 66.1456 20.6407 66.1456 20.494V10.066C66.1456 9.91933 66.1896 9.802 66.2776 9.714C66.3802 9.61133 66.5049 9.56 66.6516 9.56H67.6416C67.7882 9.56 67.9056 9.61133 67.9936 9.714C68.0962 9.802 68.1476 9.91933 68.1476 10.066V10.836C68.4849 10.3813 68.9102 10.022 69.4236 9.758C69.9369 9.47933 70.5529 9.34 71.2716 9.34C72.9289 9.32533 74.1022 10 74.7916 11.364C75.1289 10.748 75.6202 10.2567 76.2656 9.89C76.9109 9.52333 77.6442 9.34 78.4656 9.34C79.2282 9.34 79.9176 9.516 80.5336 9.868C81.1642 10.22 81.6556 10.7553 82.0076 11.474C82.3742 12.178 82.5576 13.0653 82.5576 14.136V20.494C82.5576 20.6407 82.5062 20.7653 82.4036 20.868C82.3156 20.956 82.1982 21 82.0516 21H81.0176C80.8709 21 80.7462 20.956 80.6436 20.868C80.5556 20.7653 80.5116 20.6407 80.5116 20.494V14.334C80.5116 13.5127 80.3942 12.8673 80.1596 12.398C79.9249 11.9287 79.6096 11.5987 79.2136 11.408C78.8176 11.2173 78.3849 11.122 77.9156 11.122C77.5342 11.122 77.1456 11.2173 76.7496 11.408C76.3536 11.5987 76.0236 11.9287 75.7596 12.398C75.5102 12.8673 75.3856 13.5127 75.3856 14.334V20.494C75.3856 20.6407 75.3342 20.7653 75.2316 20.868C75.1436 20.956 75.0262 21 74.8796 21H73.8456C73.6989 21 73.5742 20.956 73.4716 20.868C73.3836 20.7653 73.3396 20.6407 73.3396 20.494V14.334C73.3396 13.5127 73.2149 12.8673 72.9656 12.398C72.7162 11.9287 72.3936 11.5987 71.9976 11.408C71.6016 11.2173 71.1836 11.122 70.7436 11.122C70.3622 11.122 69.9736 11.2173 69.5776 11.408C69.1816 11.5987 68.8516 11.9287 68.5876 12.398C68.3382 12.8673 68.2136 13.5053 68.2136 14.312V20.494C68.2136 20.6407 68.1622 20.7653 68.0596 20.868C67.9716 20.956 67.8542 21 67.7076 21H66.6516ZM90.2504 21.22C88.7397 21.22 87.537 20.758 86.6424 19.834C85.7477 18.8953 85.2564 17.6193 85.1684 16.006C85.1537 15.8153 85.1464 15.5733 85.1464 15.28C85.1464 14.972 85.1537 14.7227 85.1684 14.532C85.227 13.4907 85.469 12.5813 85.8944 11.804C86.3197 11.012 86.899 10.4033 87.6324 9.978C88.3804 9.55267 89.253 9.34 90.2504 9.34C91.365 9.34 92.2964 9.57467 93.0444 10.044C93.807 10.5133 94.3864 11.1807 94.7824 12.046C95.1784 12.9113 95.3764 13.9233 95.3764 15.082V15.456C95.3764 15.6173 95.325 15.742 95.2224 15.83C95.1344 15.918 95.017 15.962 94.8704 15.962H87.2584C87.2584 15.9767 87.2584 16.006 87.2584 16.05C87.2584 16.094 87.2584 16.1307 87.2584 16.16C87.2877 16.7613 87.4197 17.326 87.6544 17.854C87.889 18.3673 88.2264 18.7853 88.6664 19.108C89.1064 19.4307 89.6344 19.592 90.2504 19.592C90.7784 19.592 91.2184 19.5113 91.5704 19.35C91.9224 19.1887 92.2084 19.0127 92.4284 18.822C92.6484 18.6167 92.795 18.4627 92.8684 18.36C93.0004 18.1693 93.103 18.0593 93.1764 18.03C93.2497 17.986 93.367 17.964 93.5284 17.964H94.5844C94.731 17.964 94.8484 18.008 94.9364 18.096C95.039 18.1693 95.083 18.2793 95.0684 18.426C95.0537 18.646 94.9364 18.9173 94.7164 19.24C94.4964 19.548 94.181 19.856 93.7704 20.164C93.3597 20.472 92.861 20.7287 92.2744 20.934C91.6877 21.1247 91.013 21.22 90.2504 21.22ZM87.2584 14.444H93.2864V14.378C93.2864 13.718 93.1617 13.1313 92.9124 12.618C92.6777 12.1047 92.333 11.7013 91.8784 11.408C91.4237 11.1 90.881 10.946 90.2504 10.946C89.6197 10.946 89.077 11.1 88.6224 11.408C88.1824 11.7013 87.845 12.1047 87.6104 12.618C87.3757 13.1313 87.2584 13.718 87.2584 14.378V14.444ZM98.5129 21C98.3662 21 98.2416 20.956 98.1389 20.868C98.0509 20.7653 98.0069 20.6407 98.0069 20.494V10.066C98.0069 9.91933 98.0509 9.802 98.1389 9.714C98.2416 9.61133 98.3662 9.56 98.5129 9.56H99.5469C99.6936 9.56 99.8109 9.61133 99.8989 9.714C100.002 9.802 100.053 9.91933 100.053 10.066V11.034C100.434 10.5353 100.911 10.132 101.483 9.824C102.07 9.50133 102.818 9.34 103.727 9.34C104.68 9.34 105.487 9.55267 106.147 9.978C106.822 10.3887 107.328 10.968 107.665 11.716C108.002 12.4493 108.171 13.3073 108.171 14.29V20.494C108.171 20.6407 108.127 20.7653 108.039 20.868C107.951 20.956 107.834 21 107.687 21H106.587C106.44 21 106.316 20.956 106.213 20.868C106.125 20.7653 106.081 20.6407 106.081 20.494V14.4C106.081 13.3733 105.832 12.574 105.333 12.002C104.834 11.4153 104.101 11.122 103.133 11.122C102.224 11.122 101.49 11.4153 100.933 12.002C100.39 12.574 100.119 13.3733 100.119 14.4V20.494C100.119 20.6407 100.068 20.7653 99.9649 20.868C99.8769 20.956 99.7596 21 99.6129 21H98.5129ZM115.664 21C114.843 21 114.176 20.846 113.662 20.538C113.149 20.2153 112.775 19.768 112.54 19.196C112.306 18.6093 112.188 17.92 112.188 17.128V11.32H110.472C110.326 11.32 110.201 11.276 110.098 11.188C110.01 11.0853 109.966 10.9607 109.966 10.814V10.066C109.966 9.91933 110.01 9.802 110.098 9.714C110.201 9.61133 110.326 9.56 110.472 9.56H112.188V5.886C112.188 5.73933 112.232 5.622 112.32 5.534C112.423 5.43133 112.548 5.38 112.694 5.38H113.728C113.875 5.38 113.992 5.43133 114.08 5.534C114.183 5.622 114.234 5.73933 114.234 5.886V9.56H116.962C117.109 9.56 117.226 9.61133 117.314 9.714C117.417 9.802 117.468 9.91933 117.468 10.066V10.814C117.468 10.9607 117.417 11.0853 117.314 11.188C117.226 11.276 117.109 11.32 116.962 11.32H114.234V16.974C114.234 17.6633 114.352 18.206 114.586 18.602C114.821 18.998 115.239 19.196 115.84 19.196H117.182C117.329 19.196 117.446 19.2473 117.534 19.35C117.637 19.438 117.688 19.5553 117.688 19.702V20.494C117.688 20.6407 117.637 20.7653 117.534 20.868C117.446 20.956 117.329 21 117.182 21H115.664ZM122.982 21.22C122.249 21.22 121.581 21.0733 120.98 20.78C120.379 20.4867 119.895 20.0907 119.528 19.592C119.161 19.0933 118.978 18.5287 118.978 17.898C118.978 16.886 119.389 16.0793 120.21 15.478C121.031 14.8767 122.102 14.4807 123.422 14.29L126.7 13.828V13.19C126.7 12.486 126.495 11.936 126.084 11.54C125.688 11.144 125.035 10.946 124.126 10.946C123.466 10.946 122.931 11.078 122.52 11.342C122.124 11.606 121.845 11.9433 121.684 12.354C121.596 12.574 121.442 12.684 121.222 12.684H120.232C120.071 12.684 119.946 12.64 119.858 12.552C119.785 12.4493 119.748 12.332 119.748 12.2C119.748 11.98 119.829 11.7087 119.99 11.386C120.166 11.0633 120.43 10.748 120.782 10.44C121.134 10.132 121.581 9.87533 122.124 9.67C122.681 9.45 123.356 9.34 124.148 9.34C125.028 9.34 125.769 9.45733 126.37 9.692C126.971 9.912 127.441 10.2127 127.778 10.594C128.13 10.9753 128.379 11.408 128.526 11.892C128.687 12.376 128.768 12.8673 128.768 13.366V20.494C128.768 20.6407 128.717 20.7653 128.614 20.868C128.526 20.956 128.409 21 128.262 21H127.25C127.089 21 126.964 20.956 126.876 20.868C126.788 20.7653 126.744 20.6407 126.744 20.494V19.548C126.553 19.812 126.297 20.076 125.974 20.34C125.651 20.5893 125.248 20.802 124.764 20.978C124.28 21.1393 123.686 21.22 122.982 21.22ZM123.444 19.57C124.045 19.57 124.595 19.4453 125.094 19.196C125.593 18.932 125.981 18.5287 126.26 17.986C126.553 17.4433 126.7 16.7613 126.7 15.94V15.324L124.148 15.698C123.107 15.8447 122.322 16.094 121.794 16.446C121.266 16.7833 121.002 17.216 121.002 17.744C121.002 18.1547 121.119 18.4993 121.354 18.778C121.603 19.042 121.911 19.24 122.278 19.372C122.659 19.504 123.048 19.57 123.444 19.57ZM132.459 21C132.312 21 132.187 20.956 132.085 20.868C131.997 20.7653 131.953 20.6407 131.953 20.494V5.886C131.953 5.73933 131.997 5.622 132.085 5.534C132.187 5.43133 132.312 5.38 132.459 5.38H133.493C133.654 5.38 133.779 5.43133 133.867 5.534C133.955 5.622 133.999 5.73933 133.999 5.886V20.494C133.999 20.6407 133.955 20.7653 133.867 20.868C133.779 20.956 133.654 21 133.493 21H132.459ZM148.767 21.22C147.535 21.22 146.472 21 145.577 20.56C144.697 20.12 144.015 19.4527 143.531 18.558C143.062 17.6487 142.827 16.4827 142.827 15.06V6.128C142.827 5.96667 142.871 5.842 142.959 5.754C143.047 5.65133 143.172 5.6 143.333 5.6H144.455C144.616 5.6 144.741 5.65133 144.829 5.754C144.932 5.842 144.983 5.96667 144.983 6.128V15.104C144.983 16.5413 145.32 17.6047 145.995 18.294C146.67 18.9833 147.594 19.328 148.767 19.328C149.926 19.328 150.842 18.9833 151.517 18.294C152.206 17.6047 152.551 16.5413 152.551 15.104V6.128C152.551 5.96667 152.595 5.842 152.683 5.754C152.786 5.65133 152.91 5.6 153.057 5.6H154.201C154.348 5.6 154.465 5.65133 154.553 5.754C154.656 5.842 154.707 5.96667 154.707 6.128V15.06C154.707 16.4827 154.465 17.6487 153.981 18.558C153.512 19.4527 152.837 20.12 151.957 20.56C151.077 21 150.014 21.22 148.767 21.22ZM158.891 21C158.729 21 158.605 20.956 158.517 20.868C158.429 20.7653 158.385 20.6407 158.385 20.494V6.106C158.385 5.95933 158.429 5.842 158.517 5.754C158.605 5.65133 158.729 5.6 158.891 5.6H160.057C160.203 5.6 160.321 5.65133 160.409 5.754C160.511 5.842 160.563 5.95933 160.563 6.106V20.494C160.563 20.6407 160.511 20.7653 160.409 20.868C160.321 20.956 160.203 21 160.057 21H158.891ZM163.498 22.848C163.381 22.848 163.278 22.804 163.19 22.716C163.102 22.628 163.058 22.5253 163.058 22.408C163.058 22.3347 163.08 22.2467 163.124 22.144L170.648 4.104C170.692 4.016 170.751 3.928 170.824 3.84C170.912 3.752 171.044 3.708 171.22 3.708H172.078C172.196 3.708 172.298 3.752 172.386 3.84C172.474 3.928 172.518 4.03067 172.518 4.148C172.518 4.20667 172.504 4.29467 172.474 4.412L164.928 22.452C164.899 22.5253 164.833 22.606 164.73 22.694C164.642 22.7967 164.518 22.848 164.356 22.848H163.498ZM180.8 21.22C179.568 21.22 178.505 21 177.61 20.56C176.73 20.12 176.048 19.4527 175.564 18.558C175.095 17.6487 174.86 16.4827 174.86 15.06V6.128C174.86 5.96667 174.904 5.842 174.992 5.754C175.08 5.65133 175.205 5.6 175.366 5.6H176.488C176.649 5.6 176.774 5.65133 176.862 5.754C176.965 5.842 177.016 5.96667 177.016 6.128V15.104C177.016 16.5413 177.353 17.6047 178.028 18.294C178.703 18.9833 179.627 19.328 180.8 19.328C181.959 19.328 182.875 18.9833 183.55 18.294C184.239 17.6047 184.584 16.5413 184.584 15.104V6.128C184.584 5.96667 184.628 5.842 184.716 5.754C184.819 5.65133 184.943 5.6 185.09 5.6H186.234C186.381 5.6 186.498 5.65133 186.586 5.754C186.689 5.842 186.74 5.96667 186.74 6.128V15.06C186.74 16.4827 186.498 17.6487 186.014 18.558C185.545 19.4527 184.87 20.12 183.99 20.56C183.11 21 182.047 21.22 180.8 21.22ZM189.472 21C189.355 21 189.245 20.956 189.142 20.868C189.054 20.78 189.01 20.6773 189.01 20.56C189.01 20.5013 189.018 20.45 189.032 20.406C189.062 20.3473 189.084 20.3033 189.098 20.274L194.136 13.168L189.34 6.326C189.296 6.238 189.274 6.14267 189.274 6.04C189.274 5.92267 189.318 5.82 189.406 5.732C189.494 5.644 189.597 5.6 189.714 5.6H191.034C191.181 5.6 191.298 5.63667 191.386 5.71C191.474 5.76867 191.555 5.85667 191.628 5.974L195.5 11.474L199.35 5.974C199.409 5.85667 199.482 5.76867 199.57 5.71C199.673 5.63667 199.79 5.6 199.922 5.6H201.176C201.294 5.6 201.396 5.644 201.484 5.732C201.572 5.82 201.616 5.92267 201.616 6.04C201.616 6.14267 201.587 6.238 201.528 6.326L196.798 13.19L201.814 20.274C201.844 20.3033 201.866 20.3473 201.88 20.406C201.895 20.45 201.902 20.5013 201.902 20.56C201.902 20.6773 201.858 20.78 201.77 20.868C201.682 20.956 201.572 21 201.44 21H200.098C199.966 21 199.849 20.9633 199.746 20.89C199.658 20.8167 199.578 20.736 199.504 20.648L195.412 14.928L191.342 20.648C191.269 20.736 191.188 20.8167 191.1 20.89C191.012 20.9633 190.895 21 190.748 21H189.472ZM204.384 21C204.238 21 204.113 20.956 204.01 20.868C203.922 20.7653 203.878 20.6407 203.878 20.494V18.91C203.878 18.7633 203.922 18.646 204.01 18.558C204.113 18.4553 204.238 18.404 204.384 18.404H205.968C206.115 18.404 206.232 18.4553 206.32 18.558C206.423 18.646 206.474 18.7633 206.474 18.91V20.494C206.474 20.6407 206.423 20.7653 206.32 20.868C206.232 20.956 206.115 21 205.968 21H204.384Z" fill="#212121"/>
</svg>
