<svg width="139" height="37" viewBox="0 0 139 37" fill="none" xmlns="http://www.w3.org/2000/svg">
<path d="M2.706 24.596C2.178 24.596 1.914 24.0973 1.914 23.1C1.914 22.5573 2.002 21.8827 2.178 21.076C2.36867 20.2693 2.662 19.3527 3.058 18.326C2.63267 18.3553 2.266 18.3773 1.958 18.392C1.66467 18.4067 1.43733 18.414 1.276 18.414C0.557333 18.414 0.198 18.0693 0.198 17.38C0.198 17.336 0.227333 17.314 0.286 17.314L0.704 17.424C2.244 17.424 3.15333 17.402 3.432 17.358C4.23867 15.466 5.25067 13.4787 6.468 11.396C6.57067 11.2933 6.82 11.242 7.216 11.242C7.612 11.242 7.81 11.3373 7.81 11.528L6.776 13.222C6.32133 13.97 5.91067 14.6887 5.544 15.378C5.192 16.0527 4.86933 16.698 4.576 17.314L8.206 17.138C8.734 17.1233 9.49667 17.0353 10.494 16.874C11.0953 15.7007 11.7333 14.5787 12.408 13.508C13.0973 12.4227 13.5227 11.88 13.684 11.88C13.86 11.88 14.0433 11.924 14.234 12.012C14.4393 12.0853 14.542 12.166 14.542 12.254C14.3807 12.474 14.212 12.7087 14.036 12.958C13.86 13.2073 13.6473 13.5007 13.398 13.838C11.198 16.7567 10.098 18.942 10.098 20.394C10.098 21.054 10.362 21.384 10.89 21.384L11.638 21.274C11.682 21.274 11.704 21.2887 11.704 21.318C11.704 21.3913 11.572 21.472 11.308 21.56C11.0587 21.6627 10.8533 21.714 10.692 21.714C10.3547 21.714 10.076 21.5673 9.856 21.274C9.65067 20.9807 9.548 20.614 9.548 20.174C9.548 19.3087 9.79733 18.37 10.296 17.358C7.92 17.93 5.874 18.216 4.158 18.216C3.08733 20.548 2.552 22.308 2.552 23.496C2.552 23.8627 2.58867 24.1193 2.662 24.266C2.73533 24.4273 2.78667 24.5227 2.816 24.552C2.86 24.5813 2.82333 24.596 2.706 24.596ZM13.8573 22C12.6693 22 12.0753 21.3767 12.0753 20.13C12.0753 19.6313 12.1853 19.1033 12.4053 18.546C12.6399 17.974 12.9259 17.512 13.2633 17.16C13.1019 16.8813 13.0213 16.5367 13.0213 16.126C13.0213 15.7007 13.1973 15.3193 13.5493 14.982C13.9013 14.63 14.3339 14.454 14.8473 14.454C15.8006 14.454 16.4459 14.9527 16.7833 15.95C17.4726 16.082 17.8173 16.2433 17.8173 16.434C17.8173 16.654 17.7439 16.764 17.5973 16.764L17.0473 16.676C17.0619 16.8227 17.0693 16.9547 17.0693 17.072C17.0839 17.1893 17.0913 17.292 17.0913 17.38C17.0913 18.5827 16.7833 19.6607 16.1673 20.614C15.5513 21.538 14.7813 22 13.8573 22ZM13.5713 16.962C14.5686 16.214 15.2579 15.84 15.6393 15.84H15.7053C15.4999 15.3267 15.1186 15.07 14.5613 15.07C14.3119 15.07 14.1066 15.158 13.9453 15.334C13.7839 15.4953 13.6666 15.6933 13.5933 15.928C13.5199 16.1627 13.4832 16.3753 13.4832 16.566C13.4832 16.742 13.5126 16.874 13.5713 16.962ZM13.8353 21.736C14.4366 21.736 15.0013 21.2667 15.5293 20.328C16.0573 19.3747 16.3213 18.4653 16.3213 17.6C16.3213 17.2187 16.2553 16.9107 16.1233 16.676C15.5806 16.764 14.9866 17.1087 14.3413 17.71C14.4879 17.8127 14.6053 17.864 14.6933 17.864C14.7813 17.8493 14.8326 17.842 14.8473 17.842C14.9206 17.842 14.9573 17.8787 14.9573 17.952C14.9573 18.0693 14.8619 18.128 14.6713 18.128C14.5099 18.128 14.3266 18.0767 14.1213 17.974C13.3439 18.8833 12.9553 19.7413 12.9553 20.548C12.9553 21.34 13.2486 21.736 13.8353 21.736ZM18.7536 22.748C18.035 22.748 17.4483 22.3887 16.9936 21.67C16.9496 21.5967 16.9496 21.538 16.9936 21.494C17.463 21.8313 17.9103 22 18.3356 22C19.3183 22 20.235 21.406 21.0856 20.218C21.9656 19.0007 22.4056 17.8127 22.4056 16.654C22.4056 16.1993 22.2516 15.972 21.9436 15.972C21.2983 15.972 20.5503 16.6173 19.6996 17.908C18.8343 19.1987 18.4016 20.2107 18.4016 20.944C18.4016 21.076 18.453 21.252 18.5556 21.472C18.5556 21.5453 18.497 21.5673 18.3796 21.538C18.277 21.5087 18.1743 21.4207 18.0716 21.274C17.969 21.1127 17.9176 20.9 17.9176 20.636C17.9176 20.2547 17.9983 19.7413 18.1596 19.096C18.3356 18.4507 18.607 17.7027 18.9736 16.852L20.5796 13.156C20.917 12.2467 21.0856 11.6087 21.0856 11.242C21.0856 10.934 20.9536 10.78 20.6896 10.78L19.9196 10.934C19.817 10.934 19.7656 10.89 19.7656 10.802C19.7656 10.582 20.037 10.472 20.5796 10.472C21.137 10.472 21.5623 10.5673 21.8556 10.758C22.1636 10.9487 22.3176 11.22 22.3176 11.572C22.3176 11.9093 22.0316 12.6427 21.4596 13.772L20.3156 16.016C20.7703 15.6933 21.3056 15.532 21.9216 15.532C22.9336 15.532 23.4396 16.0233 23.4396 17.006C23.4396 18.1353 22.897 19.3747 21.8116 20.724C20.7263 22.0733 19.707 22.748 18.7536 22.748ZM25.2634 22.748C24.5447 22.748 23.9581 22.3887 23.5034 21.67C23.4594 21.5967 23.4594 21.538 23.5034 21.494C23.9727 21.8313 24.4201 22 24.8454 22C25.8281 22 26.7447 21.406 27.5954 20.218C28.4754 19.0007 28.9154 17.8127 28.9154 16.654C28.9154 16.1993 28.7614 15.972 28.4534 15.972C27.8081 15.972 27.0601 16.6173 26.2094 17.908C25.3441 19.1987 24.9114 20.2107 24.9114 20.944C24.9114 21.076 24.9627 21.252 25.0654 21.472C25.0654 21.5453 25.0067 21.5673 24.8894 21.538C24.7867 21.5087 24.6841 21.4207 24.5814 21.274C24.4787 21.1127 24.4274 20.9 24.4274 20.636C24.4274 20.2547 24.5081 19.7413 24.6694 19.096C24.8454 18.4507 25.1167 17.7027 25.4834 16.852L27.0894 13.156C27.4267 12.2467 27.5954 11.6087 27.5954 11.242C27.5954 10.934 27.4634 10.78 27.1994 10.78L26.4294 10.934C26.3267 10.934 26.2754 10.89 26.2754 10.802C26.2754 10.582 26.5467 10.472 27.0894 10.472C27.6467 10.472 28.0721 10.5673 28.3654 10.758C28.6734 10.9487 28.8274 11.22 28.8274 11.572C28.8274 11.9093 28.5414 12.6427 27.9694 13.772L26.8254 16.016C27.2801 15.6933 27.8154 15.532 28.4314 15.532C29.4434 15.532 29.9494 16.0233 29.9494 17.006C29.9494 18.1353 29.4067 19.3747 28.3214 20.724C27.2361 22.0733 26.2167 22.748 25.2634 22.748ZM27.4612 31.812C26.4932 31.812 26.0092 31.3353 26.0092 30.382C26.0092 29.238 26.8378 27.7347 28.4952 25.872C30.2258 23.9213 32.1105 22.3667 34.1492 21.208C34.1638 21.208 34.1712 21.2153 34.1712 21.23C34.1712 21.3033 34.0905 21.428 33.9292 21.604C28.9718 25.7253 26.4932 28.7027 26.4932 30.536C26.4932 31.24 26.7718 31.592 27.3292 31.592C28.2972 31.592 29.4485 30.668 30.7832 28.82C31.4872 27.852 32.1252 26.8473 32.6972 25.806C33.2692 24.7647 33.7825 23.6793 34.2372 22.55C34.7212 21.3767 35.0805 20.3427 35.3152 19.448C35.5645 18.5533 35.6892 17.7467 35.6892 17.028C35.6892 16.5147 35.6012 16.1627 35.4252 15.972C33.4745 18.0107 32.1105 19.7267 31.3332 21.12C31.0985 21.736 30.8785 22.044 30.6732 22.044C30.2332 22.044 30.0132 21.912 30.0132 21.648C30.0132 21.56 30.0865 21.3033 30.2332 20.878C30.3945 20.438 30.6145 19.8293 30.8932 19.052L31.5092 17.358C31.7292 16.7567 31.8392 16.17 31.8392 15.598V15.51C31.8392 15.334 31.8172 15.2387 31.7732 15.224C31.7438 15.1947 31.6485 15.18 31.4872 15.18C31.3405 15.18 31.2672 15.1433 31.2672 15.07C31.2672 14.938 31.3845 14.872 31.6192 14.872C32.5578 14.872 33.0272 15.224 33.0272 15.928C33.0272 16.2653 32.5872 17.512 31.7072 19.668C32.2058 18.964 32.9465 18.0913 33.9292 17.05C34.9265 15.994 35.5425 15.466 35.7772 15.466C35.7772 15.5833 35.7185 15.7007 35.6012 15.818C36.2612 15.8767 36.6132 16.0233 36.6572 16.258C36.6865 16.4487 36.7085 16.6247 36.7232 16.786C36.7378 16.9473 36.7452 17.0867 36.7452 17.204C36.7452 18.612 36.2612 20.4747 35.2932 22.792C34.2225 25.3147 32.9245 27.4487 31.3992 29.194C29.8738 30.9393 28.5612 31.812 27.4612 31.812ZM40.0807 14.322C39.7581 14.322 39.4941 14.234 39.2887 14.058C39.5674 13.8673 39.8607 13.618 40.1687 13.31C40.4914 13.002 40.8214 12.6353 41.1587 12.21C41.1881 12.21 41.2027 12.2467 41.2027 12.32L41.0927 12.958C41.0194 13.4127 40.8874 13.7573 40.6967 13.992C40.5061 14.212 40.3007 14.322 40.0807 14.322ZM37.9687 22.33C37.4114 22.33 37.1327 21.9267 37.1327 21.12C37.1327 19.9027 37.5727 18.2967 38.4527 16.302C38.4527 16.2433 38.4894 16.1333 38.5627 15.972C38.6507 15.8107 38.7167 15.708 38.7607 15.664C38.8634 15.5613 39.0027 15.51 39.1787 15.51C39.6921 15.51 39.9707 15.6127 40.0147 15.818C39.7801 16.1993 39.5527 16.6393 39.3327 17.138C39.1274 17.6367 38.9221 18.1867 38.7167 18.788C38.4967 19.4333 38.3354 19.9687 38.2327 20.394C38.1447 20.8047 38.1007 21.1347 38.1007 21.384C38.1007 21.7507 38.1961 21.934 38.3867 21.934C38.5187 21.934 38.6874 21.8533 38.8927 21.692C39.0541 21.56 39.1641 21.4647 39.2227 21.406C39.2961 21.3473 39.3621 21.296 39.4207 21.252C39.4794 21.252 39.5087 21.2813 39.5087 21.34C39.5087 21.5013 39.2961 21.7067 38.8707 21.956C38.4454 22.2053 38.1447 22.33 37.9687 22.33ZM41.1955 22.506C40.8288 22.506 40.5062 22.44 40.2275 22.308C39.9635 22.176 39.8315 22.0513 39.8315 21.934C41.5182 21.582 42.3615 21.1567 42.3615 20.658C42.3615 20.5553 42.1635 20.328 41.7675 19.976C41.0048 19.3013 40.6235 18.546 40.6235 17.71C40.6235 17.1087 40.9975 16.5147 41.7455 15.928C42.5228 15.312 43.2268 15.004 43.8575 15.004C43.9602 15.004 44.1655 15.158 44.4735 15.466C44.7815 15.774 44.9355 15.972 44.9355 16.06C44.9355 16.1333 44.8988 16.17 44.8255 16.17C44.6642 16.1407 44.5322 16.1187 44.4295 16.104C44.3268 16.0747 44.2535 16.06 44.2095 16.06C43.5495 16.06 42.8675 16.302 42.1635 16.786C41.4742 17.27 41.1295 17.7613 41.1295 18.26C41.1295 18.348 41.4742 18.7953 42.1635 19.602C42.8528 20.3793 43.1975 20.9147 43.1975 21.208C43.1975 21.5013 42.9922 21.7873 42.5815 22.066C42.3615 22.2127 42.1268 22.3227 41.8775 22.396C41.6428 22.4693 41.4155 22.506 41.1955 22.506ZM45.4003 22.418C44.7549 22.418 44.4323 22.0733 44.4323 21.384C44.4323 20.768 44.6376 19.9613 45.0483 18.964C45.2096 18.5827 45.3709 18.2013 45.5323 17.82C45.6936 17.4387 45.8769 17.006 46.0823 16.522C45.5836 16.3313 45.3343 16.0453 45.3343 15.664C45.3343 15.5467 45.3636 15.466 45.4223 15.422C45.6423 15.5247 45.9796 15.598 46.4343 15.642C46.9183 14.5567 47.1603 13.8673 47.1603 13.574C47.1603 13.2513 47.1016 13.09 46.9843 13.09L46.5443 13.2C46.5003 13.2 46.4783 13.178 46.4783 13.134C46.4783 13.0167 46.5663 12.9287 46.7423 12.87C46.9183 12.7967 47.0503 12.76 47.1383 12.76C47.7836 12.76 48.1063 13.1267 48.1063 13.86C48.1063 14.2853 47.9743 14.8427 47.7103 15.532C47.7689 15.5907 48.0329 15.62 48.5023 15.62C48.9863 15.62 49.3529 15.5687 49.6023 15.466C49.8369 15.3487 50.0056 15.29 50.1083 15.29C50.1523 15.29 50.1743 15.3047 50.1743 15.334C50.1743 15.378 50.1376 15.4367 50.0643 15.51C49.7563 15.774 49.3896 16.0013 48.9643 16.192C48.5536 16.3827 48.0769 16.5147 47.5343 16.588H47.4683C47.4536 16.588 47.4316 16.5953 47.4023 16.61C47.3729 16.61 47.3143 16.6247 47.2263 16.654C45.8916 19.3087 45.2243 20.9953 45.2243 21.714C45.2243 21.9487 45.3123 22.066 45.4883 22.066L46.1043 21.934L46.1263 21.956C46.1263 22.264 45.8843 22.418 45.4003 22.418ZM56.2775 23.496C55.8669 23.496 55.6615 23.166 55.6615 22.506C55.6615 21.23 56.1675 19.5947 57.1795 17.6C57.6929 16.6027 58.2722 15.6273 58.9175 14.674C59.5629 13.706 60.2669 12.7747 61.0295 11.88V11.858C57.4802 12.1367 54.7302 12.9873 52.7795 14.41C52.7942 14.3953 52.7795 14.4027 52.7355 14.432C52.7062 14.4467 52.6769 14.454 52.6475 14.454C52.4129 14.454 52.2955 14.2707 52.2955 13.904C52.2955 13.5373 52.5962 13.2073 53.1975 12.914C55.7055 11.7113 58.4335 11.11 61.3815 11.11C63.2442 11.11 64.7035 11.3813 65.7595 11.924C66.8155 12.4667 67.3435 13.2293 67.3435 14.212C67.3435 15.1947 66.6322 16.0893 65.2095 16.896C63.8162 17.7027 62.3789 18.106 60.8975 18.106C60.1202 18.106 59.3135 17.9593 58.4775 17.666C57.9935 18.3553 57.5169 19.3013 57.0475 20.504C56.5635 21.7067 56.3215 22.5867 56.3215 23.144L56.3655 23.408C56.3655 23.4667 56.3362 23.496 56.2775 23.496ZM59.7535 17.49C60.1349 17.49 60.5749 17.4533 61.0735 17.38C61.5722 17.292 62.1442 17.1453 62.7895 16.94C63.3469 16.7493 63.8749 16.5293 64.3735 16.28C64.8722 16.016 65.3049 15.7447 65.6715 15.466C66.4782 14.85 66.8815 14.2487 66.8815 13.662C66.8815 12.4593 65.0555 11.858 61.4035 11.858C61.7849 12.1073 61.9755 12.2393 61.9755 12.254C59.7315 15.3927 58.6095 17.094 58.6095 17.358C58.7269 17.3873 58.8809 17.4167 59.0715 17.446C59.2769 17.4753 59.5042 17.49 59.7535 17.49ZM66.6395 22.814C66.5515 22.814 66.4709 22.7773 66.3975 22.704C65.6202 21.8827 65.2315 21.4353 65.2315 21.362C65.2315 21.274 65.2755 21.23 65.3635 21.23H65.4075C65.8035 20.9807 66.1335 20.7607 66.3975 20.57C66.5295 20.0713 66.7055 19.4993 66.9255 18.854C67.1602 18.2087 67.4242 17.5487 67.7175 16.874L68.9715 13.992C69.2502 13.3467 69.4629 12.7967 69.6095 12.342C69.7709 11.8727 69.8515 11.4913 69.8515 11.198C69.8515 10.8753 69.7122 10.714 69.4335 10.714L68.6635 10.868C68.5902 10.868 68.5535 10.824 68.5535 10.736C68.5535 10.516 68.8322 10.406 69.3895 10.406C69.9469 10.406 70.3649 10.5087 70.6435 10.714C70.9222 10.9047 71.0615 11.1687 71.0615 11.506C71.0615 11.814 70.7315 12.6427 70.0715 13.992L68.7735 16.654L67.4755 19.646C68.0769 19.118 68.6709 18.502 69.2575 17.798C69.8589 17.0793 70.3062 16.5073 70.5995 16.082C70.9075 15.642 71.0835 15.422 71.1275 15.422H71.2375C71.7655 15.422 72.0295 15.5173 72.0295 15.708C72.0295 15.6933 72.0222 15.6933 72.0075 15.708C72.0075 15.708 72.0149 15.7153 72.0295 15.73V15.708C72.0149 15.6787 71.9782 15.7227 71.9195 15.84C71.7142 16.2067 71.5162 16.6173 71.3255 17.072C71.1495 17.5267 70.9809 18.018 70.8195 18.546C70.4969 19.5727 70.3355 20.262 70.3355 20.614C70.3355 21.5087 70.4895 21.956 70.7975 21.956C70.9002 21.956 71.1129 21.8167 71.4355 21.538C71.4795 21.538 71.5015 21.5967 71.5015 21.714C71.5015 22.0953 71.2889 22.286 70.8635 22.286C70.4529 22.286 70.1155 22.0733 69.8515 21.648C69.5875 21.2227 69.4555 20.7313 69.4555 20.174C69.4555 19.5727 69.5949 18.898 69.8735 18.15C69.4042 18.634 68.9349 19.0813 68.4655 19.492C68.0109 19.888 67.5709 20.2547 67.1455 20.592C66.8522 21.428 66.7055 21.9927 66.7055 22.286V22.396C66.8375 22.484 66.9035 22.5573 66.9035 22.616C66.9035 22.748 66.8155 22.814 66.6395 22.814ZM66.2215 22.132C66.2215 22.1027 66.2142 22.0587 66.1995 22C66.1995 21.956 66.1995 21.9047 66.1995 21.846C66.1995 21.6993 66.2215 21.4867 66.2655 21.208C66.1042 21.296 65.9722 21.362 65.8695 21.406C65.7669 21.45 65.7009 21.4793 65.6715 21.494C65.7449 21.5967 65.8255 21.7067 65.9135 21.824C66.0015 21.9267 66.1042 22.0293 66.2215 22.132ZM73.5838 22C72.3958 22 71.8018 21.3767 71.8018 20.13C71.8018 19.6313 71.9118 19.1033 72.1318 18.546C72.3665 17.974 72.6525 17.512 72.9898 17.16C72.8285 16.8813 72.7478 16.5367 72.7478 16.126C72.7478 15.7007 72.9238 15.3193 73.2758 14.982C73.6278 14.63 74.0605 14.454 74.5738 14.454C75.5271 14.454 76.1725 14.9527 76.5098 15.95C77.1991 16.082 77.5438 16.2433 77.5438 16.434C77.5438 16.654 77.4705 16.764 77.3238 16.764L76.7738 16.676C76.7885 16.8227 76.7958 16.9547 76.7958 17.072C76.8105 17.1893 76.8178 17.292 76.8178 17.38C76.8178 18.5827 76.5098 19.6607 75.8938 20.614C75.2778 21.538 74.5078 22 73.5838 22ZM73.2978 16.962C74.2951 16.214 74.9845 15.84 75.3658 15.84H75.4318C75.2265 15.3267 74.8451 15.07 74.2878 15.07C74.0385 15.07 73.8331 15.158 73.6718 15.334C73.5105 15.4953 73.3931 15.6933 73.3198 15.928C73.2465 16.1627 73.2098 16.3753 73.2098 16.566C73.2098 16.742 73.2391 16.874 73.2978 16.962ZM73.5618 21.736C74.1631 21.736 74.7278 21.2667 75.2558 20.328C75.7838 19.3747 76.0478 18.4653 76.0478 17.6C76.0478 17.2187 75.9818 16.9107 75.8498 16.676C75.3071 16.764 74.7131 17.1087 74.0678 17.71C74.2145 17.8127 74.3318 17.864 74.4198 17.864C74.5078 17.8493 74.5591 17.842 74.5738 17.842C74.6471 17.842 74.6838 17.8787 74.6838 17.952C74.6838 18.0693 74.5885 18.128 74.3978 18.128C74.2365 18.128 74.0531 18.0767 73.8478 17.974C73.0705 18.8833 72.6818 19.7413 72.6818 20.548C72.6818 21.34 72.9751 21.736 73.5618 21.736ZM77.9706 22.418C77.3252 22.418 77.0026 22.0733 77.0026 21.384C77.0026 20.768 77.2079 19.9613 77.6186 18.964C77.7799 18.5827 77.9412 18.2013 78.1026 17.82C78.2639 17.4387 78.4472 17.006 78.6526 16.522C78.1539 16.3313 77.9046 16.0453 77.9046 15.664C77.9046 15.5467 77.9339 15.466 77.9926 15.422C78.2126 15.5247 78.5499 15.598 79.0046 15.642C79.4886 14.5567 79.7306 13.8673 79.7306 13.574C79.7306 13.2513 79.6719 13.09 79.5546 13.09L79.1146 13.2C79.0706 13.2 79.0486 13.178 79.0486 13.134C79.0486 13.0167 79.1366 12.9287 79.3126 12.87C79.4886 12.7967 79.6206 12.76 79.7086 12.76C80.3539 12.76 80.6766 13.1267 80.6766 13.86C80.6766 14.2853 80.5446 14.8427 80.2806 15.532C80.3392 15.5907 80.6032 15.62 81.0726 15.62C81.5566 15.62 81.9232 15.5687 82.1726 15.466C82.4072 15.3487 82.5759 15.29 82.6786 15.29C82.7226 15.29 82.7446 15.3047 82.7446 15.334C82.7446 15.378 82.7079 15.4367 82.6346 15.51C82.3266 15.774 81.9599 16.0013 81.5346 16.192C81.1239 16.3827 80.6472 16.5147 80.1046 16.588H80.0386C80.0239 16.588 80.0019 16.5953 79.9726 16.61C79.9432 16.61 79.8846 16.6247 79.7966 16.654C78.4619 19.3087 77.7946 20.9953 77.7946 21.714C77.7946 21.9487 77.8826 22.066 78.0586 22.066L78.6746 21.934L78.6966 21.956C78.6966 22.264 78.4546 22.418 77.9706 22.418ZM83.2303 22C82.0423 22 81.4483 21.3767 81.4483 20.13C81.4483 19.6313 81.5583 19.1033 81.7783 18.546C82.013 17.974 82.299 17.512 82.6363 17.16C82.475 16.8813 82.3943 16.5367 82.3943 16.126C82.3943 15.7007 82.5703 15.3193 82.9223 14.982C83.2743 14.63 83.707 14.454 84.2203 14.454C85.1736 14.454 85.819 14.9527 86.1563 15.95C86.8456 16.082 87.1903 16.2433 87.1903 16.434C87.1903 16.654 87.117 16.764 86.9703 16.764L86.4203 16.676C86.435 16.8227 86.4423 16.9547 86.4423 17.072C86.457 17.1893 86.4643 17.292 86.4643 17.38C86.4643 18.5827 86.1563 19.6607 85.5403 20.614C84.9243 21.538 84.1543 22 83.2303 22ZM82.9443 16.962C83.9416 16.214 84.631 15.84 85.0123 15.84H85.0783C84.873 15.3267 84.4916 15.07 83.9343 15.07C83.685 15.07 83.4796 15.158 83.3183 15.334C83.157 15.4953 83.0396 15.6933 82.9663 15.928C82.893 16.1627 82.8563 16.3753 82.8563 16.566C82.8563 16.742 82.8856 16.874 82.9443 16.962ZM83.2083 21.736C83.8096 21.736 84.3743 21.2667 84.9023 20.328C85.4303 19.3747 85.6943 18.4653 85.6943 17.6C85.6943 17.2187 85.6283 16.9107 85.4963 16.676C84.9536 16.764 84.3596 17.1087 83.7143 17.71C83.861 17.8127 83.9783 17.864 84.0663 17.864C84.1543 17.8493 84.2056 17.842 84.2203 17.842C84.2936 17.842 84.3303 17.8787 84.3303 17.952C84.3303 18.0693 84.235 18.128 84.0443 18.128C83.883 18.128 83.6996 18.0767 83.4943 17.974C82.717 18.8833 82.3283 19.7413 82.3283 20.548C82.3283 21.34 82.6216 21.736 83.2083 21.736ZM81.1864 32.054C80.1597 32.054 79.309 31.768 78.6344 31.196C77.945 30.624 77.6004 29.832 77.6004 28.82C77.6004 27.8227 78.165 26.818 79.2944 25.806C80.409 24.8233 81.8097 24.0313 83.4964 23.43C85.1244 22.8433 86.7524 22.55 88.3804 22.55C89.1284 22.55 89.7664 22.616 90.2944 22.748C90.353 22.5867 90.3824 22.4253 90.3824 22.264C90.3824 21.7653 90.3237 21.4133 90.2064 21.208C89.6344 21.736 89.1137 22 88.6444 22C88.175 22 87.7644 21.7727 87.4124 21.318C87.0604 20.8487 86.8844 20.3647 86.8844 19.866C86.8844 18.8393 87.449 17.776 88.5784 16.676C88.5784 15.8253 88.6664 15.2607 88.8424 14.982C89.0477 14.6887 89.3924 14.542 89.8764 14.542C90.4044 14.542 90.9617 15.026 91.5484 15.994C92.6044 16.1847 93.1324 16.5733 93.1324 17.16C93.1324 17.3947 93.0444 17.578 92.8684 17.71C92.707 17.8273 92.6264 17.82 92.6264 17.688C92.773 17.5853 92.8464 17.468 92.8464 17.336C92.8464 16.896 92.4944 16.676 91.7904 16.676C91.805 16.7347 91.8124 16.8007 91.8124 16.874C91.8124 16.9473 91.8124 17.0353 91.8124 17.138C91.8124 18.546 91.387 19.7853 90.5364 20.856C90.7564 21.2667 90.8664 21.8167 90.8664 22.506C90.8664 22.5793 90.8664 22.6453 90.8664 22.704C90.8664 22.7773 90.859 22.8507 90.8444 22.924C91.4457 23.1587 91.9444 23.4813 92.3404 23.892C92.751 24.288 92.9564 24.662 92.9564 25.014C92.9564 25.3807 92.8684 25.564 92.6924 25.564C92.6484 25.564 92.6117 25.52 92.5824 25.432C92.6997 25.2707 92.7584 25.1167 92.7584 24.97C92.7584 24.662 92.5604 24.354 92.1644 24.046C91.7684 23.738 91.3357 23.5107 90.8664 23.364C90.6904 24.8453 90.1257 26.268 89.1724 27.632C88.219 28.9813 87.031 30.052 85.6084 30.844C84.1857 31.6507 82.7117 32.054 81.1864 32.054ZM88.9744 16.368C89.4437 16.0453 89.8984 15.884 90.3384 15.884H90.5144C90.3237 15.4 90.0157 15.158 89.5904 15.158C89.1797 15.158 88.9744 15.554 88.9744 16.346V16.368ZM90.2944 20.328C90.8224 19.5507 91.0864 18.7073 91.0864 17.798C91.0864 17.3873 91.0204 17.0207 90.8884 16.698C90.639 16.786 90.2797 16.9547 89.8104 17.204C89.3557 17.4387 89.1284 17.6073 89.1284 17.71C89.1284 17.8127 89.517 18.6853 90.2944 20.328ZM88.6224 21.736C89.1357 21.736 89.6197 21.3767 90.0744 20.658L88.9304 17.93C88.6224 18.238 88.3437 18.656 88.0944 19.184C87.8597 19.712 87.7424 20.1813 87.7424 20.592C87.7424 21.3547 88.0357 21.736 88.6224 21.736ZM80.7904 31.13C81.8317 31.13 82.851 30.932 83.8484 30.536C84.831 30.14 85.7917 29.5313 86.7304 28.71C88.549 27.0967 89.7077 25.2707 90.2064 23.232C90.0304 23.2027 89.8177 23.1733 89.5684 23.144C89.3337 23.1293 89.0624 23.122 88.7544 23.122C87.361 23.122 85.9897 23.298 84.6404 23.65C83.291 24.0167 82.1397 24.4787 81.1864 25.036C80.2184 25.5933 79.4484 26.1947 78.8764 26.84C78.583 27.1627 78.363 27.5 78.2164 27.852C78.0697 28.204 77.9964 28.5413 77.9964 28.864C77.9964 29.4947 78.2457 30.03 78.7444 30.47C79.2284 30.91 79.9104 31.13 80.7904 31.13ZM93.0531 22.044C92.9211 22.044 92.7745 22.0073 92.6131 21.934C92.4518 21.8607 92.3711 21.7727 92.3711 21.67C92.3711 21.4207 92.6131 20.5407 93.0971 19.03C93.5811 17.5047 93.8231 16.3607 93.8231 15.598C93.8231 15.3633 93.7205 15.2313 93.5151 15.202C93.3098 15.1727 93.2071 15.1287 93.2071 15.07C93.2071 14.938 93.3171 14.872 93.5371 14.872C94.5198 14.872 95.0111 15.2753 95.0111 16.082C95.0111 16.3167 94.7691 17.182 94.2851 18.678C95.0771 17.3873 95.9571 16.5 96.9251 16.016C97.1745 15.488 97.5191 15.224 97.9591 15.224C98.3845 15.224 98.6191 15.2607 98.6631 15.334C98.6485 15.3193 98.6191 15.3413 98.5751 15.4C98.5311 15.4587 98.4798 15.5247 98.4211 15.598C98.1865 15.9353 97.9811 16.2653 97.8051 16.588C97.6291 16.896 97.5338 17.138 97.5191 17.314C97.5191 17.71 97.6585 17.952 97.9371 18.04C97.9665 18.0547 97.9958 18.062 98.0251 18.062C98.0691 18.062 98.0911 18.0767 98.0911 18.106C98.0911 18.2233 97.9445 18.282 97.6511 18.282C97.3725 18.282 97.1305 18.172 96.9251 17.952C96.8078 17.82 96.7271 17.6807 96.6831 17.534C96.6391 17.3727 96.6171 17.2187 96.6171 17.072C96.6171 16.8373 96.6538 16.6247 96.7271 16.434C96.3605 16.7127 96.0305 17.006 95.7371 17.314C95.4438 17.6073 95.1725 17.9007 94.9231 18.194C94.4538 18.7953 94.1238 19.3307 93.9331 19.8C93.7571 20.2547 93.6325 20.6433 93.5591 20.966C93.4711 21.318 93.3978 21.5893 93.3391 21.78C93.2805 21.956 93.1851 22.044 93.0531 22.044ZM98.6007 22.176C98.3074 22.176 98.0361 22.044 97.7867 21.78C97.5521 21.5013 97.4347 21.1493 97.4347 20.724C97.4347 20.2987 97.6914 19.6387 98.2047 18.744C98.7181 17.864 99.3487 17.072 100.097 16.368C100.83 15.6787 101.461 15.334 101.989 15.334H102.209C102.751 15.334 103.213 15.444 103.595 15.664C103.976 15.8693 104.167 16.148 104.167 16.5C104.167 16.6613 104.101 16.742 103.969 16.742C103.925 16.742 103.903 16.72 103.903 16.676C103.668 16.1333 103.309 15.862 102.825 15.862C101.989 15.862 101.035 16.5513 99.9647 17.93C98.8941 19.2793 98.3587 20.3207 98.3587 21.054C98.3587 21.3327 98.4321 21.472 98.5787 21.472C99.2387 21.472 100.625 19.9833 102.737 17.006C102.722 17.0207 102.729 17.0207 102.759 17.006C102.803 16.9767 102.839 16.962 102.869 16.962C102.942 16.962 103.096 17.0353 103.331 17.182C103.565 17.314 103.683 17.4313 103.683 17.534C103.683 17.534 103.653 17.5853 103.595 17.688C103.536 17.776 103.463 17.9153 103.375 18.106C103.14 18.6047 102.957 19.096 102.825 19.58C102.707 20.0493 102.649 20.46 102.649 20.812C102.649 21.5893 102.839 21.978 103.221 21.978L103.441 21.934L103.485 21.956C103.485 22.088 103.301 22.154 102.935 22.154C102.583 22.154 102.289 21.9927 102.055 21.67C101.835 21.3327 101.725 20.8853 101.725 20.328C101.725 19.7853 101.82 19.184 102.011 18.524C101.996 18.568 101.945 18.6487 101.857 18.766C101.769 18.8833 101.629 19.0887 101.439 19.382C100.236 21.2447 99.2901 22.176 98.6007 22.176ZM104.359 27.214C104.169 27.214 103.963 27.082 103.743 26.818C103.509 26.554 103.391 26.2827 103.391 26.004C103.391 24.8013 103.846 23.1 104.755 20.9C104.609 20.6213 104.535 20.4307 104.535 20.328C104.535 20.2253 104.557 20.174 104.601 20.174L104.645 20.196C104.689 20.4013 104.763 20.5553 104.865 20.658C106.2 17.5487 106.867 15.8767 106.867 15.642C106.867 15.4073 106.713 15.29 106.405 15.29L105.657 15.466C105.569 15.466 105.525 15.4147 105.525 15.312C105.525 15.0773 105.848 14.96 106.493 14.96C107.505 14.96 108.011 15.3047 108.011 15.994C108.011 16.1993 107.799 16.7933 107.373 17.776C108.503 16.2067 109.507 15.422 110.387 15.422C111.091 15.422 111.443 15.8253 111.443 16.632C111.443 17.7027 110.915 18.8687 109.859 20.13C108.818 21.3913 107.806 22.022 106.823 22.022C106.325 22.022 105.899 21.912 105.547 21.692C104.609 23.7453 104.139 25.3293 104.139 26.444C104.139 26.796 104.271 26.972 104.535 26.972L105.217 26.73C105.247 26.73 105.261 26.7447 105.261 26.774C105.261 26.8767 105.159 26.972 104.953 27.06C104.748 27.1627 104.55 27.214 104.359 27.214ZM106.515 21.472C107.381 21.472 108.239 20.9 109.089 19.756C109.969 18.612 110.409 17.534 110.409 16.522C110.409 16.1407 110.285 15.95 110.035 15.95C109.551 15.95 108.891 16.434 108.055 17.402C107.249 18.3553 106.457 19.668 105.679 21.34V21.362C105.782 21.3913 105.899 21.4207 106.031 21.45C106.163 21.4647 106.325 21.472 106.515 21.472ZM111.628 22.814C111.54 22.814 111.459 22.7773 111.386 22.704C110.608 21.8827 110.22 21.4353 110.22 21.362C110.22 21.274 110.264 21.23 110.352 21.23H110.396C110.792 20.9807 111.122 20.7607 111.386 20.57C111.518 20.0713 111.694 19.4993 111.914 18.854C112.148 18.2087 112.412 17.5487 112.706 16.874L113.96 13.992C114.238 13.3467 114.451 12.7967 114.598 12.342C114.759 11.8727 114.84 11.4913 114.84 11.198C114.84 10.8753 114.7 10.714 114.422 10.714L113.652 10.868C113.578 10.868 113.542 10.824 113.542 10.736C113.542 10.516 113.82 10.406 114.378 10.406C114.935 10.406 115.353 10.5087 115.632 10.714C115.91 10.9047 116.05 11.1687 116.05 11.506C116.05 11.814 115.72 12.6427 115.06 13.992L113.762 16.654L112.464 19.646C113.065 19.118 113.659 18.502 114.246 17.798C114.847 17.0793 115.294 16.5073 115.588 16.082C115.896 15.642 116.072 15.422 116.116 15.422H116.226C116.754 15.422 117.018 15.5173 117.018 15.708C117.018 15.6933 117.01 15.6933 116.996 15.708C116.996 15.708 117.003 15.7153 117.018 15.73V15.708C117.003 15.6787 116.966 15.7227 116.908 15.84C116.702 16.2067 116.504 16.6173 116.314 17.072C116.138 17.5267 115.969 18.018 115.808 18.546C115.485 19.5727 115.324 20.262 115.324 20.614C115.324 21.5087 115.478 21.956 115.786 21.956C115.888 21.956 116.101 21.8167 116.424 21.538C116.468 21.538 116.49 21.5967 116.49 21.714C116.49 22.0953 116.277 22.286 115.852 22.286C115.441 22.286 115.104 22.0733 114.84 21.648C114.576 21.2227 114.444 20.7313 114.444 20.174C114.444 19.5727 114.583 18.898 114.862 18.15C114.392 18.634 113.923 19.0813 113.454 19.492C112.999 19.888 112.559 20.2547 112.134 20.592C111.84 21.428 111.694 21.9927 111.694 22.286V22.396C111.826 22.484 111.892 22.5573 111.892 22.616C111.892 22.748 111.804 22.814 111.628 22.814ZM111.21 22.132C111.21 22.1027 111.202 22.0587 111.188 22C111.188 21.956 111.188 21.9047 111.188 21.846C111.188 21.6993 111.21 21.4867 111.254 21.208C111.092 21.296 110.96 21.362 110.858 21.406C110.755 21.45 110.689 21.4793 110.66 21.494C110.733 21.5967 110.814 21.7067 110.902 21.824C110.99 21.9267 111.092 22.0293 111.21 22.132ZM118.742 22.242C117.496 22.242 116.872 21.6627 116.872 20.504C116.872 19.6093 117.312 18.524 118.192 17.248C119.102 15.972 119.967 15.334 120.788 15.334C121.14 15.334 121.448 15.4513 121.712 15.686C121.991 15.906 122.13 16.1773 122.13 16.5C122.13 17.0427 121.786 17.5927 121.096 18.15C120.422 18.6927 119.754 18.964 119.094 18.964C118.962 18.964 118.896 18.9347 118.896 18.876L118.962 18.766C120.649 18.238 121.492 17.3727 121.492 16.17C121.492 15.994 121.434 15.906 121.316 15.906C121.155 15.906 120.862 16.0747 120.436 16.412C120.07 16.7053 119.725 17.0427 119.402 17.424C119.094 17.8053 118.816 18.2013 118.566 18.612C118.038 19.5067 117.774 20.2547 117.774 20.856C117.774 21.4427 118.002 21.736 118.456 21.736C118.984 21.736 119.564 21.4647 120.194 20.922C120.4 20.7313 120.62 20.5187 120.854 20.284C121.089 20.0347 121.346 19.7633 121.624 19.47C122.167 18.8833 122.453 18.59 122.482 18.59C122.57 18.59 122.614 18.6267 122.614 18.7C122.614 18.7587 122.6 18.8173 122.57 18.876C121.03 21.12 119.754 22.242 118.742 22.242ZM123.217 22.044C123.085 22.044 122.939 22.0073 122.777 21.934C122.616 21.8607 122.535 21.7727 122.535 21.67C122.535 21.4207 122.777 20.5407 123.261 19.03C123.745 17.5047 123.987 16.3607 123.987 15.598C123.987 15.3633 123.885 15.2313 123.679 15.202C123.474 15.1727 123.371 15.1287 123.371 15.07C123.371 14.938 123.481 14.872 123.701 14.872C124.684 14.872 125.175 15.2753 125.175 16.082C125.175 16.3167 124.933 17.182 124.449 18.678C125.241 17.3873 126.121 16.5 127.089 16.016C127.339 15.488 127.683 15.224 128.123 15.224C128.549 15.224 128.783 15.2607 128.827 15.334C128.813 15.3193 128.783 15.3413 128.739 15.4C128.695 15.4587 128.644 15.5247 128.585 15.598C128.351 15.9353 128.145 16.2653 127.969 16.588C127.793 16.896 127.698 17.138 127.683 17.314C127.683 17.71 127.823 17.952 128.101 18.04C128.131 18.0547 128.16 18.062 128.189 18.062C128.233 18.062 128.255 18.0767 128.255 18.106C128.255 18.2233 128.109 18.282 127.815 18.282C127.537 18.282 127.295 18.172 127.089 17.952C126.972 17.82 126.891 17.6807 126.847 17.534C126.803 17.3727 126.781 17.2187 126.781 17.072C126.781 16.8373 126.818 16.6247 126.891 16.434C126.525 16.7127 126.195 17.006 125.901 17.314C125.608 17.6073 125.337 17.9007 125.087 18.194C124.618 18.7953 124.288 19.3307 124.097 19.8C123.921 20.2547 123.797 20.6433 123.723 20.966C123.635 21.318 123.562 21.5893 123.503 21.78C123.445 21.956 123.349 22.044 123.217 22.044ZM132.397 21.291C132.397 21.5632 132.304 21.7923 132.118 21.9785C131.939 22.1576 131.714 22.2471 131.441 22.2471C131.312 22.2471 131.191 22.222 131.076 22.1719C130.969 22.1217 130.872 22.0537 130.786 21.9678C130.707 21.8818 130.643 21.7816 130.593 21.667C130.543 21.5524 130.518 21.4271 130.518 21.291C130.518 21.1621 130.543 21.0439 130.593 20.9365C130.643 20.8219 130.707 20.7253 130.786 20.6465C130.872 20.5605 130.969 20.4925 131.076 20.4424C131.191 20.3923 131.312 20.3672 131.441 20.3672C131.577 20.3672 131.703 20.3923 131.817 20.4424C131.932 20.4925 132.032 20.5605 132.118 20.6465C132.204 20.7253 132.272 20.8219 132.322 20.9365C132.372 21.0439 132.397 21.1621 132.397 21.291Z" fill="#212121"/>
</svg>
