<svg width="143" height="19" viewBox="0 0 143 19" fill="none" xmlns="http://www.w3.org/2000/svg">
    <path d="M9.92578 12.2754C9.92578 12.248 9.92578 12.2025 9.92578 12.1387C9.92578 12.0749 9.92122 12.0111 9.91211 11.9473C9.91211 11.8743 9.91211 11.806 9.91211 11.7422C9.91211 11.6693 9.91211 11.6191 9.91211 11.5918C9.91211 10.9629 9.95768 10.334 10.0488 9.70508C10.1491 9.07617 10.222 8.43815 10.2676 7.79102C10.304 7.13477 10.3314 6.47852 10.3496 5.82227C10.377 5.1569 10.3906 4.49154 10.3906 3.82617C10.3906 3.68945 10.3906 3.51628 10.3906 3.30664C10.3997 3.09701 10.3861 2.89648 10.3496 2.70508C10.3132 2.50456 10.2402 2.33594 10.1309 2.19922C10.0306 2.0625 9.87109 1.99414 9.65234 1.99414C9.26042 1.99414 8.90951 2.07161 8.59961 2.22656C8.29883 2.3724 8.02539 2.56836 7.7793 2.81445C7.5332 3.06055 7.3099 3.3431 7.10938 3.66211C6.91797 3.98112 6.74023 4.30469 6.57617 4.63281C6.41211 4.96094 6.25716 5.28451 6.11133 5.60352C5.96549 5.92253 5.8151 6.20964 5.66016 6.46484L5.26367 8.61133V8.66602C5.24544 8.73893 5.22266 8.84375 5.19531 8.98047C5.16797 9.10807 5.14062 9.23568 5.11328 9.36328C5.08594 9.49089 5.05859 9.60482 5.03125 9.70508C5.00391 9.80534 4.99023 9.86003 4.99023 9.86914C4.98112 9.9056 4.9401 10.0241 4.86719 10.2246C4.80339 10.416 4.72591 10.6302 4.63477 10.8672C4.55273 11.1042 4.4707 11.3457 4.38867 11.5918C4.30664 11.8288 4.24284 12.0065 4.19727 12.125C4.13346 12.2891 4.06055 12.3893 3.97852 12.4258C3.89648 12.4531 3.77799 12.4668 3.62305 12.4668C3.55013 12.4668 3.48177 12.4622 3.41797 12.4531C3.35417 12.4349 3.32227 12.3802 3.32227 12.2891C3.32227 11.7786 3.38151 11.291 3.5 10.8262C3.6276 10.3522 3.77344 9.89193 3.9375 9.44531C4.10156 8.98958 4.26562 8.53385 4.42969 8.07812C4.59375 7.6224 4.71224 7.15299 4.78516 6.66992L5.38672 3.12891V1.76172L2.7207 3.12891C2.48372 3.25651 2.20573 3.35677 1.88672 3.42969C1.57682 3.5026 1.29427 3.53906 1.03906 3.53906C0.802083 3.53906 0.624349 3.5026 0.505859 3.42969C0.38737 3.34766 0.328125 3.18359 0.328125 2.9375C0.328125 2.81901 0.364583 2.73242 0.4375 2.67773C0.510417 2.62305 0.597005 2.5957 0.697266 2.5957C0.770182 2.5957 0.82487 2.60938 0.861328 2.63672C0.906901 2.66406 0.947917 2.69596 0.984375 2.73242C1.02083 2.76888 1.05729 2.80078 1.09375 2.82812C1.13932 2.85547 1.19857 2.86914 1.27148 2.86914C1.57227 2.86914 1.8776 2.81901 2.1875 2.71875C2.4974 2.61849 2.79818 2.49544 3.08984 2.34961C3.39062 2.19466 3.68229 2.03516 3.96484 1.87109C4.2474 1.69792 4.52083 1.53841 4.78516 1.39258C4.91276 1.32878 5.03581 1.26042 5.1543 1.1875C5.2819 1.10547 5.41862 1.06445 5.56445 1.06445C5.70117 1.06445 5.8151 1.11003 5.90625 1.20117C5.9974 1.29232 6.07031 1.40625 6.125 1.54297C6.17969 1.67057 6.21615 1.80729 6.23438 1.95312C6.2526 2.08984 6.26172 2.20833 6.26172 2.30859V2.33594C6.2526 2.3724 6.23893 2.45898 6.2207 2.5957C6.20247 2.73242 6.17969 2.87826 6.15234 3.0332C6.13411 3.18815 6.11589 3.33854 6.09766 3.48438C6.07943 3.62109 6.07031 3.70312 6.07031 3.73047C6.07031 3.73958 6.06576 3.77148 6.05664 3.82617C6.05664 3.88086 6.05664 3.91732 6.05664 3.93555C6.05664 3.95378 6.05664 3.98568 6.05664 4.03125C6.06576 4.07682 6.07031 4.10872 6.07031 4.12695C6.2526 3.7806 6.47135 3.4388 6.72656 3.10156C6.98177 2.75521 7.26432 2.44531 7.57422 2.17188C7.89323 1.89844 8.23958 1.67969 8.61328 1.51562C8.99609 1.34245 9.40169 1.25586 9.83008 1.25586C10.1491 1.25586 10.4043 1.35612 10.5957 1.55664C10.7871 1.74805 10.9284 1.98047 11.0195 2.25391C11.1198 2.52734 11.1836 2.81901 11.2109 3.12891C11.2383 3.42969 11.252 3.69401 11.252 3.92188C11.252 4.5599 11.2246 5.19792 11.1699 5.83594C11.1152 6.47396 11.0514 7.11198 10.9785 7.75C10.9147 8.37891 10.8555 9.01237 10.8008 9.65039C10.7461 10.2884 10.7188 10.9219 10.7188 11.5508C10.7188 11.6237 10.7142 11.7285 10.7051 11.8652C10.7051 12.002 10.737 12.1159 10.8008 12.207H10.8281H10.8691C10.8874 12.1979 10.9238 12.1888 10.9785 12.1797C11.0423 12.1615 11.1016 12.1478 11.1562 12.1387C11.2201 12.1204 11.2793 12.1068 11.334 12.0977C11.3978 12.0885 11.4434 12.0794 11.4707 12.0703C11.5254 12.0339 11.6302 11.9701 11.7852 11.8789C11.9492 11.7786 12.1178 11.6784 12.291 11.5781C12.4733 11.4688 12.6419 11.3685 12.7969 11.2773C12.9518 11.1771 13.0612 11.1087 13.125 11.0723C13.1979 11.0176 13.2936 10.9264 13.4121 10.7988C13.5306 10.6712 13.6536 10.5254 13.7812 10.3613C13.918 10.1973 14.0547 10.0286 14.1914 9.85547C14.3281 9.67318 14.4512 9.50911 14.5605 9.36328C14.679 9.20833 14.7839 9.08529 14.875 8.99414C14.9661 8.90299 15.0299 8.85742 15.0664 8.85742C15.1484 8.85742 15.2031 8.88932 15.2305 8.95312C15.2578 9.00781 15.2715 9.06706 15.2715 9.13086C15.2715 9.39518 15.1803 9.67318 14.998 9.96484C14.8249 10.2565 14.5924 10.5436 14.3008 10.8262C14.0182 11.1087 13.6992 11.3822 13.3438 11.6465C12.9883 11.9108 12.6328 12.1432 12.2773 12.3438C11.9219 12.5443 11.5801 12.7038 11.252 12.8223C10.9329 12.9408 10.6686 13 10.459 13C10.377 13 10.304 12.9727 10.2402 12.918C10.1764 12.8633 10.1217 12.7995 10.0762 12.7266C10.0397 12.6536 10.0078 12.5762 9.98047 12.4941C9.95312 12.4121 9.9349 12.3392 9.92578 12.2754ZM18.8535 11.4688L19.5234 3.4707L19.6055 3.34766L16.1328 3.07422C16.0508 3.0651 15.9688 3.03776 15.8867 2.99219C15.8138 2.9375 15.7773 2.86458 15.7773 2.77344C15.7773 2.70964 15.7865 2.66406 15.8047 2.63672C15.832 2.60026 15.8776 2.5638 15.9414 2.52734H16.5293C17.7507 2.52734 18.972 2.55469 20.1934 2.60938C21.4238 2.65495 22.6497 2.69596 23.8711 2.73242C23.9258 2.77799 23.9714 2.83268 24.0078 2.89648C24.0534 2.95117 24.0762 3.01042 24.0762 3.07422C24.0762 3.13802 24.0352 3.21094 23.9531 3.29297C23.8802 3.36589 23.8118 3.40234 23.748 3.40234H20.2344C20.2344 3.88542 20.2025 4.35026 20.1387 4.79688C20.0749 5.23438 20.0247 5.69922 19.9883 6.19141C19.9792 6.26432 19.9701 6.41927 19.9609 6.65625C19.9518 6.88411 19.9382 7.15299 19.9199 7.46289C19.9017 7.76367 19.8835 8.08724 19.8652 8.43359C19.847 8.77995 19.8288 9.10807 19.8105 9.41797C19.7923 9.71875 19.7741 9.98763 19.7559 10.2246C19.7376 10.4525 19.7285 10.6029 19.7285 10.6758C19.7194 10.7487 19.7194 10.8581 19.7285 11.0039C19.7467 11.1497 19.7604 11.3047 19.7695 11.4688C19.7786 11.6328 19.7741 11.806 19.7559 11.9883C19.7467 12.1615 19.7194 12.3255 19.6738 12.4805C19.6374 12.6263 19.5736 12.7448 19.4824 12.8359C19.3913 12.918 19.2728 12.959 19.127 12.959C19.1087 12.959 19.0723 12.959 19.0176 12.959C18.972 12.9499 18.9447 12.9453 18.9355 12.9453L18.8535 12.8086V11.4688ZM27.4531 12.0703C27.4531 11.8607 27.4668 11.651 27.4941 11.4414C27.5215 11.2227 27.5488 11.0085 27.5762 10.7988C27.6126 10.5892 27.64 10.3796 27.6582 10.1699C27.6764 9.95117 27.6719 9.73698 27.6445 9.52734L28.0137 6.91602L26.8652 8.46094L23.9258 11.3457C23.8346 11.4824 23.7526 11.6055 23.6797 11.7148C23.6159 11.8242 23.4974 11.8789 23.3242 11.8789C23.2057 11.8789 23.1328 11.8516 23.1055 11.7969C23.0781 11.7422 23.0645 11.6602 23.0645 11.5508C23.0645 11.4049 23.0872 11.2865 23.1328 11.1953C23.1875 11.0951 23.2741 10.9857 23.3926 10.8672L26.4551 7.92773L27.5898 6.39648C27.6263 6.32357 27.6673 6.23698 27.7129 6.13672C27.7676 6.03646 27.8268 5.94076 27.8906 5.84961C27.9544 5.74935 28.0137 5.66276 28.0684 5.58984C28.123 5.50781 28.1641 5.44857 28.1914 5.41211C28.3464 4.87435 28.5332 4.33659 28.752 3.79883C28.9707 3.25195 29.2305 2.74154 29.5312 2.26758C29.5859 2.16732 29.6816 2.11719 29.8184 2.11719C29.9004 2.11719 29.9824 2.13997 30.0645 2.18555C30.1556 2.23112 30.2012 2.29948 30.2012 2.39062C30.2012 2.39974 30.1966 2.41341 30.1875 2.43164C30.1875 2.44987 30.1875 2.46354 30.1875 2.47266C30.1875 2.48177 30.1784 2.52279 30.1602 2.5957C30.1419 2.66862 30.1283 2.71419 30.1191 2.73242C30.0007 2.9694 29.873 3.24284 29.7363 3.55273C29.6087 3.85352 29.4857 4.16797 29.3672 4.49609C29.2487 4.82422 29.1439 5.15234 29.0527 5.48047C28.9616 5.80859 28.9023 6.11393 28.875 6.39648L28.2598 11.3457V12.207C28.3418 12.1706 28.4785 12.1022 28.6699 12.002C28.8613 11.8926 29.0618 11.7786 29.2715 11.6602C29.4902 11.5326 29.6908 11.4141 29.873 11.3047C30.0553 11.1953 30.1829 11.1178 30.2559 11.0723C30.3197 11.0176 30.4382 10.9264 30.6113 10.7988C30.7845 10.6712 30.9668 10.5345 31.1582 10.3887C31.3496 10.2337 31.5273 10.0879 31.6914 9.95117C31.8646 9.81445 31.9922 9.71875 32.0742 9.66406C32.0924 9.63672 32.1517 9.57747 32.252 9.48633C32.3522 9.38607 32.4616 9.27214 32.5801 9.14453C32.6986 9.00781 32.8125 8.88021 32.9219 8.76172C33.0404 8.63411 33.1315 8.53385 33.1953 8.46094C33.2956 8.35156 33.4004 8.22852 33.5098 8.0918C33.6191 7.95508 33.7194 7.80924 33.8105 7.6543C33.9108 7.49023 33.9974 7.33073 34.0703 7.17578C34.1523 7.02083 34.2161 6.875 34.2617 6.73828L35.5195 2.0625C35.5286 2.01693 35.5469 1.95312 35.5742 1.87109C35.6107 1.78906 35.6471 1.70703 35.6836 1.625C35.7292 1.54297 35.7793 1.47461 35.834 1.41992C35.8978 1.36523 35.9707 1.33789 36.0527 1.33789C36.1712 1.33789 36.2578 1.39258 36.3125 1.50195C36.3763 1.60221 36.4082 1.69792 36.4082 1.78906C36.4082 1.81641 36.4036 1.85742 36.3945 1.91211C36.3854 1.95768 36.3809 1.98503 36.3809 1.99414L35.916 4.40039V4.46875L34.9863 7.06641L34.5898 10.4707C34.5807 10.4889 34.5762 10.5117 34.5762 10.5391V10.6621C34.5762 10.8535 34.5807 11.0358 34.5898 11.209C34.599 11.3822 34.6309 11.5326 34.6855 11.6602C34.7402 11.7786 34.8223 11.8789 34.9316 11.9609C35.0501 12.043 35.2142 12.084 35.4238 12.084C36.1074 11.61 36.6497 11.291 37.0508 11.127C37.4609 10.9538 37.748 10.8854 37.9121 10.9219C38.0853 10.9492 38.14 11.0495 38.0762 11.2227C38.0215 11.3867 37.8711 11.5736 37.625 11.7832C37.3789 11.9928 37.0462 12.1979 36.627 12.3984C36.2168 12.599 35.7428 12.7402 35.2051 12.8223C34.9225 12.8223 34.6901 12.763 34.5078 12.6445C34.3255 12.526 34.1797 12.3711 34.0703 12.1797C33.9701 11.9883 33.8971 11.7741 33.8516 11.5371C33.8151 11.291 33.7969 11.0449 33.7969 10.7988C33.7969 10.4616 33.8151 10.1289 33.8516 9.80078C33.8971 9.47266 33.9199 9.13997 33.9199 8.80273V8.61133C33.9199 8.61133 33.9108 8.62044 33.8926 8.63867C33.8743 8.64779 33.8607 8.6569 33.8516 8.66602C33.6875 8.86654 33.5326 9.05794 33.3867 9.24023C33.25 9.41341 33.0996 9.58659 32.9355 9.75977C32.7806 9.92383 32.612 10.0879 32.4297 10.252C32.2474 10.416 32.0332 10.5755 31.7871 10.7305L28.5879 12.8086C28.4967 12.8724 28.3874 12.9225 28.2598 12.959C28.1322 12.9954 28.0091 13.0137 27.8906 13.0137C27.7904 13.0137 27.6992 12.9818 27.6172 12.918C27.5443 12.8542 27.4896 12.7721 27.4531 12.6719V12.0703ZM33.9883 8.39258C33.9518 8.39258 33.9336 8.41992 33.9336 8.47461C33.9336 8.52018 33.9518 8.54297 33.9883 8.54297C34.0247 8.54297 34.043 8.52018 34.043 8.47461C34.043 8.41992 34.0247 8.39258 33.9883 8.39258ZM40.291 15.502C40.528 15.028 40.7376 14.5404 40.9199 14.0391C41.1113 13.5378 41.207 13.0137 41.207 12.4668C41.207 12.3757 41.1934 12.2663 41.166 12.1387C41.1478 12.0111 41.1113 11.888 41.0566 11.7695C41.002 11.6419 40.929 11.5326 40.8379 11.4414C40.7559 11.3503 40.651 11.3047 40.5234 11.3047C40.3503 11.3047 40.209 11.3867 40.0996 11.5508C39.9902 11.7148 39.89 11.8971 39.7988 12.0977C39.7077 12.2982 39.6211 12.4805 39.5391 12.6445C39.457 12.8086 39.3659 12.8906 39.2656 12.8906H38.2402C38.2311 12.8906 38.2083 12.8724 38.1719 12.8359C38.1354 12.7904 38.0944 12.7448 38.0488 12.6992C38.0124 12.6445 37.9805 12.5944 37.9531 12.5488C37.9258 12.4941 37.9121 12.4577 37.9121 12.4395C37.9577 12.2025 38.0716 11.9837 38.2539 11.7832C38.4362 11.5736 38.6504 11.3913 38.8965 11.2363C39.1426 11.0723 39.4023 10.9492 39.6758 10.8672C39.9492 10.776 40.1908 10.7305 40.4004 10.7305C40.6283 10.7305 40.8333 10.7715 41.0156 10.8535C41.207 10.9355 41.3665 11.0495 41.4941 11.1953C41.6217 11.3411 41.7174 11.5143 41.7812 11.7148C41.8542 11.9062 41.8906 12.1159 41.8906 12.3438C41.8906 12.6901 41.8359 13.0365 41.7266 13.3828C41.6172 13.7292 41.4805 14.0573 41.3164 14.3672C41.2617 14.4674 41.1888 14.5905 41.0977 14.7363C41.0156 14.8913 40.929 15.0417 40.8379 15.1875C40.7559 15.3333 40.6829 15.4564 40.6191 15.5566C40.5645 15.666 40.5326 15.7207 40.5234 15.7207H40.291V15.502ZM48.9043 7.64062C48.8132 7.14844 48.8268 6.63346 48.9453 6.0957C49.0729 5.54883 49.2734 5.00651 49.5469 4.46875C49.8203 3.93099 50.1576 3.41602 50.5586 2.92383C50.9596 2.42253 51.388 1.97135 51.8438 1.57031C52.3086 1.16927 52.7917 0.832031 53.293 0.558594C53.8034 0.285156 54.3001 0.0983073 54.7832 -0.00195312C54.929 -0.00195312 55.0566 0.0436198 55.166 0.134766C55.2845 0.225911 55.3848 0.339844 55.4668 0.476562C55.5488 0.613281 55.6081 0.759115 55.6445 0.914062C55.6901 1.06901 55.7129 1.21029 55.7129 1.33789V2.66406C55.7129 2.75521 55.6764 2.81445 55.6035 2.8418C55.5306 2.86003 55.4668 2.86914 55.4121 2.86914C55.3483 2.86914 55.2708 2.86003 55.1797 2.8418C55.0885 2.82357 55.043 2.76432 55.043 2.66406C55.043 2.6276 55.0384 2.56836 55.0293 2.48633C55.0202 2.4043 55.0111 2.31315 55.002 2.21289C54.9928 2.11263 54.9837 2.01693 54.9746 1.92578C54.9746 1.83464 54.9746 1.77539 54.9746 1.74805C54.9746 1.72982 54.9701 1.67057 54.9609 1.57031C54.9609 1.46094 54.9518 1.35156 54.9336 1.24219C54.9154 1.13281 54.888 1.03255 54.8516 0.941406C54.8151 0.85026 54.7695 0.804688 54.7148 0.804688H54.2363C54.2363 0.804688 54.1953 0.827474 54.1133 0.873047C54.0312 0.909505 53.9355 0.955078 53.8262 1.00977C53.7168 1.06445 53.6074 1.1237 53.498 1.1875C53.3887 1.24219 53.3066 1.29232 53.252 1.33789C53.2246 1.35612 53.179 1.38802 53.1152 1.43359C53.0605 1.47917 53.0013 1.52474 52.9375 1.57031C52.8737 1.61589 52.8145 1.66146 52.7598 1.70703C52.7051 1.7526 52.6641 1.78451 52.6367 1.80273C52.1445 2.27669 51.7161 2.71875 51.3516 3.12891C50.987 3.52995 50.6816 3.94922 50.4355 4.38672C50.1895 4.82422 50.0026 5.29818 49.875 5.80859C49.7565 6.3099 49.6973 6.9069 49.6973 7.59961C49.6973 7.87305 49.7109 8.17839 49.7383 8.51562C49.7747 8.84375 49.8249 9.18099 49.8887 9.52734C49.9616 9.8737 50.0618 10.2155 50.1895 10.5527C50.3171 10.8809 50.4766 11.1725 50.668 11.4277C50.8594 11.6829 51.0918 11.888 51.3652 12.043C51.6387 12.1979 51.9622 12.2754 52.3359 12.2754H52.6367C53.0469 12.1387 53.4069 12.0156 53.7168 11.9062C54.0358 11.7878 54.3184 11.6693 54.5645 11.5508C54.8197 11.4323 55.0475 11.3047 55.248 11.168C55.4577 11.0221 55.6582 10.849 55.8496 10.6484C56.0501 10.4479 56.2552 10.2064 56.4648 9.92383C56.6745 9.64128 56.9115 9.30859 57.1758 8.92578C57.1849 8.92578 57.1986 8.92578 57.2168 8.92578C57.235 8.91667 57.2533 8.91211 57.2715 8.91211C57.4355 8.91211 57.5176 8.99414 57.5176 9.1582C57.5176 9.36784 57.4629 9.60482 57.3535 9.86914C57.2533 10.1243 57.0618 10.4069 56.7793 10.7168C56.5059 11.0267 56.1185 11.3548 55.6172 11.7012C55.125 12.0384 54.4915 12.3802 53.7168 12.7266C53.571 12.7904 53.4434 12.8451 53.334 12.8906C53.2246 12.9271 53.1198 12.9544 53.0195 12.9727C52.9193 12.9909 52.8145 13 52.7051 13C52.6048 13.0091 52.4909 13.0137 52.3633 13.0137C51.8893 13.0137 51.4746 12.9316 51.1191 12.7676C50.7728 12.6035 50.472 12.3848 50.2168 12.1113C49.9616 11.8288 49.7474 11.5098 49.5742 11.1543C49.4102 10.7897 49.278 10.4069 49.1777 10.0059C49.0775 9.5957 49.0046 9.1901 48.959 8.78906C48.9225 8.37891 48.9043 7.99609 48.9043 7.64062ZM57.2441 10.5254C57.2441 10.5254 57.2487 10.5208 57.2578 10.5117C57.276 10.4935 57.2897 10.4798 57.2988 10.4707C57.3171 10.3887 57.3535 10.2474 57.4082 10.0469C57.4629 9.84635 57.5221 9.63216 57.5859 9.4043C57.6497 9.16732 57.709 8.94857 57.7637 8.74805C57.8275 8.54753 57.873 8.41081 57.9004 8.33789C57.9095 8.30143 57.9368 8.22396 57.9824 8.10547C58.0371 7.97786 58.0964 7.84115 58.1602 7.69531C58.224 7.54948 58.2878 7.40365 58.3516 7.25781C58.4154 7.11198 58.4609 7.0026 58.4883 6.92969C58.5521 6.80208 58.6478 6.63346 58.7754 6.42383C58.9121 6.21419 59.0625 6.01823 59.2266 5.83594C59.3997 5.64453 59.5775 5.48047 59.7598 5.34375C59.9421 5.19792 60.1107 5.125 60.2656 5.125C60.3477 5.125 60.4115 5.14779 60.457 5.19336C60.5117 5.23893 60.5482 5.29362 60.5664 5.35742C60.5938 5.41211 60.612 5.47591 60.6211 5.54883C60.6302 5.62174 60.6348 5.68555 60.6348 5.74023C60.6348 6.21419 60.5664 6.68815 60.4297 7.16211C60.3021 7.62695 60.1243 8.07357 59.8965 8.50195C59.6686 8.93034 59.3952 9.33594 59.0762 9.71875C58.7663 10.0924 58.4382 10.4297 58.0918 10.7305C58.0827 10.7578 58.069 10.8125 58.0508 10.8945C58.0417 10.9766 58.0326 11.0358 58.0234 11.0723V11.0996C58.0234 11.2819 58.069 11.4277 58.1602 11.5371C58.2604 11.6465 58.3789 11.7285 58.5156 11.7832C58.6523 11.8288 58.8027 11.8607 58.9668 11.8789C59.14 11.8971 59.304 11.9062 59.459 11.9062C59.541 11.9062 59.6595 11.8652 59.8145 11.7832C59.9785 11.7012 60.1426 11.61 60.3066 11.5098C60.4798 11.4004 60.6484 11.3047 60.8125 11.2227C60.9766 11.1406 61.0996 11.0996 61.1816 11.0996C61.2637 11.0996 61.3275 11.127 61.373 11.1816C61.4186 11.2363 61.4414 11.3047 61.4414 11.3867C61.4414 11.5234 61.3366 11.6693 61.127 11.8242C60.9173 11.9792 60.6758 12.125 60.4023 12.2617C60.1289 12.3893 59.8646 12.4987 59.6094 12.5898C59.3633 12.681 59.1992 12.7266 59.1172 12.7266C58.8438 12.7812 58.5885 12.7858 58.3516 12.7402C58.1146 12.6855 57.9095 12.599 57.7363 12.4805C57.5632 12.3529 57.4173 12.2025 57.2988 12.0293C57.1895 11.847 57.1211 11.6602 57.0938 11.4688L57.2441 10.5254ZM59.8281 6.45117C59.7461 6.45117 59.6504 6.51953 59.541 6.65625C59.4408 6.78385 59.3405 6.93424 59.2402 7.10742C59.14 7.2806 59.0488 7.44922 58.9668 7.61328C58.8939 7.76823 58.8529 7.87305 58.8438 7.92773C58.8164 7.99154 58.7754 8.09635 58.7207 8.24219C58.666 8.38802 58.6113 8.54297 58.5566 8.70703C58.502 8.86198 58.4473 9.01237 58.3926 9.1582C58.347 9.30404 58.3151 9.40885 58.2969 9.47266H58.3652C58.3652 9.47266 58.3926 9.44076 58.4473 9.37695C58.502 9.30404 58.5612 9.22201 58.625 9.13086C58.6979 9.03971 58.7708 8.94857 58.8438 8.85742C58.9258 8.75716 58.985 8.67513 59.0215 8.61133C59.0579 8.55664 59.1081 8.47461 59.1719 8.36523C59.2357 8.24674 59.2767 8.17383 59.2949 8.14648C59.3314 8.04622 59.3815 7.91406 59.4453 7.75C59.5091 7.57682 59.5684 7.4082 59.623 7.24414C59.6777 7.08008 59.7233 6.9388 59.7598 6.82031C59.8053 6.69271 59.8281 6.61979 59.8281 6.60156V6.45117ZM61.2637 10.1289C61.2728 10.0833 61.3001 10.0013 61.3457 9.88281C61.3913 9.76432 61.4368 9.63672 61.4824 9.5C61.5371 9.36328 61.5872 9.23568 61.6328 9.11719C61.6784 8.9987 61.7103 8.91667 61.7285 8.87109C61.7832 8.72526 61.8333 8.62956 61.8789 8.58398C61.9336 8.53841 62.0293 8.51562 62.166 8.51562C62.3118 8.51562 62.4076 8.56576 62.4531 8.66602C62.4987 8.76628 62.5215 8.88477 62.5215 9.02148C62.5215 9.25846 62.485 9.47721 62.4121 9.67773C62.3483 9.86914 62.2754 10.0651 62.1934 10.2656C62.1113 10.457 62.0339 10.6667 61.9609 10.8945C61.8971 11.1133 61.8652 11.3685 61.8652 11.6602C61.8652 11.6966 61.8652 11.7513 61.8652 11.8242C61.8652 11.888 61.8698 11.9564 61.8789 12.0293C61.888 12.0931 61.9062 12.1523 61.9336 12.207C61.9609 12.2526 61.9974 12.2754 62.043 12.2754C62.2799 12.2754 62.5169 12.2298 62.7539 12.1387C63 12.0384 63.237 11.9245 63.4648 11.7969C63.7018 11.6602 63.9251 11.5143 64.1348 11.3594C64.3535 11.1953 64.5495 11.054 64.7227 10.9355C64.7865 10.89 64.832 10.8444 64.8594 10.7988C64.8958 10.7533 64.9277 10.7122 64.9551 10.6758C64.9824 10.6302 65.0143 10.5938 65.0508 10.5664C65.0964 10.5299 65.1647 10.5117 65.2559 10.5117C65.3743 10.5117 65.4701 10.5391 65.543 10.5938C65.625 10.6393 65.666 10.7259 65.666 10.8535C65.666 10.9082 65.6615 10.9583 65.6523 11.0039C65.6523 11.0495 65.6296 11.0905 65.584 11.127C65.5749 11.1543 65.5384 11.1908 65.4746 11.2363C65.4199 11.2819 65.3607 11.332 65.2969 11.3867C65.2331 11.4323 65.1738 11.4779 65.1191 11.5234C65.0645 11.5599 65.0234 11.5827 64.9961 11.5918C64.987 11.5918 64.9596 11.6055 64.9141 11.6328C64.8776 11.651 64.8548 11.6602 64.8457 11.6602C64.8366 11.6693 64.8229 11.6829 64.8047 11.7012C64.7956 11.7103 64.791 11.7194 64.791 11.7285C64.5996 11.8743 64.39 12.0247 64.1621 12.1797C63.9434 12.3255 63.7109 12.4622 63.4648 12.5898C63.2188 12.7083 62.9635 12.8086 62.6992 12.8906C62.444 12.9727 62.1888 13.0137 61.9336 13.0137C61.7148 13.0137 61.5462 12.959 61.4277 12.8496C61.3184 12.7311 61.2363 12.5853 61.1816 12.4121C61.127 12.2389 61.0951 12.0566 61.0859 11.8652C61.0768 11.6738 61.0723 11.5007 61.0723 11.3457L61.2637 10.1289ZM61.9199 6.5332C61.9199 6.36914 61.9518 6.25977 62.0156 6.20508C62.0794 6.15039 62.1934 6.12305 62.3574 6.12305C62.4395 6.12305 62.5215 6.14128 62.6035 6.17773C62.6855 6.20508 62.7266 6.27799 62.7266 6.39648C62.7266 6.51497 62.6673 6.62435 62.5488 6.72461C62.4395 6.82487 62.3301 6.875 62.2207 6.875C62.1113 6.875 62.0339 6.8431 61.9883 6.7793C61.9427 6.70638 61.9199 6.62435 61.9199 6.5332ZM65.666 17.4023C65.666 17.375 65.666 17.3294 65.666 17.2656C65.666 17.2109 65.666 17.1517 65.666 17.0879C65.666 17.0332 65.666 16.9831 65.666 16.9375C65.666 16.901 65.666 16.8783 65.666 16.8691L66.1445 12.5898C66.2083 12.2526 66.263 11.9883 66.3086 11.7969C66.3542 11.5964 66.3906 11.446 66.418 11.3457C66.4544 11.2363 66.4909 11.1634 66.5273 11.127L67.5254 7.92773C67.5618 7.81836 67.6302 7.66341 67.7305 7.46289C67.8307 7.25326 67.9447 7.04818 68.0723 6.84766C68.209 6.64714 68.3548 6.47852 68.5098 6.3418C68.6647 6.19596 68.8197 6.12305 68.9746 6.12305C69.0384 6.12305 69.0931 6.14583 69.1387 6.19141C69.1842 6.23698 69.2207 6.29167 69.248 6.35547C69.2845 6.41927 69.3073 6.48763 69.3164 6.56055C69.3346 6.63346 69.3438 6.69271 69.3438 6.73828C69.3438 7.15755 69.2845 7.58594 69.166 8.02344C69.0566 8.46094 68.9108 8.89388 68.7285 9.32227C68.5462 9.74154 68.3275 10.1426 68.0723 10.5254C67.8171 10.9082 67.5482 11.2454 67.2656 11.5371L67.0605 12.2754C68.0905 12.2572 69.0885 12.0885 70.0547 11.7695C71.0299 11.4505 71.9642 11.0586 72.8574 10.5938H72.9258C73.0078 10.5938 73.0625 10.6257 73.0898 10.6895C73.1263 10.7441 73.1445 10.8034 73.1445 10.8672C73.1445 10.9401 73.1309 11.0039 73.1035 11.0586C73.0762 11.1133 73.0169 11.1634 72.9258 11.209C72.2057 11.6556 71.4355 12.0202 70.6152 12.3027C69.7949 12.5853 68.9655 12.7995 68.127 12.9453C68.291 13.1276 68.4277 13.278 68.5371 13.3965C68.6465 13.515 68.7331 13.6335 68.7969 13.752C68.8698 13.8796 68.9199 14.0254 68.9473 14.1895C68.9837 14.3535 69.002 14.5768 69.002 14.8594C69.002 15.5703 68.8333 16.1901 68.4961 16.7188C68.168 17.2565 67.735 17.7533 67.1973 18.209C67.0697 18.3092 66.9102 18.4141 66.7188 18.5234C66.5365 18.6328 66.3587 18.6875 66.1855 18.6875C66.0306 18.6875 65.9167 18.6374 65.8438 18.5371C65.7708 18.4368 65.7207 18.3184 65.6934 18.1816C65.666 18.054 65.6569 17.9173 65.666 17.7715C65.666 17.6257 65.666 17.5026 65.666 17.4023ZM66.7871 13.5332C66.7507 13.8158 66.7096 14.1348 66.6641 14.4902C66.6185 14.8457 66.5775 15.2103 66.541 15.584C66.5046 15.9577 66.4727 16.3314 66.4453 16.7051C66.418 17.0788 66.4043 17.4297 66.4043 17.7578C66.6504 17.7578 66.8874 17.6484 67.1152 17.4297C67.3522 17.2201 67.5618 16.9603 67.7441 16.6504C67.9264 16.3496 68.0768 16.0397 68.1953 15.7207C68.3138 15.4017 68.3776 15.1374 68.3867 14.9277C68.4049 14.6725 68.3867 14.4538 68.332 14.2715C68.2865 14.0983 68.209 13.9479 68.0996 13.8203C67.9902 13.7018 67.849 13.6016 67.6758 13.5195C67.5026 13.4375 67.2975 13.3555 67.0605 13.2734H66.9922C66.9284 13.2734 66.8828 13.3008 66.8555 13.3555C66.8281 13.4102 66.8053 13.4694 66.7871 13.5332ZM68.4688 7.66797C68.4596 7.66797 68.4414 7.70443 68.4141 7.77734C68.3867 7.84115 68.3503 7.91406 68.3047 7.99609C68.2682 8.07812 68.2318 8.16471 68.1953 8.25586C68.168 8.34701 68.1452 8.41536 68.127 8.46094C68.0996 8.53385 68.0677 8.62956 68.0312 8.74805C67.9948 8.85742 67.9583 8.97135 67.9219 9.08984C67.8945 9.19922 67.8672 9.29948 67.8398 9.39062C67.8125 9.47266 67.7988 9.51823 67.7988 9.52734V9.60938C67.972 9.29948 68.1315 8.97591 68.2773 8.63867C68.4232 8.29232 68.5052 7.94596 68.5234 7.59961L68.4688 7.66797ZM73.0898 9.33594C73.1081 9.29948 73.1445 9.24479 73.1992 9.17188C73.2539 9.08984 73.2812 9.02148 73.2812 8.9668V8.92578C73.2812 8.91667 73.2721 8.90755 73.2539 8.89844C73.2357 8.88021 73.222 8.87109 73.2129 8.87109H72.9668C72.7298 8.94401 72.4655 8.99414 72.1738 9.02148C71.873 9.04883 71.5859 9.05794 71.3125 9.04883C71.0299 9.03971 70.7884 9.01693 70.5879 8.98047C70.3874 8.9349 70.2689 8.88477 70.2324 8.83008C70.196 8.77539 70.2643 8.71159 70.4375 8.63867C70.6107 8.55664 70.9388 8.47461 71.4219 8.39258C71.4492 8.39258 71.513 8.38346 71.6133 8.36523C71.7044 8.33789 71.8092 8.3151 71.9277 8.29688C72.0371 8.27865 72.1419 8.26042 72.2422 8.24219C72.3424 8.21484 72.4062 8.20117 72.4336 8.20117C72.4701 8.19206 72.5475 8.1875 72.666 8.1875C72.7845 8.17839 72.903 8.16927 73.0215 8.16016C73.1491 8.15104 73.2676 8.14648 73.377 8.14648C73.4954 8.14648 73.5775 8.14648 73.623 8.14648L73.6914 8.06445L74.7578 6.27344C74.7943 6.20964 74.8581 6.15951 74.9492 6.12305C75.0495 6.08659 75.127 6.06836 75.1816 6.06836C75.3001 6.06836 75.3822 6.11849 75.4277 6.21875C75.4733 6.3099 75.4961 6.40104 75.4961 6.49219C75.4961 6.5013 75.4915 6.51042 75.4824 6.51953C75.4824 6.52865 75.4824 6.53776 75.4824 6.54688V6.60156L74.8809 8.06445V8.14648C74.8991 8.0918 74.931 8.06445 74.9766 8.06445C75.0312 8.06445 75.0723 8.06445 75.0996 8.06445C75.2363 8.06445 75.3685 8.11003 75.4961 8.20117C75.6237 8.29232 75.6875 8.41536 75.6875 8.57031C75.6875 8.64323 75.6647 8.70247 75.6191 8.74805C75.5736 8.79362 75.5189 8.83008 75.4551 8.85742C75.3913 8.88477 75.3229 8.90755 75.25 8.92578C75.1771 8.9349 75.1133 8.93945 75.0586 8.93945C74.9492 8.93945 74.8444 8.92578 74.7441 8.89844C74.653 8.87109 74.5527 8.85742 74.4434 8.85742C74.3431 8.85742 74.252 8.91211 74.1699 9.02148C74.0879 9.12174 74.0104 9.25846 73.9375 9.43164C73.8737 9.5957 73.819 9.78255 73.7734 9.99219C73.7279 10.2018 73.6868 10.4069 73.6504 10.6074C73.6139 10.8079 73.5866 10.9948 73.5684 11.168C73.5592 11.3411 73.5547 11.4733 73.5547 11.5645C73.5547 11.6009 73.5547 11.6738 73.5547 11.7832C73.5638 11.8926 73.5684 11.9655 73.5684 12.002C73.5775 12.0566 73.6003 12.1068 73.6367 12.1523C73.6732 12.1888 73.7096 12.2298 73.7461 12.2754H74.0605C74.4251 12.2754 74.7852 12.1934 75.1406 12.0293C75.5052 11.8652 75.847 11.6784 76.166 11.4688C76.1842 11.4596 76.2253 11.4186 76.2891 11.3457C76.362 11.2637 76.4395 11.1862 76.5215 11.1133C76.6035 11.0312 76.6764 10.9583 76.7402 10.8945C76.8132 10.8307 76.8633 10.7988 76.8906 10.7988C76.9544 10.7988 77.0137 10.8307 77.0684 10.8945C77.123 10.9583 77.1504 11.0267 77.1504 11.0996C77.1504 11.2728 77.0866 11.4414 76.959 11.6055C76.8405 11.7695 76.6855 11.9245 76.4941 12.0703C76.3027 12.207 76.084 12.3346 75.8379 12.4531C75.5918 12.5716 75.3457 12.6719 75.0996 12.7539C74.8626 12.8359 74.6348 12.8997 74.416 12.9453C74.2064 12.9909 74.0332 13.0137 73.8965 13.0137C73.7689 13.0137 73.6367 13 73.5 12.9727C73.3633 12.9362 73.2402 12.8815 73.1309 12.8086C73.0215 12.7357 72.9303 12.6445 72.8574 12.5352C72.7845 12.4258 72.748 12.2891 72.748 12.125V10.6074L73.0898 9.33594ZM76.7402 11.9336C76.7402 11.9245 76.7448 11.8926 76.7539 11.8379C76.763 11.7832 76.7721 11.7285 76.7812 11.6738C76.7904 11.61 76.7995 11.5553 76.8086 11.5098C76.8177 11.4551 76.8223 11.4186 76.8223 11.4004V11.3457V11.2637L77.0137 10.4023C77.1686 10.0742 77.3281 9.75977 77.4922 9.45898C77.6654 9.1582 77.8613 8.89388 78.0801 8.66602C78.2988 8.43815 78.5495 8.25586 78.832 8.11914C79.1237 7.98242 79.4746 7.91406 79.8848 7.91406C79.9668 7.91406 80.0671 7.94141 80.1855 7.99609C80.3132 8.04167 80.4362 8.10091 80.5547 8.17383C80.6823 8.24674 80.7962 8.32422 80.8965 8.40625C81.0059 8.47917 81.0879 8.54753 81.1426 8.61133C81.4251 8.56576 81.6302 8.54297 81.7578 8.54297C81.8854 8.53385 81.9948 8.5293 82.0859 8.5293C82.1771 8.52018 82.2728 8.50195 82.373 8.47461C82.4824 8.44727 82.6465 8.38802 82.8652 8.29688C83.0202 8.2513 83.1706 8.22852 83.3164 8.22852C83.3802 8.22852 83.4395 8.25586 83.4941 8.31055C83.5579 8.36523 83.5898 8.42904 83.5898 8.50195C83.5898 8.5931 83.5579 8.67513 83.4941 8.74805C83.4303 8.82096 83.3529 8.86654 83.2617 8.88477L81.5527 9.26758L81.4023 9.33594C81.3932 9.82812 81.2839 10.2975 81.0742 10.7441C80.8646 11.1908 80.5866 11.5827 80.2402 11.9199C79.8939 12.2572 79.4928 12.526 79.0371 12.7266C78.5814 12.918 78.1074 13.0137 77.6152 13.0137C77.5788 13.0137 77.5195 13.0091 77.4375 13C77.3555 13 77.3008 13 77.2734 13C77.0729 12.918 76.9316 12.7676 76.8496 12.5488C76.7767 12.3301 76.7402 12.125 76.7402 11.9336ZM77.6152 12.207C77.6243 12.2526 77.6608 12.2754 77.7246 12.2754C77.7884 12.2754 77.834 12.2754 77.8613 12.2754C78.1895 12.2754 78.5267 12.1934 78.873 12.0293C79.2194 11.8561 79.5293 11.6374 79.8027 11.373C80.0853 11.0996 80.3132 10.7943 80.4863 10.457C80.6686 10.1107 80.7598 9.76432 80.7598 9.41797C80.4681 9.41797 80.1764 9.39518 79.8848 9.34961C79.5931 9.29492 79.3105 9.26758 79.0371 9.26758H79.0234L77.8887 10.4707C77.8249 10.5345 77.7747 10.6211 77.7383 10.7305C77.7018 10.8398 77.6745 10.9583 77.6562 11.0859C77.638 11.2135 77.6243 11.3411 77.6152 11.4688C77.6061 11.5964 77.6016 11.7103 77.6016 11.8105C77.6016 11.8379 77.6016 11.9017 77.6016 12.002C77.6016 12.1022 77.6061 12.1706 77.6152 12.207ZM83.2617 12.7266L83.7266 9.99219V9.60938L84 7.79102C84.0273 7.75456 84.0775 7.73633 84.1504 7.73633C84.2233 7.72721 84.2734 7.72266 84.3008 7.72266C84.3737 7.72266 84.4557 7.75 84.5469 7.80469C84.6471 7.85026 84.6973 7.91406 84.6973 7.99609V8.92578C84.7337 8.89844 84.7975 8.84375 84.8887 8.76172C84.9798 8.67969 85.0755 8.5931 85.1758 8.50195C85.2852 8.41081 85.3854 8.32422 85.4766 8.24219C85.5677 8.16016 85.627 8.10091 85.6543 8.06445C85.7546 7.97331 85.873 7.89583 86.0098 7.83203C86.1556 7.76823 86.2923 7.73633 86.4199 7.73633C86.6842 7.73633 86.8893 7.81836 87.0352 7.98242C87.1901 8.14648 87.2676 8.35612 87.2676 8.61133C87.2676 8.62956 87.263 8.64323 87.2539 8.65234C87.2539 8.65234 87.2539 8.66146 87.2539 8.67969V8.73438L86.7344 11.0723V12.1797C87.0169 12.1797 87.3086 12.125 87.6094 12.0156C87.9193 11.8971 88.2155 11.7513 88.498 11.5781C88.7806 11.4049 89.0449 11.209 89.291 10.9902C89.5371 10.7624 89.7513 10.5436 89.9336 10.334H89.9883C90.0521 10.334 90.1022 10.3568 90.1387 10.4023C90.1842 10.4388 90.207 10.4889 90.207 10.5527C90.207 10.7533 90.1387 10.9538 90.002 11.1543C89.8743 11.3457 89.7057 11.528 89.4961 11.7012C89.2956 11.8743 89.0586 12.0384 88.7852 12.1934C88.5208 12.3483 88.2565 12.4805 87.9922 12.5898C87.737 12.6992 87.4863 12.7858 87.2402 12.8496C86.9941 12.9134 86.7845 12.9453 86.6113 12.9453C86.4382 12.9453 86.3014 12.9134 86.2012 12.8496C86.1009 12.7858 86.0234 12.7038 85.9688 12.6035C85.9232 12.4941 85.8913 12.3757 85.873 12.248C85.8639 12.1204 85.8594 11.9837 85.8594 11.8379V11.6602L86.3926 9.00781V8.55664C86.1738 8.55664 85.9551 8.65234 85.7363 8.84375C85.5267 9.03516 85.3353 9.26758 85.1621 9.54102C84.998 9.81445 84.8522 10.0924 84.7246 10.375C84.6061 10.6576 84.5195 10.89 84.4648 11.0723C84.4466 11.1361 84.4193 11.25 84.3828 11.4141C84.3464 11.5781 84.3099 11.7513 84.2734 11.9336C84.2461 12.1159 84.2188 12.2891 84.1914 12.4531C84.1641 12.6172 84.1458 12.7357 84.1367 12.8086C84.1458 12.8633 84.1276 12.9043 84.082 12.9316C84.0456 12.959 84 12.9818 83.9453 13C83.8906 13.0091 83.8314 13.0137 83.7676 13.0137C83.7129 13.0137 83.6673 13.0137 83.6309 13.0137C83.5488 13.0137 83.4668 13 83.3848 12.9727C83.3027 12.9453 83.2617 12.877 83.2617 12.7676V12.7266ZM96.127 7.64062C96.0358 7.14844 96.0495 6.63346 96.168 6.0957C96.2956 5.54883 96.4961 5.00651 96.7695 4.46875C97.043 3.93099 97.3802 3.41602 97.7812 2.92383C98.1823 2.42253 98.6107 1.97135 99.0664 1.57031C99.5312 1.16927 100.014 0.832031 100.516 0.558594C101.026 0.285156 101.523 0.0983073 102.006 -0.00195312C102.152 -0.00195312 102.279 0.0436198 102.389 0.134766C102.507 0.225911 102.607 0.339844 102.689 0.476562C102.771 0.613281 102.831 0.759115 102.867 0.914062C102.913 1.06901 102.936 1.21029 102.936 1.33789V2.66406C102.936 2.75521 102.899 2.81445 102.826 2.8418C102.753 2.86003 102.689 2.86914 102.635 2.86914C102.571 2.86914 102.493 2.86003 102.402 2.8418C102.311 2.82357 102.266 2.76432 102.266 2.66406C102.266 2.6276 102.261 2.56836 102.252 2.48633C102.243 2.4043 102.234 2.31315 102.225 2.21289C102.215 2.11263 102.206 2.01693 102.197 1.92578C102.197 1.83464 102.197 1.77539 102.197 1.74805C102.197 1.72982 102.193 1.67057 102.184 1.57031C102.184 1.46094 102.174 1.35156 102.156 1.24219C102.138 1.13281 102.111 1.03255 102.074 0.941406C102.038 0.85026 101.992 0.804688 101.938 0.804688H101.459C101.459 0.804688 101.418 0.827474 101.336 0.873047C101.254 0.909505 101.158 0.955078 101.049 1.00977C100.939 1.06445 100.83 1.1237 100.721 1.1875C100.611 1.24219 100.529 1.29232 100.475 1.33789C100.447 1.35612 100.402 1.38802 100.338 1.43359C100.283 1.47917 100.224 1.52474 100.16 1.57031C100.096 1.61589 100.037 1.66146 99.9824 1.70703C99.9277 1.7526 99.8867 1.78451 99.8594 1.80273C99.3672 2.27669 98.9388 2.71875 98.5742 3.12891C98.2096 3.52995 97.9043 3.94922 97.6582 4.38672C97.4121 4.82422 97.2253 5.29818 97.0977 5.80859C96.9792 6.3099 96.9199 6.9069 96.9199 7.59961C96.9199 7.87305 96.9336 8.17839 96.9609 8.51562C96.9974 8.84375 97.0475 9.18099 97.1113 9.52734C97.1842 9.8737 97.2845 10.2155 97.4121 10.5527C97.5397 10.8809 97.6992 11.1725 97.8906 11.4277C98.082 11.6829 98.3145 11.888 98.5879 12.043C98.8613 12.1979 99.1849 12.2754 99.5586 12.2754H99.8594C100.27 12.1387 100.63 12.0156 100.939 11.9062C101.258 11.7878 101.541 11.6693 101.787 11.5508C102.042 11.4323 102.27 11.3047 102.471 11.168C102.68 11.0221 102.881 10.849 103.072 10.6484C103.273 10.4479 103.478 10.2064 103.688 9.92383C103.897 9.64128 104.134 9.30859 104.398 8.92578C104.408 8.92578 104.421 8.92578 104.439 8.92578C104.458 8.91667 104.476 8.91211 104.494 8.91211C104.658 8.91211 104.74 8.99414 104.74 9.1582C104.74 9.36784 104.686 9.60482 104.576 9.86914C104.476 10.1243 104.285 10.4069 104.002 10.7168C103.729 11.0267 103.341 11.3548 102.84 11.7012C102.348 12.0384 101.714 12.3802 100.939 12.7266C100.794 12.7904 100.666 12.8451 100.557 12.8906C100.447 12.9271 100.342 12.9544 100.242 12.9727C100.142 12.9909 100.037 13 99.9277 13C99.8275 13.0091 99.7135 13.0137 99.5859 13.0137C99.112 13.0137 98.6973 12.9316 98.3418 12.7676C97.9954 12.6035 97.6947 12.3848 97.4395 12.1113C97.1842 11.8288 96.9701 11.5098 96.7969 11.1543C96.6328 10.7897 96.5007 10.4069 96.4004 10.0059C96.3001 9.5957 96.2272 9.1901 96.1816 8.78906C96.1452 8.37891 96.127 7.99609 96.127 7.64062ZM104.467 12.5898C104.467 12.5625 104.467 12.4941 104.467 12.3848C104.467 12.2754 104.467 12.2025 104.467 12.166C104.312 11.6191 104.289 11.0814 104.398 10.5527C104.517 10.0241 104.722 9.55013 105.014 9.13086C105.314 8.70247 105.693 8.34701 106.148 8.06445C106.613 7.77279 107.119 7.59505 107.666 7.53125H107.912C108.113 7.53125 108.277 7.57682 108.404 7.66797C108.541 7.75 108.646 7.85938 108.719 7.99609C108.801 8.13281 108.855 8.28776 108.883 8.46094C108.919 8.63411 108.938 8.80729 108.938 8.98047C108.938 9.21745 108.91 9.44987 108.855 9.67773C108.81 9.89648 108.755 10.1198 108.691 10.3477C108.637 10.5755 108.582 10.8034 108.527 11.0312C108.482 11.25 108.459 11.4824 108.459 11.7285V11.8105C108.468 11.8288 108.477 11.8835 108.486 11.9746C108.505 12.0566 108.518 12.1068 108.527 12.125C108.546 12.125 108.591 12.1296 108.664 12.1387C108.737 12.1387 108.783 12.1387 108.801 12.1387C108.892 12.1387 108.979 12.1387 109.061 12.1387C109.152 12.1296 109.243 12.1068 109.334 12.0703L111.932 10.8672C111.941 10.8672 111.954 10.8672 111.973 10.8672C112 10.8581 112.018 10.8535 112.027 10.8535C112.118 10.8535 112.191 10.8809 112.246 10.9355C112.31 10.9902 112.342 11.0632 112.342 11.1543C112.342 11.1999 112.337 11.2454 112.328 11.291C112.328 11.3275 112.305 11.3639 112.26 11.4004C112.196 11.446 112.077 11.5098 111.904 11.5918C111.74 11.6738 111.562 11.765 111.371 11.8652C111.18 11.9655 110.997 12.0612 110.824 12.1523C110.66 12.2435 110.542 12.3027 110.469 12.3301C110.341 12.403 110.2 12.4714 110.045 12.5352C109.89 12.5898 109.73 12.6445 109.566 12.6992C109.402 12.7539 109.238 12.7995 109.074 12.8359C108.919 12.8633 108.778 12.877 108.65 12.877C108.45 12.877 108.286 12.8451 108.158 12.7812C108.031 12.7083 107.935 12.6172 107.871 12.5078C107.807 12.3893 107.762 12.2526 107.734 12.0977C107.716 11.9336 107.716 11.765 107.734 11.5918C107.552 11.7376 107.356 11.8926 107.146 12.0566C106.937 12.2207 106.718 12.3711 106.49 12.5078C106.262 12.6445 106.03 12.763 105.793 12.8633C105.556 12.9635 105.314 13.0137 105.068 13.0137C104.932 13.0137 104.809 12.9818 104.699 12.918C104.59 12.8451 104.512 12.7357 104.467 12.5898ZM105.205 12.3027C105.415 12.3027 105.647 12.2435 105.902 12.125C106.158 11.9974 106.408 11.8424 106.654 11.6602C106.9 11.4779 107.124 11.2865 107.324 11.0859C107.525 10.8763 107.68 10.6895 107.789 10.5254C107.798 10.252 107.835 9.99219 107.898 9.74609C107.971 9.49089 108.008 9.23112 108.008 8.9668C108.008 8.94857 108.003 8.92122 107.994 8.88477C107.994 8.84831 107.994 8.82096 107.994 8.80273C107.876 8.70247 107.775 8.64323 107.693 8.625C107.611 8.60677 107.502 8.59766 107.365 8.59766C107.347 8.59766 107.306 8.59766 107.242 8.59766C107.188 8.59766 107.151 8.60221 107.133 8.61133C107.078 8.6569 106.987 8.74349 106.859 8.87109C106.732 8.98958 106.595 9.12174 106.449 9.26758C106.312 9.41341 106.18 9.55013 106.053 9.67773C105.934 9.80534 105.852 9.89193 105.807 9.9375C105.798 9.9375 105.779 9.95573 105.752 9.99219C105.725 10.0195 105.693 10.056 105.656 10.1016C105.629 10.1471 105.602 10.1927 105.574 10.2383C105.556 10.2747 105.542 10.3066 105.533 10.334L105.205 11.9336V12.3027ZM111.877 12.6719C111.904 12.444 111.941 12.2298 111.986 12.0293C112.032 11.8197 112.082 11.6146 112.137 11.4141C112.191 11.2135 112.251 11.0085 112.314 10.7988C112.387 10.5801 112.465 10.334 112.547 10.0605V9.99219C112.182 10.2018 111.923 10.3066 111.768 10.3066C111.622 10.3066 111.549 10.252 111.549 10.1426C111.54 10.0332 111.585 9.88737 111.686 9.70508C111.795 9.52279 111.923 9.35417 112.068 9.19922C112.223 9.04427 112.378 8.92122 112.533 8.83008C112.697 8.73893 112.825 8.72526 112.916 8.78906C113.025 8.78906 113.112 8.80729 113.176 8.84375C113.249 8.88021 113.326 8.9349 113.408 9.00781C113.618 8.84375 113.814 8.71159 113.996 8.61133C114.178 8.51107 114.397 8.46094 114.652 8.46094C115.053 8.46094 115.354 8.55208 115.555 8.73438C115.764 8.91667 115.915 9.20833 116.006 9.60938C116.161 9.45443 116.302 9.31315 116.43 9.18555C116.557 9.04883 116.694 8.9349 116.84 8.84375C116.995 8.74349 117.159 8.67057 117.332 8.625C117.505 8.57031 117.701 8.54297 117.92 8.54297C118.102 8.54297 118.28 8.61133 118.453 8.74805C118.626 8.88477 118.749 9.03516 118.822 9.19922C118.822 9.23568 118.822 9.31771 118.822 9.44531C118.822 9.57292 118.822 9.65951 118.822 9.70508C118.822 10.015 118.786 10.3158 118.713 10.6074C118.64 10.89 118.604 11.1816 118.604 11.4824C118.604 11.61 118.617 11.7422 118.645 11.8789C118.681 12.0065 118.781 12.0703 118.945 12.0703C119.164 12.0703 119.36 12.0247 119.533 11.9336C119.715 11.8424 119.88 11.7331 120.025 11.6055C120.18 11.4688 120.317 11.3229 120.436 11.168C120.563 11.013 120.677 10.8717 120.777 10.7441C120.887 10.6074 120.987 10.4935 121.078 10.4023C121.169 10.3112 121.26 10.2656 121.352 10.2656C121.415 10.2656 121.484 10.293 121.557 10.3477C121.639 10.3932 121.68 10.4525 121.68 10.5254C121.68 10.5345 121.675 10.5482 121.666 10.5664C121.666 10.5846 121.666 10.5983 121.666 10.6074C121.575 10.89 121.443 11.1589 121.27 11.4141C121.096 11.6693 120.896 11.8971 120.668 12.0977C120.44 12.2891 120.185 12.444 119.902 12.5625C119.629 12.6719 119.337 12.7266 119.027 12.7266C118.736 12.7266 118.49 12.6901 118.289 12.6172C118.089 12.5352 117.934 12.3529 117.824 12.0703C117.824 12.043 117.82 11.9837 117.811 11.8926C117.811 11.7923 117.811 11.7331 117.811 11.7148C117.811 11.3685 117.842 11.0358 117.906 10.7168C117.979 10.3978 118.016 10.0742 118.016 9.74609C118.016 9.71875 118.011 9.65951 118.002 9.56836C118.002 9.47721 118.002 9.41797 118.002 9.39062C117.965 9.34505 117.906 9.32227 117.824 9.32227C117.751 9.32227 117.683 9.32227 117.619 9.32227C117.428 9.32227 117.245 9.39062 117.072 9.52734C116.899 9.66406 116.74 9.83724 116.594 10.0469C116.448 10.2565 116.316 10.4935 116.197 10.7578C116.088 11.013 115.992 11.2728 115.91 11.5371C115.828 11.7923 115.76 12.0339 115.705 12.2617C115.66 12.4805 115.632 12.6628 115.623 12.8086L115.473 12.9453H115.008C114.926 12.9453 114.88 12.9043 114.871 12.8223C114.871 12.7311 114.871 12.6628 114.871 12.6172C114.871 12.3984 114.885 12.1797 114.912 11.9609C114.949 11.7331 114.985 11.5098 115.021 11.291C115.067 11.0632 115.108 10.8353 115.145 10.6074C115.181 10.3796 115.204 10.1562 115.213 9.9375C115.204 9.86458 115.195 9.78711 115.186 9.70508C115.176 9.61393 115.158 9.5319 115.131 9.45898C115.104 9.38607 115.062 9.32682 115.008 9.28125C114.953 9.22656 114.876 9.19922 114.775 9.19922C114.63 9.19922 114.488 9.22656 114.352 9.28125C114.215 9.33594 114.087 9.40885 113.969 9.5C113.859 9.58203 113.759 9.68685 113.668 9.81445C113.586 9.93294 113.527 10.0651 113.49 10.2109L112.67 12.8633L112.547 13C112.547 13 112.52 13 112.465 13C112.41 13.0091 112.369 13.0137 112.342 13.0137C112.242 13.0137 112.137 13.0046 112.027 12.9863C111.927 12.959 111.877 12.8724 111.877 12.7266V12.6719ZM120.586 15.9121C120.586 15.6478 120.618 15.3516 120.682 15.0234C120.745 14.7044 120.814 14.3809 120.887 14.0527C120.96 13.7337 121.028 13.4193 121.092 13.1094C121.156 12.7995 121.188 12.5078 121.188 12.2344V12.125L121.516 11.209C121.634 10.9447 121.771 10.6712 121.926 10.3887C122.081 10.1061 122.254 9.84635 122.445 9.60938C122.646 9.36328 122.874 9.1582 123.129 8.99414C123.384 8.82096 123.671 8.71159 123.99 8.66602C124.1 8.64779 124.218 8.67057 124.346 8.73438C124.473 8.78906 124.592 8.86198 124.701 8.95312C124.82 9.04427 124.915 9.14909 124.988 9.26758C125.061 9.38607 125.107 9.5 125.125 9.60938C125.125 9.6276 125.125 9.66406 125.125 9.71875C125.125 9.77344 125.125 9.83268 125.125 9.89648C125.125 9.96029 125.125 10.0195 125.125 10.0742C125.125 10.1289 125.125 10.1699 125.125 10.1973C125.125 10.4525 125.089 10.6986 125.016 10.9355C124.943 11.1725 124.906 11.4004 124.906 11.6191V11.6602C124.934 11.6419 124.997 11.61 125.098 11.5645C125.198 11.5189 125.312 11.4688 125.439 11.4141C125.576 11.3594 125.722 11.3001 125.877 11.2363C126.041 11.1725 126.196 11.1133 126.342 11.0586C126.488 11.0039 126.615 10.9629 126.725 10.9355C126.843 10.8991 126.925 10.8809 126.971 10.8809C127.08 10.8809 127.144 10.8991 127.162 10.9355C127.189 10.9629 127.203 11.013 127.203 11.0859C127.203 11.1862 127.144 11.2865 127.025 11.3867C126.907 11.487 126.752 11.5827 126.561 11.6738C126.378 11.765 126.173 11.8516 125.945 11.9336C125.727 12.0065 125.512 12.0749 125.303 12.1387C125.102 12.2025 124.924 12.2663 124.77 12.3301C124.615 12.3848 124.51 12.4258 124.455 12.4531C124.355 12.526 124.259 12.6035 124.168 12.6855C124.086 12.7676 123.999 12.8405 123.908 12.9043C123.817 12.9681 123.721 13.0228 123.621 13.0684C123.521 13.1139 123.407 13.1367 123.279 13.1367C123.088 13.1367 122.901 13.0866 122.719 12.9863C122.546 12.877 122.386 12.7676 122.24 12.6582L122.172 12.7129C122.172 12.722 122.14 12.8451 122.076 13.082C122.021 13.319 121.953 13.5924 121.871 13.9023C121.798 14.2214 121.721 14.5358 121.639 14.8457C121.566 15.1556 121.507 15.3971 121.461 15.5703C121.443 15.6706 121.429 15.7708 121.42 15.8711C121.411 15.9805 121.388 16.0807 121.352 16.1719C121.324 16.2721 121.274 16.3542 121.201 16.418C121.128 16.4818 121.028 16.5137 120.9 16.5137H120.723C120.668 16.4043 120.632 16.304 120.613 16.2129C120.595 16.1309 120.586 16.0306 120.586 15.9121ZM122.418 11.8789C122.518 11.9427 122.623 11.9792 122.732 11.9883C122.842 11.9974 122.947 11.9974 123.047 11.9883C123.156 11.9701 123.261 11.9473 123.361 11.9199C123.471 11.8926 123.576 11.8789 123.676 11.8789C123.694 11.8789 123.735 11.8789 123.799 11.8789C123.863 11.8698 123.899 11.8652 123.908 11.8652C124.018 11.8105 124.104 11.7103 124.168 11.5645C124.232 11.4186 124.277 11.2637 124.305 11.0996C124.341 10.9355 124.364 10.776 124.373 10.6211C124.382 10.457 124.387 10.3294 124.387 10.2383C124.387 10.1562 124.382 10.0697 124.373 9.97852C124.364 9.88737 124.341 9.80534 124.305 9.73242C124.277 9.65039 124.236 9.58203 124.182 9.52734C124.127 9.47266 124.049 9.44531 123.949 9.44531C123.931 9.44531 123.899 9.44987 123.854 9.45898C123.817 9.45898 123.79 9.45898 123.771 9.45898C123.735 9.56836 123.658 9.71875 123.539 9.91016C123.43 10.0924 123.311 10.2839 123.184 10.4844C123.065 10.6849 122.956 10.8809 122.855 11.0723C122.755 11.2546 122.705 11.3958 122.705 11.4961L122.418 11.8789ZM126.793 11.5234C126.829 11.3958 126.852 11.2637 126.861 11.127C126.88 10.9902 126.898 10.8444 126.916 10.6895C126.943 10.5345 126.984 10.3613 127.039 10.1699C127.103 9.9694 127.199 9.74609 127.326 9.5C127.454 9.25391 127.622 8.97135 127.832 8.65234C128.051 8.32422 128.333 7.95052 128.68 7.53125C128.716 7.47656 128.762 7.43099 128.816 7.39453C128.871 7.34896 128.93 7.32617 128.994 7.32617C129.104 7.32617 129.199 7.37174 129.281 7.46289C129.363 7.54492 129.404 7.63607 129.404 7.73633C129.404 7.74544 129.395 7.77734 129.377 7.83203C129.368 7.8776 129.359 7.90951 129.35 7.92773C129.249 8.13737 129.154 8.32422 129.062 8.48828C128.971 8.65234 128.876 8.81185 128.775 8.9668C128.675 9.11263 128.561 9.26758 128.434 9.43164C128.315 9.5957 128.174 9.78255 128.01 9.99219C127.9 10.2656 127.805 10.5208 127.723 10.7578C127.641 10.9948 127.6 11.2591 127.6 11.5508C127.6 11.6966 127.604 11.8151 127.613 11.9062C127.632 11.9974 127.677 12.1204 127.75 12.2754H127.9C128.165 12.2754 128.465 12.1706 128.803 11.9609C129.149 11.7422 129.486 11.487 129.814 11.1953C130.152 10.8945 130.457 10.5892 130.73 10.2793C131.004 9.9694 131.204 9.71875 131.332 9.52734C131.35 9.50911 131.373 9.4681 131.4 9.4043C131.437 9.33138 131.46 9.28581 131.469 9.26758C131.487 9.21289 131.519 9.12174 131.564 8.99414C131.61 8.85742 131.656 8.71615 131.701 8.57031C131.756 8.42448 131.806 8.28776 131.852 8.16016C131.897 8.02344 131.929 7.92773 131.947 7.87305C131.965 7.79102 132.002 7.74544 132.057 7.73633C132.111 7.72721 132.166 7.72266 132.221 7.72266C132.385 7.72266 132.49 7.75911 132.535 7.83203C132.581 7.89583 132.604 8.00521 132.604 8.16016V8.39258C132.512 8.63867 132.43 8.86654 132.357 9.07617C132.294 9.28581 132.23 9.49089 132.166 9.69141C132.111 9.89193 132.07 10.0924 132.043 10.293C132.016 10.4935 132.002 10.7122 132.002 10.9492C132.002 10.9766 131.997 11.0404 131.988 11.1406C131.988 11.2409 131.993 11.3457 132.002 11.4551C132.02 11.5553 132.048 11.651 132.084 11.7422C132.13 11.8242 132.193 11.8652 132.275 11.8652C132.494 11.8652 132.717 11.8379 132.945 11.7832C133.182 11.7194 133.419 11.6419 133.656 11.5508C133.893 11.4505 134.117 11.3411 134.326 11.2227C134.545 11.1042 134.75 10.9857 134.941 10.8672C134.987 10.849 135.042 10.8079 135.105 10.7441C135.169 10.6803 135.238 10.6211 135.311 10.5664C135.383 10.5026 135.456 10.4479 135.529 10.4023C135.602 10.3568 135.671 10.334 135.734 10.334C135.917 10.334 136.008 10.4251 136.008 10.6074C136.008 10.7441 135.926 10.89 135.762 11.0449C135.598 11.1908 135.388 11.3366 135.133 11.4824C134.887 11.6283 134.609 11.765 134.299 11.8926C133.989 12.0202 133.688 12.1341 133.396 12.2344C133.114 12.3255 132.859 12.403 132.631 12.4668C132.403 12.5215 132.239 12.5488 132.139 12.5488C132.102 12.5488 132.034 12.5488 131.934 12.5488C131.842 12.5397 131.779 12.5352 131.742 12.5352C131.596 12.4987 131.482 12.4167 131.4 12.2891C131.318 12.1615 131.255 12.0202 131.209 11.8652C131.173 11.7012 131.15 11.5417 131.141 11.3867C131.132 11.2227 131.127 11.0905 131.127 10.9902C131.1 11.0085 131.063 11.0312 131.018 11.0586C130.981 11.0768 130.958 11.0996 130.949 11.127C130.876 11.1908 130.753 11.291 130.58 11.4277C130.416 11.5553 130.234 11.6966 130.033 11.8516C129.842 11.9974 129.66 12.1341 129.486 12.2617C129.322 12.3893 129.208 12.4805 129.145 12.5352C128.962 12.6719 128.762 12.7858 128.543 12.877C128.324 12.9681 128.101 13.0137 127.873 13.0137C127.636 13.0137 127.449 12.9772 127.312 12.9043C127.176 12.8223 127.066 12.7174 126.984 12.5898C126.911 12.4531 126.861 12.2936 126.834 12.1113C126.807 11.929 126.793 11.7331 126.793 11.5234ZM136.254 11.0723C136.181 11.1087 136.104 11.1315 136.021 11.1406C135.939 11.1406 135.857 11.1406 135.775 11.1406C135.693 11.1406 135.611 11.1452 135.529 11.1543C135.447 11.1543 135.365 11.1725 135.283 11.209C135.128 11.2272 135.028 11.2181 134.982 11.1816C134.937 11.1361 134.923 11.0768 134.941 11.0039C134.96 10.931 135.01 10.849 135.092 10.7578C135.174 10.6667 135.27 10.5892 135.379 10.5254C135.479 10.4616 135.589 10.416 135.707 10.3887C135.835 10.3613 135.949 10.3659 136.049 10.4023C136.003 10.2383 136.008 10.097 136.062 9.97852C136.117 9.86003 136.227 9.80078 136.391 9.80078C136.473 9.80078 136.546 9.8099 136.609 9.82812C136.682 9.83724 136.737 9.8737 136.773 9.9375C136.91 9.85547 137.092 9.71875 137.32 9.52734C137.548 9.32682 137.781 9.1263 138.018 8.92578C138.264 8.71615 138.487 8.53385 138.688 8.37891C138.888 8.21484 139.025 8.13281 139.098 8.13281C139.125 8.13281 139.161 8.13737 139.207 8.14648C139.253 8.14648 139.298 8.1556 139.344 8.17383C139.398 8.19206 139.439 8.21484 139.467 8.24219C139.503 8.26042 139.521 8.29232 139.521 8.33789V8.92578C139.458 9.18099 139.394 9.42253 139.33 9.65039C139.275 9.86914 139.225 10.0879 139.18 10.3066C139.143 10.5163 139.116 10.7305 139.098 10.9492C139.079 11.168 139.07 11.4004 139.07 11.6465C139.216 11.6465 139.389 11.6146 139.59 11.5508C139.799 11.487 140.009 11.4095 140.219 11.3184C140.428 11.2272 140.624 11.1361 140.807 11.0449C140.989 10.9447 141.135 10.8626 141.244 10.7988C141.262 10.7897 141.303 10.7578 141.367 10.7031C141.431 10.6484 141.499 10.5938 141.572 10.5391C141.645 10.4753 141.714 10.4206 141.777 10.375C141.85 10.3203 141.896 10.2839 141.914 10.2656C141.932 10.2474 141.978 10.2246 142.051 10.1973C142.124 10.1608 142.165 10.138 142.174 10.1289C142.21 10.1198 142.242 10.1335 142.27 10.1699C142.306 10.1973 142.338 10.2337 142.365 10.2793C142.393 10.3158 142.411 10.3568 142.42 10.4023C142.438 10.4388 142.447 10.4616 142.447 10.4707C142.447 10.5618 142.411 10.653 142.338 10.7441C142.265 10.8353 142.178 10.9219 142.078 11.0039C141.978 11.0768 141.873 11.1497 141.764 11.2227C141.663 11.2865 141.586 11.3457 141.531 11.4004C141.458 11.4368 141.331 11.4961 141.148 11.5781C140.975 11.6602 140.788 11.7467 140.588 11.8379C140.387 11.929 140.196 12.0156 140.014 12.0977C139.84 12.1797 139.717 12.2389 139.645 12.2754C139.626 12.2845 139.585 12.2982 139.521 12.3164C139.458 12.3255 139.389 12.3438 139.316 12.3711C139.243 12.3984 139.171 12.4212 139.098 12.4395C139.034 12.4486 138.993 12.4577 138.975 12.4668C138.893 12.4941 138.829 12.5397 138.783 12.6035C138.747 12.6673 138.706 12.7311 138.66 12.7949C138.624 12.8587 138.574 12.9134 138.51 12.959C138.455 13.0046 138.364 13.0182 138.236 13C138.227 12.9909 138.186 12.9727 138.113 12.9453C138.049 12.9089 138.008 12.8815 137.99 12.8633C137.771 12.7083 137.585 12.5625 137.43 12.4258C137.275 12.2891 137.133 12.1569 137.006 12.0293C136.878 11.8926 136.755 11.7467 136.637 11.5918C136.527 11.4368 136.4 11.2637 136.254 11.0723ZM137.115 10.5254C137.179 10.6621 137.238 10.7943 137.293 10.9219C137.357 11.0495 137.43 11.1725 137.512 11.291C137.594 11.4004 137.685 11.4961 137.785 11.5781C137.895 11.6602 138.027 11.7103 138.182 11.7285C138.2 11.5918 138.223 11.4277 138.25 11.2363C138.277 11.0449 138.309 10.8444 138.346 10.6348C138.382 10.4251 138.423 10.2201 138.469 10.0195C138.523 9.8099 138.583 9.6276 138.646 9.47266H138.51C138.364 9.57292 138.227 9.67318 138.1 9.77344C137.981 9.86458 137.863 9.95573 137.744 10.0469C137.626 10.1289 137.53 10.2018 137.457 10.2656C137.448 10.2747 137.434 10.2884 137.416 10.3066C137.398 10.3249 137.384 10.334 137.375 10.334C137.366 10.3522 137.325 10.3841 137.252 10.4297C137.179 10.4753 137.133 10.5072 137.115 10.5254ZM138.646 9.26758C138.619 9.26758 138.605 9.29036 138.605 9.33594C138.605 9.3724 138.619 9.39062 138.646 9.39062C138.683 9.39062 138.701 9.3724 138.701 9.33594C138.701 9.29036 138.683 9.26758 138.646 9.26758Z" fill="#6C6C6C"/>
    </svg>
    