<svg width="118" height="16" viewBox="0 0 118 16" fill="none" xmlns="http://www.w3.org/2000/svg">
<path d="M1.33984 8.54297L0.273438 3.4707C0.273438 3.46159 0.26888 3.4388 0.259766 3.40234C0.250651 3.35677 0.246094 3.32487 0.246094 3.30664C0.246094 3.19727 0.277995 3.11068 0.341797 3.04688C0.405599 2.97396 0.48763 2.9375 0.587891 2.9375C0.642578 2.9375 0.710938 2.95573 0.792969 2.99219C0.875 3.02865 0.920573 3.07422 0.929688 3.12891L1.4082 4.5918L2.32422 9.80078L2.39258 9.9375C2.50195 9.75521 2.59766 9.55469 2.67969 9.33594C2.77083 9.11719 2.85286 8.89844 2.92578 8.67969C3.00781 8.45182 3.08073 8.22852 3.14453 8.00977C3.21745 7.7819 3.29948 7.58138 3.39062 7.4082C3.41797 7.36263 3.48633 7.23503 3.5957 7.02539C3.70508 6.81576 3.83268 6.58333 3.97852 6.32812C4.12435 6.0638 4.26562 5.80404 4.40234 5.54883C4.53906 5.28451 4.64844 5.08398 4.73047 4.94727C4.8125 4.7832 4.93555 4.58724 5.09961 4.35938C5.26367 4.13151 5.44141 3.91276 5.63281 3.70312C5.82422 3.49349 6.01562 3.31576 6.20703 3.16992C6.40755 3.01497 6.58529 2.9375 6.74023 2.9375C6.80404 2.9375 6.8724 2.96484 6.94531 3.01953C7.02734 3.0651 7.06836 3.12435 7.06836 3.19727C7.06836 3.21549 7.0638 3.26107 7.05469 3.33398C7.05469 3.4069 7.04557 3.48438 7.02734 3.56641C7.00911 3.64844 6.98177 3.72135 6.94531 3.78516C6.91797 3.83984 6.8724 3.86719 6.80859 3.86719C6.79036 3.86719 6.75391 3.86263 6.69922 3.85352C6.65365 3.83529 6.62174 3.81706 6.60352 3.79883C6.31185 4.04492 6.04297 4.31836 5.79688 4.61914C5.5599 4.91081 5.34115 5.21615 5.14062 5.53516C4.9401 5.85417 4.7487 6.18685 4.56641 6.5332C4.39323 6.87044 4.22917 7.20312 4.07422 7.53125C4.05599 7.55859 4.02409 7.63151 3.97852 7.75C3.93294 7.86849 3.88281 7.99609 3.82812 8.13281C3.77344 8.26953 3.72331 8.39714 3.67773 8.51562C3.64128 8.63411 3.61849 8.70703 3.60938 8.73438C3.60026 8.7526 3.58659 8.77539 3.56836 8.80273C3.55013 8.83008 3.53646 8.85286 3.52734 8.87109L2.73438 11.4688L2.59766 12.8086C2.59766 12.8542 2.57487 12.8906 2.5293 12.918C2.48372 12.9453 2.42904 12.9681 2.36523 12.9863C2.30143 12.9954 2.24219 13 2.1875 13C2.13281 13.0091 2.08724 13.0137 2.05078 13.0137C2.00521 13.0137 1.95052 13.0091 1.88672 13C1.83203 12.9818 1.80013 12.9362 1.79102 12.8633L1.33984 8.66602V8.54297ZM6.39844 11.9336C6.39844 11.9245 6.40299 11.8926 6.41211 11.8379C6.42122 11.7832 6.43034 11.7285 6.43945 11.6738C6.44857 11.61 6.45768 11.5553 6.4668 11.5098C6.47591 11.4551 6.48047 11.4186 6.48047 11.4004V11.3457V11.2637L6.67188 10.4023C6.82682 10.0742 6.98633 9.75977 7.15039 9.45898C7.32357 9.1582 7.51953 8.89388 7.73828 8.66602C7.95703 8.43815 8.20768 8.25586 8.49023 8.11914C8.7819 7.98242 9.13281 7.91406 9.54297 7.91406C9.625 7.91406 9.72526 7.94141 9.84375 7.99609C9.97135 8.04167 10.0944 8.10091 10.2129 8.17383C10.3405 8.24674 10.4544 8.32422 10.5547 8.40625C10.6641 8.47917 10.7461 8.54753 10.8008 8.61133C11.0833 8.56576 11.2884 8.54297 11.416 8.54297C11.5436 8.53385 11.653 8.5293 11.7441 8.5293C11.8353 8.52018 11.931 8.50195 12.0312 8.47461C12.1406 8.44727 12.3047 8.38802 12.5234 8.29688C12.6784 8.2513 12.8288 8.22852 12.9746 8.22852C13.0384 8.22852 13.0977 8.25586 13.1523 8.31055C13.2161 8.36523 13.248 8.42904 13.248 8.50195C13.248 8.5931 13.2161 8.67513 13.1523 8.74805C13.0885 8.82096 13.0111 8.86654 12.9199 8.88477L11.2109 9.26758L11.0605 9.33594C11.0514 9.82812 10.9421 10.2975 10.7324 10.7441C10.5228 11.1908 10.2448 11.5827 9.89844 11.9199C9.55208 12.2572 9.15104 12.526 8.69531 12.7266C8.23958 12.918 7.76562 13.0137 7.27344 13.0137C7.23698 13.0137 7.17773 13.0091 7.0957 13C7.01367 13 6.95898 13 6.93164 13C6.73112 12.918 6.58984 12.7676 6.50781 12.5488C6.4349 12.3301 6.39844 12.125 6.39844 11.9336ZM7.27344 12.207C7.28255 12.2526 7.31901 12.2754 7.38281 12.2754C7.44661 12.2754 7.49219 12.2754 7.51953 12.2754C7.84766 12.2754 8.1849 12.1934 8.53125 12.0293C8.8776 11.8561 9.1875 11.6374 9.46094 11.373C9.74349 11.0996 9.97135 10.7943 10.1445 10.457C10.3268 10.1107 10.418 9.76432 10.418 9.41797C10.1263 9.41797 9.83464 9.39518 9.54297 9.34961C9.2513 9.29492 8.96875 9.26758 8.69531 9.26758H8.68164L7.54688 10.4707C7.48307 10.5345 7.43294 10.6211 7.39648 10.7305C7.36003 10.8398 7.33268 10.9583 7.31445 11.0859C7.29622 11.2135 7.28255 11.3411 7.27344 11.4688C7.26432 11.5964 7.25977 11.7103 7.25977 11.8105C7.25977 11.8379 7.25977 11.9017 7.25977 12.002C7.25977 12.1022 7.26432 12.1706 7.27344 12.207ZM13.0977 10.5254C13.0977 10.5254 13.1022 10.5208 13.1113 10.5117C13.1296 10.4935 13.1432 10.4798 13.1523 10.4707C13.1706 10.3887 13.207 10.2474 13.2617 10.0469C13.3164 9.84635 13.3757 9.63216 13.4395 9.4043C13.5033 9.16732 13.5625 8.94857 13.6172 8.74805C13.681 8.54753 13.7266 8.41081 13.7539 8.33789C13.763 8.30143 13.7904 8.22396 13.8359 8.10547C13.8906 7.97786 13.9499 7.84115 14.0137 7.69531C14.0775 7.54948 14.1413 7.40365 14.2051 7.25781C14.2689 7.11198 14.3145 7.0026 14.3418 6.92969C14.4056 6.80208 14.5013 6.63346 14.6289 6.42383C14.7656 6.21419 14.916 6.01823 15.0801 5.83594C15.2533 5.64453 15.431 5.48047 15.6133 5.34375C15.7956 5.19792 15.9642 5.125 16.1191 5.125C16.2012 5.125 16.265 5.14779 16.3105 5.19336C16.3652 5.23893 16.4017 5.29362 16.4199 5.35742C16.4473 5.41211 16.4655 5.47591 16.4746 5.54883C16.4837 5.62174 16.4883 5.68555 16.4883 5.74023C16.4883 6.21419 16.4199 6.68815 16.2832 7.16211C16.1556 7.62695 15.9779 8.07357 15.75 8.50195C15.5221 8.93034 15.2487 9.33594 14.9297 9.71875C14.6198 10.0924 14.2917 10.4297 13.9453 10.7305C13.9362 10.7578 13.9225 10.8125 13.9043 10.8945C13.8952 10.9766 13.8861 11.0358 13.877 11.0723V11.0996C13.877 11.2819 13.9225 11.4277 14.0137 11.5371C14.1139 11.6465 14.2324 11.7285 14.3691 11.7832C14.5059 11.8288 14.6562 11.8607 14.8203 11.8789C14.9935 11.8971 15.1576 11.9062 15.3125 11.9062C15.3945 11.9062 15.513 11.8652 15.668 11.7832C15.832 11.7012 15.9961 11.61 16.1602 11.5098C16.3333 11.4004 16.502 11.3047 16.666 11.2227C16.8301 11.1406 16.9531 11.0996 17.0352 11.0996C17.1172 11.0996 17.181 11.127 17.2266 11.1816C17.2721 11.2363 17.2949 11.3047 17.2949 11.3867C17.2949 11.5234 17.1901 11.6693 16.9805 11.8242C16.7708 11.9792 16.5293 12.125 16.2559 12.2617C15.9824 12.3893 15.7181 12.4987 15.4629 12.5898C15.2168 12.681 15.0527 12.7266 14.9707 12.7266C14.6973 12.7812 14.4421 12.7858 14.2051 12.7402C13.9681 12.6855 13.763 12.599 13.5898 12.4805C13.4167 12.3529 13.2708 12.2025 13.1523 12.0293C13.043 11.847 12.9746 11.6602 12.9473 11.4688L13.0977 10.5254ZM15.6816 6.45117C15.5996 6.45117 15.5039 6.51953 15.3945 6.65625C15.2943 6.78385 15.194 6.93424 15.0938 7.10742C14.9935 7.2806 14.9023 7.44922 14.8203 7.61328C14.7474 7.76823 14.7064 7.87305 14.6973 7.92773C14.6699 7.99154 14.6289 8.09635 14.5742 8.24219C14.5195 8.38802 14.4648 8.54297 14.4102 8.70703C14.3555 8.86198 14.3008 9.01237 14.2461 9.1582C14.2005 9.30404 14.1686 9.40885 14.1504 9.47266H14.2188C14.2188 9.47266 14.2461 9.44076 14.3008 9.37695C14.3555 9.30404 14.4147 9.22201 14.4785 9.13086C14.5514 9.03971 14.6243 8.94857 14.6973 8.85742C14.7793 8.75716 14.8385 8.67513 14.875 8.61133C14.9115 8.55664 14.9616 8.47461 15.0254 8.36523C15.0892 8.24674 15.1302 8.17383 15.1484 8.14648C15.1849 8.04622 15.235 7.91406 15.2988 7.75C15.3626 7.57682 15.4219 7.4082 15.4766 7.24414C15.5312 7.08008 15.5768 6.9388 15.6133 6.82031C15.6589 6.69271 15.6816 6.61979 15.6816 6.60156V6.45117ZM16.8848 11.5234C16.9212 11.3958 16.944 11.2637 16.9531 11.127C16.9714 10.9902 16.9896 10.8444 17.0078 10.6895C17.0352 10.5345 17.0762 10.3613 17.1309 10.1699C17.1947 9.9694 17.2904 9.74609 17.418 9.5C17.5456 9.25391 17.7142 8.97135 17.9238 8.65234C18.1426 8.32422 18.4251 7.95052 18.7715 7.53125C18.8079 7.47656 18.8535 7.43099 18.9082 7.39453C18.9629 7.34896 19.0221 7.32617 19.0859 7.32617C19.1953 7.32617 19.291 7.37174 19.373 7.46289C19.4551 7.54492 19.4961 7.63607 19.4961 7.73633C19.4961 7.74544 19.487 7.77734 19.4688 7.83203C19.4596 7.8776 19.4505 7.90951 19.4414 7.92773C19.3411 8.13737 19.2454 8.32422 19.1543 8.48828C19.0632 8.65234 18.9674 8.81185 18.8672 8.9668C18.7669 9.11263 18.653 9.26758 18.5254 9.43164C18.4069 9.5957 18.2656 9.78255 18.1016 9.99219C17.9922 10.2656 17.8965 10.5208 17.8145 10.7578C17.7324 10.9948 17.6914 11.2591 17.6914 11.5508C17.6914 11.6966 17.696 11.8151 17.7051 11.9062C17.7233 11.9974 17.7689 12.1204 17.8418 12.2754H17.9922C18.2565 12.2754 18.5573 12.1706 18.8945 11.9609C19.2409 11.7422 19.5781 11.487 19.9062 11.1953C20.2435 10.8945 20.5488 10.5892 20.8223 10.2793C21.0957 9.9694 21.2962 9.71875 21.4238 9.52734C21.4421 9.50911 21.4648 9.4681 21.4922 9.4043C21.5286 9.33138 21.5514 9.28581 21.5605 9.26758C21.5788 9.21289 21.6107 9.12174 21.6562 8.99414C21.7018 8.85742 21.7474 8.71615 21.793 8.57031C21.8477 8.42448 21.8978 8.28776 21.9434 8.16016C21.9889 8.02344 22.0208 7.92773 22.0391 7.87305C22.0573 7.79102 22.0938 7.74544 22.1484 7.73633C22.2031 7.72721 22.2578 7.72266 22.3125 7.72266C22.4766 7.72266 22.5814 7.75911 22.627 7.83203C22.6725 7.89583 22.6953 8.00521 22.6953 8.16016V8.39258C22.6042 8.63867 22.5221 8.86654 22.4492 9.07617C22.3854 9.28581 22.3216 9.49089 22.2578 9.69141C22.2031 9.89193 22.1621 10.0924 22.1348 10.293C22.1074 10.4935 22.0938 10.7122 22.0938 10.9492C22.0938 10.9766 22.0892 11.0404 22.0801 11.1406C22.0801 11.2409 22.0846 11.3457 22.0938 11.4551C22.112 11.5553 22.1393 11.651 22.1758 11.7422C22.2214 11.8242 22.2852 11.8652 22.3672 11.8652C22.5859 11.8652 22.8092 11.8379 23.0371 11.7832C23.2741 11.7194 23.5111 11.6419 23.748 11.5508C23.985 11.4505 24.2083 11.3411 24.418 11.2227C24.6367 11.1042 24.8418 10.9857 25.0332 10.8672C25.0788 10.849 25.1335 10.8079 25.1973 10.7441C25.2611 10.6803 25.3294 10.6211 25.4023 10.5664C25.4753 10.5026 25.5482 10.4479 25.6211 10.4023C25.694 10.3568 25.7624 10.334 25.8262 10.334C26.0085 10.334 26.0996 10.4251 26.0996 10.6074C26.0996 10.7441 26.0176 10.89 25.8535 11.0449C25.6895 11.1908 25.4798 11.3366 25.2246 11.4824C24.9785 11.6283 24.7005 11.765 24.3906 11.8926C24.0807 12.0202 23.7799 12.1341 23.4883 12.2344C23.2057 12.3255 22.9505 12.403 22.7227 12.4668C22.4948 12.5215 22.3307 12.5488 22.2305 12.5488C22.194 12.5488 22.1257 12.5488 22.0254 12.5488C21.9342 12.5397 21.8704 12.5352 21.834 12.5352C21.6882 12.4987 21.5742 12.4167 21.4922 12.2891C21.4102 12.1615 21.3464 12.0202 21.3008 11.8652C21.2643 11.7012 21.2415 11.5417 21.2324 11.3867C21.2233 11.2227 21.2188 11.0905 21.2188 10.9902C21.1914 11.0085 21.1549 11.0312 21.1094 11.0586C21.0729 11.0768 21.0501 11.0996 21.041 11.127C20.9681 11.1908 20.8451 11.291 20.6719 11.4277C20.5078 11.5553 20.3255 11.6966 20.125 11.8516C19.9336 11.9974 19.7513 12.1341 19.5781 12.2617C19.4141 12.3893 19.3001 12.4805 19.2363 12.5352C19.054 12.6719 18.8535 12.7858 18.6348 12.877C18.416 12.9681 18.1927 13.0137 17.9648 13.0137C17.7279 13.0137 17.541 12.9772 17.4043 12.9043C17.2676 12.8223 17.1582 12.7174 17.0762 12.5898C17.0033 12.4531 16.9531 12.2936 16.9258 12.1113C16.8984 11.929 16.8848 11.7331 16.8848 11.5234ZM25.6895 12.7266L26.1543 9.99219V9.60938L26.4277 7.79102C26.4551 7.75456 26.5052 7.73633 26.5781 7.73633C26.651 7.72721 26.7012 7.72266 26.7285 7.72266C26.8014 7.72266 26.8835 7.75 26.9746 7.80469C27.0749 7.85026 27.125 7.91406 27.125 7.99609V8.92578C27.1615 8.89844 27.2253 8.84375 27.3164 8.76172C27.4076 8.67969 27.5033 8.5931 27.6035 8.50195C27.7129 8.41081 27.8132 8.32422 27.9043 8.24219C27.9954 8.16016 28.0547 8.10091 28.082 8.06445C28.1823 7.97331 28.3008 7.89583 28.4375 7.83203C28.5833 7.76823 28.7201 7.73633 28.8477 7.73633C29.112 7.73633 29.3171 7.81836 29.4629 7.98242C29.6178 8.14648 29.6953 8.35612 29.6953 8.61133C29.6953 8.62956 29.6908 8.64323 29.6816 8.65234C29.6816 8.65234 29.6816 8.66146 29.6816 8.67969V8.73438L29.1621 11.0723V12.1797C29.4447 12.1797 29.7363 12.125 30.0371 12.0156C30.347 11.8971 30.6432 11.7513 30.9258 11.5781C31.2083 11.4049 31.4727 11.209 31.7188 10.9902C31.9648 10.7624 32.179 10.5436 32.3613 10.334H32.416C32.4798 10.334 32.5299 10.3568 32.5664 10.4023C32.612 10.4388 32.6348 10.4889 32.6348 10.5527C32.6348 10.7533 32.5664 10.9538 32.4297 11.1543C32.3021 11.3457 32.1335 11.528 31.9238 11.7012C31.7233 11.8743 31.4863 12.0384 31.2129 12.1934C30.9486 12.3483 30.6842 12.4805 30.4199 12.5898C30.1647 12.6992 29.9141 12.7858 29.668 12.8496C29.4219 12.9134 29.2122 12.9453 29.0391 12.9453C28.8659 12.9453 28.7292 12.9134 28.6289 12.8496C28.5286 12.7858 28.4512 12.7038 28.3965 12.6035C28.3509 12.4941 28.319 12.3757 28.3008 12.248C28.2917 12.1204 28.2871 11.9837 28.2871 11.8379V11.6602L28.8203 9.00781V8.55664C28.6016 8.55664 28.3828 8.65234 28.1641 8.84375C27.9544 9.03516 27.763 9.26758 27.5898 9.54102C27.4258 9.81445 27.2799 10.0924 27.1523 10.375C27.0339 10.6576 26.9473 10.89 26.8926 11.0723C26.8743 11.1361 26.847 11.25 26.8105 11.4141C26.7741 11.5781 26.7376 11.7513 26.7012 11.9336C26.6738 12.1159 26.6465 12.2891 26.6191 12.4531C26.5918 12.6172 26.5736 12.7357 26.5645 12.8086C26.5736 12.8633 26.5553 12.9043 26.5098 12.9316C26.4733 12.959 26.4277 12.9818 26.373 13C26.3184 13.0091 26.2591 13.0137 26.1953 13.0137C26.1406 13.0137 26.0951 13.0137 26.0586 13.0137C25.9766 13.0137 25.8945 13 25.8125 12.9727C25.7305 12.9453 25.6895 12.877 25.6895 12.7676V12.7266ZM32.293 9.33594C32.3112 9.29948 32.3477 9.24479 32.4023 9.17188C32.457 9.08984 32.4844 9.02148 32.4844 8.9668V8.92578C32.4844 8.91667 32.4753 8.90755 32.457 8.89844C32.4388 8.88021 32.4251 8.87109 32.416 8.87109H32.1699C31.9329 8.94401 31.6686 8.99414 31.377 9.02148C31.0762 9.04883 30.7891 9.05794 30.5156 9.04883C30.2331 9.03971 29.9915 9.01693 29.791 8.98047C29.5905 8.9349 29.472 8.88477 29.4355 8.83008C29.3991 8.77539 29.4674 8.71159 29.6406 8.63867C29.8138 8.55664 30.1419 8.47461 30.625 8.39258C30.6523 8.39258 30.7161 8.38346 30.8164 8.36523C30.9076 8.33789 31.0124 8.3151 31.1309 8.29688C31.2402 8.27865 31.3451 8.26042 31.4453 8.24219C31.5456 8.21484 31.6094 8.20117 31.6367 8.20117C31.6732 8.19206 31.7507 8.1875 31.8691 8.1875C31.9876 8.17839 32.1061 8.16927 32.2246 8.16016C32.3522 8.15104 32.4707 8.14648 32.5801 8.14648C32.6986 8.14648 32.7806 8.14648 32.8262 8.14648L32.8945 8.06445L33.9609 6.27344C33.9974 6.20964 34.0612 6.15951 34.1523 6.12305C34.2526 6.08659 34.3301 6.06836 34.3848 6.06836C34.5033 6.06836 34.5853 6.11849 34.6309 6.21875C34.6764 6.3099 34.6992 6.40104 34.6992 6.49219C34.6992 6.5013 34.6947 6.51042 34.6855 6.51953C34.6855 6.52865 34.6855 6.53776 34.6855 6.54688V6.60156L34.084 8.06445V8.14648C34.1022 8.0918 34.1341 8.06445 34.1797 8.06445C34.2344 8.06445 34.2754 8.06445 34.3027 8.06445C34.4395 8.06445 34.5716 8.11003 34.6992 8.20117C34.8268 8.29232 34.8906 8.41536 34.8906 8.57031C34.8906 8.64323 34.8678 8.70247 34.8223 8.74805C34.7767 8.79362 34.722 8.83008 34.6582 8.85742C34.5944 8.88477 34.526 8.90755 34.4531 8.92578C34.3802 8.9349 34.3164 8.93945 34.2617 8.93945C34.1523 8.93945 34.0475 8.92578 33.9473 8.89844C33.8561 8.87109 33.7559 8.85742 33.6465 8.85742C33.5462 8.85742 33.4551 8.91211 33.373 9.02148C33.291 9.12174 33.2135 9.25846 33.1406 9.43164C33.0768 9.5957 33.0221 9.78255 32.9766 9.99219C32.931 10.2018 32.89 10.4069 32.8535 10.6074C32.8171 10.8079 32.7897 10.9948 32.7715 11.168C32.7624 11.3411 32.7578 11.4733 32.7578 11.5645C32.7578 11.6009 32.7578 11.6738 32.7578 11.7832C32.7669 11.8926 32.7715 11.9655 32.7715 12.002C32.7806 12.0566 32.8034 12.1068 32.8398 12.1523C32.8763 12.1888 32.9128 12.2298 32.9492 12.2754H33.2637C33.6283 12.2754 33.9883 12.1934 34.3438 12.0293C34.7083 11.8652 35.0501 11.6784 35.3691 11.4688C35.3874 11.4596 35.4284 11.4186 35.4922 11.3457C35.5651 11.2637 35.6426 11.1862 35.7246 11.1133C35.8066 11.0312 35.8796 10.9583 35.9434 10.8945C36.0163 10.8307 36.0664 10.7988 36.0938 10.7988C36.1576 10.7988 36.2168 10.8307 36.2715 10.8945C36.3262 10.9583 36.3535 11.0267 36.3535 11.0996C36.3535 11.2728 36.2897 11.4414 36.1621 11.6055C36.0436 11.7695 35.8887 11.9245 35.6973 12.0703C35.5059 12.207 35.2871 12.3346 35.041 12.4531C34.7949 12.5716 34.5488 12.6719 34.3027 12.7539C34.0658 12.8359 33.8379 12.8997 33.6191 12.9453C33.4095 12.9909 33.2363 13.0137 33.0996 13.0137C32.972 13.0137 32.8398 13 32.7031 12.9727C32.5664 12.9362 32.4434 12.8815 32.334 12.8086C32.2246 12.7357 32.1335 12.6445 32.0605 12.5352C31.9876 12.4258 31.9512 12.2891 31.9512 12.125V10.6074L32.293 9.33594ZM35.9434 10.8672C35.9616 10.8125 35.9889 10.7168 36.0254 10.5801C36.071 10.4342 36.112 10.2793 36.1484 10.1152C36.194 9.95117 36.2305 9.79622 36.2578 9.65039C36.2943 9.49544 36.3216 9.39062 36.3398 9.33594C36.3945 9.11719 36.4583 8.88021 36.5312 8.625C36.6133 8.36979 36.7227 8.13281 36.8594 7.91406C36.9961 7.69531 37.1693 7.51758 37.3789 7.38086C37.5977 7.23503 37.8665 7.16211 38.1855 7.16211C38.304 7.16211 38.3861 7.20768 38.4316 7.29883C38.4863 7.38086 38.5319 7.47201 38.5684 7.57227C38.5684 7.60872 38.5684 7.67708 38.5684 7.77734C38.5775 7.86849 38.582 7.93229 38.582 7.96875C38.582 8.36068 38.541 8.70703 38.459 9.00781C38.3861 9.30859 38.2676 9.58659 38.1035 9.8418C37.9486 10.097 37.7572 10.3385 37.5293 10.5664C37.3014 10.7852 37.0417 11.0176 36.75 11.2637C36.7409 11.291 36.7272 11.3366 36.709 11.4004C36.6908 11.4642 36.6816 11.5098 36.6816 11.5371V11.5645C36.6816 11.7285 36.709 11.8607 36.7637 11.9609C36.8184 12.0612 36.8913 12.1432 36.9824 12.207C37.0827 12.2617 37.1921 12.2982 37.3105 12.3164C37.4382 12.3255 37.5749 12.3301 37.7207 12.3301C38.1491 12.3301 38.5592 12.2708 38.9512 12.1523C39.3431 12.0339 39.7031 11.8424 40.0312 11.5781C40.0768 11.5326 40.1315 11.4688 40.1953 11.3867C40.2682 11.2956 40.3411 11.2044 40.4141 11.1133C40.487 11.0221 40.5645 10.9447 40.6465 10.8809C40.7285 10.8079 40.8151 10.7715 40.9062 10.7715C40.9974 10.7715 41.0521 10.8079 41.0703 10.8809C41.0885 10.9538 41.0977 11.0267 41.0977 11.0996C41.0977 11.3001 41.0339 11.4915 40.9062 11.6738C40.7878 11.847 40.6283 12.0065 40.4277 12.1523C40.2363 12.2891 40.013 12.4121 39.7578 12.5215C39.5117 12.6309 39.2656 12.722 39.0195 12.7949C38.7734 12.8678 38.5365 12.9225 38.3086 12.959C38.0898 12.9954 37.903 13.0137 37.748 13.0137C37.265 13.0137 36.8594 12.9362 36.5312 12.7812C36.2122 12.6172 35.9935 12.2936 35.875 11.8105L35.9434 10.8672ZM37.8984 8.17383C37.7161 8.33789 37.5703 8.48828 37.4609 8.625C37.3607 8.7526 37.2786 8.88932 37.2148 9.03516C37.1602 9.17188 37.11 9.32227 37.0645 9.48633C37.028 9.65039 36.987 9.8418 36.9414 10.0605C37.1146 9.92383 37.2559 9.78711 37.3652 9.65039C37.4837 9.51367 37.5794 9.3724 37.6523 9.22656C37.7253 9.08073 37.7799 8.92578 37.8164 8.76172C37.8529 8.58854 37.8802 8.39258 37.8984 8.17383ZM41.002 10.8672C41.0202 10.8125 41.0475 10.7168 41.084 10.5801C41.1296 10.4342 41.1706 10.2793 41.207 10.1152C41.2526 9.95117 41.2891 9.79622 41.3164 9.65039C41.3529 9.49544 41.3802 9.39062 41.3984 9.33594C41.4531 9.11719 41.5169 8.88021 41.5898 8.625C41.6719 8.36979 41.7812 8.13281 41.918 7.91406C42.0547 7.69531 42.2279 7.51758 42.4375 7.38086C42.6562 7.23503 42.9251 7.16211 43.2441 7.16211C43.3626 7.16211 43.4447 7.20768 43.4902 7.29883C43.5449 7.38086 43.5905 7.47201 43.627 7.57227C43.627 7.60872 43.627 7.67708 43.627 7.77734C43.6361 7.86849 43.6406 7.93229 43.6406 7.96875C43.6406 8.36068 43.5996 8.70703 43.5176 9.00781C43.4447 9.30859 43.3262 9.58659 43.1621 9.8418C43.0072 10.097 42.8158 10.3385 42.5879 10.5664C42.36 10.7852 42.1003 11.0176 41.8086 11.2637C41.7995 11.291 41.7858 11.3366 41.7676 11.4004C41.7493 11.4642 41.7402 11.5098 41.7402 11.5371V11.5645C41.7402 11.7285 41.7676 11.8607 41.8223 11.9609C41.877 12.0612 41.9499 12.1432 42.041 12.207C42.1413 12.2617 42.2507 12.2982 42.3691 12.3164C42.4967 12.3255 42.6335 12.3301 42.7793 12.3301C43.2077 12.3301 43.6178 12.2708 44.0098 12.1523C44.4017 12.0339 44.7617 11.8424 45.0898 11.5781C45.1354 11.5326 45.1901 11.4688 45.2539 11.3867C45.3268 11.2956 45.3997 11.2044 45.4727 11.1133C45.5456 11.0221 45.623 10.9447 45.7051 10.8809C45.7871 10.8079 45.8737 10.7715 45.9648 10.7715C46.056 10.7715 46.1107 10.8079 46.1289 10.8809C46.1471 10.9538 46.1562 11.0267 46.1562 11.0996C46.1562 11.3001 46.0924 11.4915 45.9648 11.6738C45.8464 11.847 45.6868 12.0065 45.4863 12.1523C45.2949 12.2891 45.0716 12.4121 44.8164 12.5215C44.5703 12.6309 44.3242 12.722 44.0781 12.7949C43.832 12.8678 43.5951 12.9225 43.3672 12.959C43.1484 12.9954 42.9616 13.0137 42.8066 13.0137C42.3236 13.0137 41.918 12.9362 41.5898 12.7812C41.2708 12.6172 41.0521 12.2936 40.9336 11.8105L41.002 10.8672ZM42.957 8.17383C42.7747 8.33789 42.6289 8.48828 42.5195 8.625C42.4193 8.7526 42.3372 8.88932 42.2734 9.03516C42.2188 9.17188 42.1686 9.32227 42.123 9.48633C42.0866 9.65039 42.0456 9.8418 42 10.0605C42.1732 9.92383 42.3145 9.78711 42.4238 9.65039C42.5423 9.51367 42.638 9.3724 42.7109 9.22656C42.7839 9.08073 42.8385 8.92578 42.875 8.76172C42.9115 8.58854 42.9388 8.39258 42.957 8.17383ZM45.541 11.373C45.7962 11.1816 45.9831 10.9948 46.1016 10.8125C46.2292 10.6302 46.3294 10.4479 46.4023 10.2656C46.4753 10.0833 46.5345 9.89193 46.5801 9.69141C46.6257 9.48177 46.6986 9.25391 46.7988 9.00781C46.7624 8.94401 46.7396 8.88932 46.7305 8.84375C46.7305 8.78906 46.7305 8.72526 46.7305 8.65234C46.7305 8.57943 46.7396 8.49284 46.7578 8.39258C46.7852 8.29232 46.8216 8.20117 46.8672 8.11914C46.9128 8.02799 46.9674 7.95052 47.0312 7.88672C47.0951 7.82292 47.1725 7.79102 47.2637 7.79102C47.2546 7.82747 47.3047 7.86849 47.4141 7.91406C47.5326 7.95964 47.6738 8.00977 47.8379 8.06445C48.0111 8.11914 48.1934 8.17839 48.3848 8.24219C48.5762 8.30599 48.7448 8.37435 48.8906 8.44727C49.0547 8.53841 49.1686 8.63867 49.2324 8.74805C49.3053 8.84831 49.3418 8.99414 49.3418 9.18555C49.3418 9.35872 49.319 9.55469 49.2734 9.77344C49.237 9.99219 49.196 10.2155 49.1504 10.4434C49.1139 10.6621 49.0729 10.8854 49.0273 11.1133C48.9909 11.332 48.9727 11.5326 48.9727 11.7148V12.0703C48.9635 12.1523 48.9818 12.1979 49.0273 12.207C49.082 12.207 49.1322 12.207 49.1777 12.207C49.2871 12.207 49.3874 12.1888 49.4785 12.1523C49.5697 12.1159 49.6608 12.0749 49.752 12.0293C49.8522 11.9837 49.9479 11.9427 50.0391 11.9062C50.1302 11.8607 50.2259 11.8288 50.3262 11.8105L51.5293 11.0723C51.5658 11.0085 51.6113 10.9583 51.666 10.9219C51.7298 10.8763 51.7891 10.8353 51.8438 10.7988C51.9349 10.7441 52.0443 10.6667 52.1719 10.5664C52.2357 10.5117 52.304 10.457 52.377 10.4023H52.7871C52.8145 10.4023 52.8327 10.4297 52.8418 10.4844C52.8509 10.5391 52.8555 10.5801 52.8555 10.6074C52.8555 10.7168 52.778 10.8535 52.623 11.0176C52.4681 11.1816 52.2676 11.3503 52.0215 11.5234C51.7754 11.6966 51.502 11.8698 51.2012 12.043C50.9004 12.207 50.6042 12.3574 50.3125 12.4941C50.0299 12.6309 49.7656 12.7402 49.5195 12.8223C49.2826 12.9043 49.1003 12.9453 48.9727 12.9453C48.8086 12.9453 48.6764 12.9043 48.5762 12.8223C48.4759 12.7402 48.3939 12.64 48.3301 12.5215C48.2663 12.403 48.2207 12.2754 48.1934 12.1387C48.1751 11.9928 48.166 11.8516 48.166 11.7148C48.166 11.6146 48.1979 11.4733 48.2617 11.291C48.3255 11.1087 48.3984 10.9219 48.4805 10.7305C48.5625 10.5391 48.6354 10.3522 48.6992 10.1699C48.763 9.98763 48.7949 9.8418 48.7949 9.73242C48.7949 9.72331 48.7266 9.68685 48.5898 9.62305C48.4622 9.55924 48.321 9.49089 48.166 9.41797C48.0111 9.33594 47.8652 9.26758 47.7285 9.21289C47.6009 9.14909 47.5371 9.11263 47.5371 9.10352C47.3366 9.31315 47.1953 9.53646 47.1133 9.77344C47.0404 10.0104 46.9629 10.2565 46.8809 10.5117C46.8079 10.7669 46.694 11.0221 46.5391 11.2773C46.3932 11.5326 46.1426 11.7832 45.7871 12.0293C45.778 12.0293 45.7598 12.0247 45.7324 12.0156C45.696 12.0065 45.6641 11.9837 45.6367 11.9473C45.6003 11.9017 45.5729 11.8379 45.5547 11.7559C45.5365 11.6647 45.5319 11.5371 45.541 11.373ZM54.7695 15.502C55.0065 15.028 55.2161 14.5404 55.3984 14.0391C55.5898 13.5378 55.6855 13.0137 55.6855 12.4668C55.6855 12.3757 55.6719 12.2663 55.6445 12.1387C55.6263 12.0111 55.5898 11.888 55.5352 11.7695C55.4805 11.6419 55.4076 11.5326 55.3164 11.4414C55.2344 11.3503 55.1296 11.3047 55.002 11.3047C54.8288 11.3047 54.6875 11.3867 54.5781 11.5508C54.4688 11.7148 54.3685 11.8971 54.2773 12.0977C54.1862 12.2982 54.0996 12.4805 54.0176 12.6445C53.9355 12.8086 53.8444 12.8906 53.7441 12.8906H52.7188C52.7096 12.8906 52.6868 12.8724 52.6504 12.8359C52.6139 12.7904 52.5729 12.7448 52.5273 12.6992C52.4909 12.6445 52.459 12.5944 52.4316 12.5488C52.4043 12.4941 52.3906 12.4577 52.3906 12.4395C52.4362 12.2025 52.5501 11.9837 52.7324 11.7832C52.9147 11.5736 53.1289 11.3913 53.375 11.2363C53.6211 11.0723 53.8809 10.9492 54.1543 10.8672C54.4277 10.776 54.6693 10.7305 54.8789 10.7305C55.1068 10.7305 55.3118 10.7715 55.4941 10.8535C55.6855 10.9355 55.8451 11.0495 55.9727 11.1953C56.1003 11.3411 56.196 11.5143 56.2598 11.7148C56.3327 11.9062 56.3691 12.1159 56.3691 12.3438C56.3691 12.6901 56.3145 13.0365 56.2051 13.3828C56.0957 13.7292 55.959 14.0573 55.7949 14.3672C55.7402 14.4674 55.6673 14.5905 55.5762 14.7363C55.4941 14.8913 55.4076 15.0417 55.3164 15.1875C55.2344 15.3333 55.1615 15.4564 55.0977 15.5566C55.043 15.666 55.0111 15.7207 55.002 15.7207H54.7695V15.502ZM67.6621 12.0703C67.6621 11.8607 67.6758 11.651 67.7031 11.4414C67.7305 11.2227 67.7578 11.0085 67.7852 10.7988C67.8216 10.5892 67.849 10.3796 67.8672 10.1699C67.8854 9.95117 67.8809 9.73698 67.8535 9.52734L68.2227 6.91602L67.0742 8.46094L64.1348 11.3457C64.0436 11.4824 63.9616 11.6055 63.8887 11.7148C63.8249 11.8242 63.7064 11.8789 63.5332 11.8789C63.4147 11.8789 63.3418 11.8516 63.3145 11.7969C63.2871 11.7422 63.2734 11.6602 63.2734 11.5508C63.2734 11.4049 63.2962 11.2865 63.3418 11.1953C63.3965 11.0951 63.4831 10.9857 63.6016 10.8672L66.6641 7.92773L67.7988 6.39648C67.8353 6.32357 67.8763 6.23698 67.9219 6.13672C67.9766 6.03646 68.0358 5.94076 68.0996 5.84961C68.1634 5.74935 68.2227 5.66276 68.2773 5.58984C68.332 5.50781 68.373 5.44857 68.4004 5.41211C68.5553 4.87435 68.7422 4.33659 68.9609 3.79883C69.1797 3.25195 69.4395 2.74154 69.7402 2.26758C69.7949 2.16732 69.8906 2.11719 70.0273 2.11719C70.1094 2.11719 70.1914 2.13997 70.2734 2.18555C70.3646 2.23112 70.4102 2.29948 70.4102 2.39062C70.4102 2.39974 70.4056 2.41341 70.3965 2.43164C70.3965 2.44987 70.3965 2.46354 70.3965 2.47266C70.3965 2.48177 70.3874 2.52279 70.3691 2.5957C70.3509 2.66862 70.3372 2.71419 70.3281 2.73242C70.2096 2.9694 70.082 3.24284 69.9453 3.55273C69.8177 3.85352 69.6947 4.16797 69.5762 4.49609C69.4577 4.82422 69.3529 5.15234 69.2617 5.48047C69.1706 5.80859 69.1113 6.11393 69.084 6.39648L68.4688 11.3457V12.207C68.5508 12.1706 68.6875 12.1022 68.8789 12.002C69.0703 11.8926 69.2708 11.7786 69.4805 11.6602C69.6992 11.5326 69.8997 11.4141 70.082 11.3047C70.2643 11.1953 70.3919 11.1178 70.4648 11.0723C70.5286 11.0176 70.6471 10.9264 70.8203 10.7988C70.9935 10.6712 71.1758 10.5345 71.3672 10.3887C71.5586 10.2337 71.7363 10.0879 71.9004 9.95117C72.0736 9.81445 72.2012 9.71875 72.2832 9.66406C72.3014 9.63672 72.3607 9.57747 72.4609 9.48633C72.5612 9.38607 72.6706 9.27214 72.7891 9.14453C72.9076 9.00781 73.0215 8.88021 73.1309 8.76172C73.2493 8.63411 73.3405 8.53385 73.4043 8.46094C73.5046 8.35156 73.6094 8.22852 73.7188 8.0918C73.8281 7.95508 73.9284 7.80924 74.0195 7.6543C74.1198 7.49023 74.2064 7.33073 74.2793 7.17578C74.3613 7.02083 74.4251 6.875 74.4707 6.73828L75.7285 2.0625C75.7376 2.01693 75.7559 1.95312 75.7832 1.87109C75.8197 1.78906 75.8561 1.70703 75.8926 1.625C75.9382 1.54297 75.9883 1.47461 76.043 1.41992C76.1068 1.36523 76.1797 1.33789 76.2617 1.33789C76.3802 1.33789 76.4668 1.39258 76.5215 1.50195C76.5853 1.60221 76.6172 1.69792 76.6172 1.78906C76.6172 1.81641 76.6126 1.85742 76.6035 1.91211C76.5944 1.95768 76.5898 1.98503 76.5898 1.99414L76.125 4.40039V4.46875L75.1953 7.06641L74.7988 10.4707C74.7897 10.4889 74.7852 10.5117 74.7852 10.5391V10.6621C74.7852 10.8535 74.7897 11.0358 74.7988 11.209C74.8079 11.3822 74.8398 11.5326 74.8945 11.6602C74.9492 11.7786 75.0312 11.8789 75.1406 11.9609C75.2591 12.043 75.4232 12.084 75.6328 12.084C76.3164 11.61 76.8587 11.291 77.2598 11.127C77.6699 10.9538 77.957 10.8854 78.1211 10.9219C78.2943 10.9492 78.349 11.0495 78.2852 11.2227C78.2305 11.3867 78.0801 11.5736 77.834 11.7832C77.5879 11.9928 77.2552 12.1979 76.8359 12.3984C76.4258 12.599 75.9518 12.7402 75.4141 12.8223C75.1315 12.8223 74.8991 12.763 74.7168 12.6445C74.5345 12.526 74.3887 12.3711 74.2793 12.1797C74.179 11.9883 74.1061 11.7741 74.0605 11.5371C74.0241 11.291 74.0059 11.0449 74.0059 10.7988C74.0059 10.4616 74.0241 10.1289 74.0605 9.80078C74.1061 9.47266 74.1289 9.13997 74.1289 8.80273V8.61133C74.1289 8.61133 74.1198 8.62044 74.1016 8.63867C74.0833 8.64779 74.0697 8.6569 74.0605 8.66602C73.8965 8.86654 73.7415 9.05794 73.5957 9.24023C73.459 9.41341 73.3086 9.58659 73.1445 9.75977C72.9896 9.92383 72.821 10.0879 72.6387 10.252C72.4564 10.416 72.2422 10.5755 71.9961 10.7305L68.7969 12.8086C68.7057 12.8724 68.5964 12.9225 68.4688 12.959C68.3411 12.9954 68.2181 13.0137 68.0996 13.0137C67.9993 13.0137 67.9082 12.9818 67.8262 12.918C67.7533 12.8542 67.6986 12.7721 67.6621 12.6719V12.0703ZM74.1973 8.39258C74.1608 8.39258 74.1426 8.41992 74.1426 8.47461C74.1426 8.52018 74.1608 8.54297 74.1973 8.54297C74.2337 8.54297 74.252 8.52018 74.252 8.47461C74.252 8.41992 74.2337 8.39258 74.1973 8.39258ZM80.5 12.5078C80.5 12.4622 80.5 12.4212 80.5 12.3848C80.5091 12.3483 80.5319 12.3118 80.5684 12.2754C80.5866 12.2754 80.6139 12.2754 80.6504 12.2754C80.696 12.2663 80.7279 12.2617 80.7461 12.2617C80.9102 12.2617 81.0651 12.2754 81.2109 12.3027C81.3659 12.3301 81.5254 12.3438 81.6895 12.3438C81.9902 12.3438 82.2773 12.3027 82.5508 12.2207C82.8242 12.1387 83.0658 12.0202 83.2754 11.8652C83.4941 11.7012 83.6673 11.5007 83.7949 11.2637C83.9225 11.0176 83.9863 10.7305 83.9863 10.4023C83.9863 10.2109 83.9544 10.0195 83.8906 9.82812C83.8359 9.63672 83.7585 9.44987 83.6582 9.26758C83.5579 9.08529 83.444 8.91667 83.3164 8.76172C83.1888 8.59766 83.0521 8.45638 82.9062 8.33789L79.8438 5.80859C79.8255 5.78125 79.7799 5.73568 79.707 5.67188C79.6432 5.59896 79.5931 5.55339 79.5566 5.53516L79.543 5.5625C79.5339 5.5625 79.5247 5.5625 79.5156 5.5625H79.502V10.9355L79.4336 11.9336C79.4336 12.0156 79.3926 12.0794 79.3105 12.125C79.2285 12.1615 79.1602 12.1888 79.1055 12.207C78.9961 12.2161 78.9141 12.1979 78.8594 12.1523C78.8138 12.1068 78.7773 12.043 78.75 11.9609C78.7227 11.8789 78.709 11.7923 78.709 11.7012C78.709 11.61 78.709 11.5326 78.709 11.4688V4.53711C78.5267 4.25456 78.3763 3.96745 78.2578 3.67578C78.1484 3.38411 78.0938 3.06966 78.0938 2.73242C78.0938 2.65039 78.0983 2.54102 78.1074 2.4043C78.1165 2.26758 78.1348 2.13542 78.1621 2.00781C78.1986 1.87109 78.2533 1.75716 78.3262 1.66602C78.4082 1.56576 78.5176 1.51562 78.6543 1.51562C78.7454 1.51562 78.8092 1.55208 78.8457 1.625C78.8913 1.69792 78.9141 1.77539 78.9141 1.85742C78.9141 1.99414 78.9004 2.12174 78.873 2.24023C78.8457 2.35872 78.832 2.48633 78.832 2.62305C78.832 2.70508 78.8275 2.8099 78.8184 2.9375C78.8184 3.0651 78.8457 3.17448 78.9004 3.26562C78.9095 3.15625 78.9141 3.01042 78.9141 2.82812C78.9232 2.64583 78.946 2.4681 78.9824 2.29492C79.0189 2.12174 79.0781 1.97135 79.1602 1.84375C79.2513 1.71615 79.388 1.65234 79.5703 1.65234C79.6432 1.65234 79.707 1.67057 79.7617 1.70703C79.8164 1.73438 79.8438 1.78906 79.8438 1.87109V3.26562C79.7344 3.38411 79.6706 3.52083 79.6523 3.67578C79.6432 3.82161 79.6387 3.96745 79.6387 4.11328V4.29102C79.6387 4.31836 79.6432 4.35482 79.6523 4.40039C79.6615 4.42773 79.6797 4.46419 79.707 4.50977C79.7435 4.55534 79.7799 4.61003 79.8164 4.67383C79.862 4.72852 79.903 4.7832 79.9395 4.83789C79.9759 4.88346 80.0078 4.91992 80.0352 4.94727L83.1113 7.46289C83.5762 7.85482 83.959 8.29688 84.2598 8.78906C84.5605 9.27214 84.7109 9.81901 84.7109 10.4297C84.7109 10.8307 84.6289 11.1908 84.4648 11.5098C84.3008 11.8197 84.082 12.0885 83.8086 12.3164C83.5352 12.5352 83.2207 12.7038 82.8652 12.8223C82.5189 12.9408 82.1589 13 81.7852 13C81.7122 13 81.6029 12.9954 81.457 12.9863C81.3112 12.9772 81.1654 12.959 81.0195 12.9316C80.8828 12.9043 80.7598 12.8587 80.6504 12.7949C80.5501 12.7311 80.5 12.6354 80.5 12.5078ZM85.4355 7.64062C85.3444 7.14844 85.3581 6.63346 85.4766 6.0957C85.6042 5.54883 85.8047 5.00651 86.0781 4.46875C86.3516 3.93099 86.6888 3.41602 87.0898 2.92383C87.4909 2.42253 87.9193 1.97135 88.375 1.57031C88.8398 1.16927 89.3229 0.832031 89.8242 0.558594C90.3346 0.285156 90.8314 0.0983073 91.3145 -0.00195312C91.4603 -0.00195312 91.5879 0.0436198 91.6973 0.134766C91.8158 0.225911 91.916 0.339844 91.998 0.476562C92.0801 0.613281 92.1393 0.759115 92.1758 0.914062C92.2214 1.06901 92.2441 1.21029 92.2441 1.33789V2.66406C92.2441 2.75521 92.2077 2.81445 92.1348 2.8418C92.0618 2.86003 91.998 2.86914 91.9434 2.86914C91.8796 2.86914 91.8021 2.86003 91.7109 2.8418C91.6198 2.82357 91.5742 2.76432 91.5742 2.66406C91.5742 2.6276 91.5697 2.56836 91.5605 2.48633C91.5514 2.4043 91.5423 2.31315 91.5332 2.21289C91.5241 2.11263 91.515 2.01693 91.5059 1.92578C91.5059 1.83464 91.5059 1.77539 91.5059 1.74805C91.5059 1.72982 91.5013 1.67057 91.4922 1.57031C91.4922 1.46094 91.4831 1.35156 91.4648 1.24219C91.4466 1.13281 91.4193 1.03255 91.3828 0.941406C91.3464 0.85026 91.3008 0.804688 91.2461 0.804688H90.7676C90.7676 0.804688 90.7266 0.827474 90.6445 0.873047C90.5625 0.909505 90.4668 0.955078 90.3574 1.00977C90.248 1.06445 90.1387 1.1237 90.0293 1.1875C89.9199 1.24219 89.8379 1.29232 89.7832 1.33789C89.7559 1.35612 89.7103 1.38802 89.6465 1.43359C89.5918 1.47917 89.5326 1.52474 89.4688 1.57031C89.4049 1.61589 89.3457 1.66146 89.291 1.70703C89.2363 1.7526 89.1953 1.78451 89.168 1.80273C88.6758 2.27669 88.2474 2.71875 87.8828 3.12891C87.5182 3.52995 87.2129 3.94922 86.9668 4.38672C86.7207 4.82422 86.5339 5.29818 86.4062 5.80859C86.2878 6.3099 86.2285 6.9069 86.2285 7.59961C86.2285 7.87305 86.2422 8.17839 86.2695 8.51562C86.306 8.84375 86.3561 9.18099 86.4199 9.52734C86.4928 9.8737 86.5931 10.2155 86.7207 10.5527C86.8483 10.8809 87.0078 11.1725 87.1992 11.4277C87.3906 11.6829 87.623 11.888 87.8965 12.043C88.1699 12.1979 88.4935 12.2754 88.8672 12.2754H89.168C89.5781 12.1387 89.9382 12.0156 90.248 11.9062C90.5671 11.7878 90.8496 11.6693 91.0957 11.5508C91.3509 11.4323 91.5788 11.3047 91.7793 11.168C91.9889 11.0221 92.1895 10.849 92.3809 10.6484C92.5814 10.4479 92.7865 10.2064 92.9961 9.92383C93.2057 9.64128 93.4427 9.30859 93.707 8.92578C93.7161 8.92578 93.7298 8.92578 93.748 8.92578C93.7663 8.91667 93.7845 8.91211 93.8027 8.91211C93.9668 8.91211 94.0488 8.99414 94.0488 9.1582C94.0488 9.36784 93.9941 9.60482 93.8848 9.86914C93.7845 10.1243 93.5931 10.4069 93.3105 10.7168C93.0371 11.0267 92.6497 11.3548 92.1484 11.7012C91.6562 12.0384 91.0228 12.3802 90.248 12.7266C90.1022 12.7904 89.9746 12.8451 89.8652 12.8906C89.7559 12.9271 89.651 12.9544 89.5508 12.9727C89.4505 12.9909 89.3457 13 89.2363 13C89.1361 13.0091 89.0221 13.0137 88.8945 13.0137C88.4206 13.0137 88.0059 12.9316 87.6504 12.7676C87.304 12.6035 87.0033 12.3848 86.748 12.1113C86.4928 11.8288 86.2786 11.5098 86.1055 11.1543C85.9414 10.7897 85.8092 10.4069 85.709 10.0059C85.6087 9.5957 85.5358 9.1901 85.4902 8.78906C85.4538 8.37891 85.4355 7.99609 85.4355 7.64062ZM93.7891 12.5898C93.7891 12.5807 93.7936 12.5579 93.8027 12.5215C93.8118 12.4759 93.8164 12.4486 93.8164 12.4395L97.2207 5.83594C97.3665 5.57161 97.4622 5.33464 97.5078 5.125C97.5534 4.90625 97.5762 4.66471 97.5762 4.40039C97.5762 4.26367 97.5716 4.14062 97.5625 4.03125C97.5534 3.92188 97.5169 3.80794 97.4531 3.68945C97.4258 3.68945 97.3757 3.68945 97.3027 3.68945C97.2298 3.68034 97.1842 3.67578 97.166 3.67578C96.8561 3.67578 96.5645 3.73047 96.291 3.83984C96.0267 3.94922 95.776 4.09505 95.5391 4.27734C95.3112 4.45052 95.0924 4.64648 94.8828 4.86523C94.6732 5.08398 94.4681 5.29818 94.2676 5.50781C94.1855 5.48047 94.1035 5.44401 94.0215 5.39844C93.9486 5.34375 93.9121 5.26628 93.9121 5.16602C93.9121 4.99284 93.9714 4.82422 94.0898 4.66016C94.2083 4.49609 94.3542 4.34115 94.5273 4.19531C94.7096 4.04036 94.9147 3.90365 95.1426 3.78516C95.3704 3.65755 95.5892 3.54362 95.7988 3.44336C96.0176 3.33398 96.2227 3.2474 96.4141 3.18359C96.6055 3.11068 96.7559 3.05143 96.8652 3.00586C96.8926 3.00586 96.9245 3.00586 96.9609 3.00586C97.0065 2.99674 97.0521 2.99219 97.0977 2.99219C97.1523 2.99219 97.1979 2.99219 97.2344 2.99219C97.2799 2.98307 97.3118 2.97852 97.3301 2.97852C97.4759 2.97852 97.6172 2.98763 97.7539 3.00586C97.8997 3.01497 98.0228 3.08789 98.123 3.22461C98.1413 3.27018 98.1595 3.3431 98.1777 3.44336C98.2051 3.54362 98.2324 3.64844 98.2598 3.75781C98.2871 3.85807 98.3053 3.95833 98.3145 4.05859C98.3327 4.15885 98.3418 4.22266 98.3418 4.25C98.3418 4.30469 98.3327 4.39128 98.3145 4.50977C98.3053 4.61914 98.2871 4.73307 98.2598 4.85156C98.2324 4.97005 98.2051 5.08398 98.1777 5.19336C98.1595 5.29362 98.1413 5.36198 98.123 5.39844L96.6465 8.58398C96.6283 8.60221 96.5918 8.6569 96.5371 8.74805C96.4824 8.83008 96.446 8.88477 96.4277 8.91211C96.3457 9.05794 96.25 9.23568 96.1406 9.44531C96.0404 9.65495 95.9264 9.8737 95.7988 10.1016C95.6803 10.3294 95.5618 10.5527 95.4434 10.7715C95.334 10.9902 95.2337 11.1908 95.1426 11.373C95.0514 11.5462 94.9785 11.6921 94.9238 11.8105C94.8691 11.9199 94.8418 11.9746 94.8418 11.9746V12.084C95.1699 12.084 95.5208 12.0703 95.8945 12.043C96.2682 12.0156 96.6419 11.9746 97.0156 11.9199C97.3984 11.8561 97.7721 11.765 98.1367 11.6465C98.5013 11.528 98.8385 11.3776 99.1484 11.1953C99.1576 11.2135 99.1621 11.2454 99.1621 11.291C99.1712 11.3275 99.1758 11.3457 99.1758 11.3457C99.1758 11.5189 99.0938 11.6693 98.9297 11.7969C98.7747 11.9154 98.5879 12.0202 98.3691 12.1113C98.1504 12.1934 97.9316 12.2617 97.7129 12.3164C97.4941 12.3711 97.3301 12.4121 97.2207 12.4395C97.1113 12.4577 96.9199 12.4987 96.6465 12.5625C96.3822 12.6172 96.0996 12.6764 95.7988 12.7402C95.5072 12.7949 95.2246 12.8496 94.9512 12.9043C94.6777 12.9499 94.4909 12.9818 94.3906 13C94.3724 13 94.3405 13 94.2949 13C94.2493 13.0091 94.222 13.0137 94.2129 13.0137C94.0853 13.0137 93.9805 12.9772 93.8984 12.9043C93.8255 12.8314 93.7891 12.7266 93.7891 12.5898ZM99.8047 8.92578C99.8047 8.54297 99.8411 8.11458 99.9141 7.64062C99.987 7.16667 100.101 6.68815 100.256 6.20508C100.411 5.72201 100.602 5.25716 100.83 4.81055C101.067 4.35482 101.34 3.95378 101.65 3.60742C101.96 3.25195 102.311 2.9694 102.703 2.75977C103.104 2.54102 103.542 2.43164 104.016 2.43164C104.143 2.43164 104.316 2.44076 104.535 2.45898C104.754 2.47721 104.964 2.52279 105.164 2.5957C105.374 2.66862 105.551 2.77344 105.697 2.91016C105.852 3.03776 105.93 3.20638 105.93 3.41602V3.4707C105.93 3.48893 105.916 3.52539 105.889 3.58008C105.861 3.63477 105.839 3.67122 105.82 3.68945C105.811 3.69857 105.807 3.70312 105.807 3.70312H105.779H105.738C105.729 3.70312 105.72 3.69857 105.711 3.68945C105.693 3.68034 105.656 3.65299 105.602 3.60742C105.556 3.56185 105.501 3.51628 105.438 3.4707C105.374 3.41602 105.314 3.36589 105.26 3.32031C105.205 3.27474 105.169 3.24284 105.15 3.22461H105.123C105.114 3.22461 105.105 3.22461 105.096 3.22461C105.087 3.22461 105.077 3.22461 105.068 3.22461C105.059 3.22461 105.05 3.22461 105.041 3.22461C105.615 4.09049 106.044 4.97917 106.326 5.89062C106.609 6.79297 106.75 7.76367 106.75 8.80273C106.75 9.30404 106.695 9.80534 106.586 10.3066C106.486 10.8079 106.312 11.2591 106.066 11.6602C105.829 12.0612 105.515 12.3893 105.123 12.6445C104.731 12.8906 104.239 13.0137 103.646 13.0137C103.109 13.0137 102.603 12.8997 102.129 12.6719C101.664 12.444 101.258 12.1387 100.912 11.7559C100.566 11.373 100.292 10.9401 100.092 10.457C99.9004 9.96484 99.8047 9.45443 99.8047 8.92578ZM100.256 9.19922C100.256 9.68229 100.342 10.1289 100.516 10.5391C100.698 10.9401 100.949 11.2865 101.268 11.5781C101.587 11.8698 101.96 12.0931 102.389 12.248C102.817 12.3939 103.282 12.4577 103.783 12.4395C104.212 12.4121 104.572 12.2936 104.863 12.084C105.155 11.8652 105.387 11.5964 105.561 11.2773C105.743 10.9583 105.87 10.6074 105.943 10.2246C106.016 9.83268 106.053 9.45898 106.053 9.10352C106.053 8.81185 106.039 8.46549 106.012 8.06445C105.993 7.66341 105.943 7.2487 105.861 6.82031C105.788 6.38281 105.684 5.94987 105.547 5.52148C105.419 5.0931 105.246 4.71029 105.027 4.37305C104.809 4.02669 104.544 3.7487 104.234 3.53906C103.934 3.32943 103.569 3.22461 103.141 3.22461C102.84 3.22461 102.557 3.3431 102.293 3.58008C102.038 3.81706 101.801 4.1224 101.582 4.49609C101.372 4.86979 101.181 5.28451 101.008 5.74023C100.844 6.19596 100.702 6.64714 100.584 7.09375C100.475 7.54036 100.393 7.95052 100.338 8.32422C100.283 8.69792 100.256 8.98958 100.256 9.19922ZM107.516 12.5898C107.516 12.5807 107.52 12.5579 107.529 12.5215C107.538 12.4759 107.543 12.4486 107.543 12.4395L110.947 5.83594C111.093 5.57161 111.189 5.33464 111.234 5.125C111.28 4.90625 111.303 4.66471 111.303 4.40039C111.303 4.26367 111.298 4.14062 111.289 4.03125C111.28 3.92188 111.243 3.80794 111.18 3.68945C111.152 3.68945 111.102 3.68945 111.029 3.68945C110.956 3.68034 110.911 3.67578 110.893 3.67578C110.583 3.67578 110.291 3.73047 110.018 3.83984C109.753 3.94922 109.503 4.09505 109.266 4.27734C109.038 4.45052 108.819 4.64648 108.609 4.86523C108.4 5.08398 108.195 5.29818 107.994 5.50781C107.912 5.48047 107.83 5.44401 107.748 5.39844C107.675 5.34375 107.639 5.26628 107.639 5.16602C107.639 4.99284 107.698 4.82422 107.816 4.66016C107.935 4.49609 108.081 4.34115 108.254 4.19531C108.436 4.04036 108.641 3.90365 108.869 3.78516C109.097 3.65755 109.316 3.54362 109.525 3.44336C109.744 3.33398 109.949 3.2474 110.141 3.18359C110.332 3.11068 110.482 3.05143 110.592 3.00586C110.619 3.00586 110.651 3.00586 110.688 3.00586C110.733 2.99674 110.779 2.99219 110.824 2.99219C110.879 2.99219 110.924 2.99219 110.961 2.99219C111.007 2.98307 111.038 2.97852 111.057 2.97852C111.202 2.97852 111.344 2.98763 111.48 3.00586C111.626 3.01497 111.749 3.08789 111.85 3.22461C111.868 3.27018 111.886 3.3431 111.904 3.44336C111.932 3.54362 111.959 3.64844 111.986 3.75781C112.014 3.85807 112.032 3.95833 112.041 4.05859C112.059 4.15885 112.068 4.22266 112.068 4.25C112.068 4.30469 112.059 4.39128 112.041 4.50977C112.032 4.61914 112.014 4.73307 111.986 4.85156C111.959 4.97005 111.932 5.08398 111.904 5.19336C111.886 5.29362 111.868 5.36198 111.85 5.39844L110.373 8.58398C110.355 8.60221 110.318 8.6569 110.264 8.74805C110.209 8.83008 110.173 8.88477 110.154 8.91211C110.072 9.05794 109.977 9.23568 109.867 9.44531C109.767 9.65495 109.653 9.8737 109.525 10.1016C109.407 10.3294 109.288 10.5527 109.17 10.7715C109.061 10.9902 108.96 11.1908 108.869 11.373C108.778 11.5462 108.705 11.6921 108.65 11.8105C108.596 11.9199 108.568 11.9746 108.568 11.9746V12.084C108.896 12.084 109.247 12.0703 109.621 12.043C109.995 12.0156 110.368 11.9746 110.742 11.9199C111.125 11.8561 111.499 11.765 111.863 11.6465C112.228 11.528 112.565 11.3776 112.875 11.1953C112.884 11.2135 112.889 11.2454 112.889 11.291C112.898 11.3275 112.902 11.3457 112.902 11.3457C112.902 11.5189 112.82 11.6693 112.656 11.7969C112.501 11.9154 112.314 12.0202 112.096 12.1113C111.877 12.1934 111.658 12.2617 111.439 12.3164C111.221 12.3711 111.057 12.4121 110.947 12.4395C110.838 12.4577 110.646 12.4987 110.373 12.5625C110.109 12.6172 109.826 12.6764 109.525 12.7402C109.234 12.7949 108.951 12.8496 108.678 12.9043C108.404 12.9499 108.217 12.9818 108.117 13C108.099 13 108.067 13 108.021 13C107.976 13.0091 107.949 13.0137 107.939 13.0137C107.812 13.0137 107.707 12.9772 107.625 12.9043C107.552 12.8314 107.516 12.7266 107.516 12.5898ZM116.484 7.36719C116.238 7.36719 115.997 7.38997 115.76 7.43555C115.532 7.48112 115.299 7.53125 115.062 7.58594C114.835 7.63151 114.602 7.67708 114.365 7.72266C114.128 7.75911 113.887 7.77734 113.641 7.77734C113.549 7.77734 113.467 7.74544 113.395 7.68164C113.331 7.61784 113.299 7.53581 113.299 7.43555V7.38086C113.299 7.36263 113.303 7.3444 113.312 7.32617C113.349 7.25326 113.395 7.13477 113.449 6.9707C113.513 6.79753 113.581 6.60612 113.654 6.39648C113.736 6.18685 113.814 5.9681 113.887 5.74023C113.969 5.51237 114.046 5.29362 114.119 5.08398C114.201 4.87435 114.27 4.6875 114.324 4.52344C114.379 4.35026 114.42 4.22266 114.447 4.14062C114.465 4.10417 114.484 4.03125 114.502 3.92188C114.529 3.8125 114.552 3.69857 114.57 3.58008C114.598 3.46159 114.62 3.34766 114.639 3.23828C114.666 3.12891 114.68 3.05143 114.68 3.00586C114.716 2.94206 114.771 2.89193 114.844 2.85547C114.926 2.8099 115.008 2.78711 115.09 2.78711H115.131C115.149 2.79622 115.186 2.81445 115.24 2.8418C115.304 2.86003 115.34 2.87826 115.35 2.89648C115.35 2.92383 115.35 2.97396 115.35 3.04688C115.359 3.11068 115.363 3.15625 115.363 3.18359C115.363 3.52083 115.313 3.83984 115.213 4.14062C115.113 4.44141 114.999 4.74219 114.871 5.04297C114.743 5.33464 114.625 5.63086 114.516 5.93164C114.415 6.22331 114.365 6.52865 114.365 6.84766C114.739 6.84766 115.113 6.80664 115.486 6.72461C115.86 6.63346 116.229 6.56966 116.594 6.5332L117.182 1.63867C117.191 1.53841 117.241 1.45638 117.332 1.39258C117.432 1.32878 117.528 1.29688 117.619 1.29688C117.71 1.29688 117.788 1.32422 117.852 1.37891C117.924 1.42448 117.961 1.49284 117.961 1.58398V1.63867C117.879 2.36784 117.779 3.07422 117.66 3.75781C117.551 4.44141 117.496 5.13411 117.496 5.83594C117.496 6 117.514 6.15039 117.551 6.28711C117.596 6.41471 117.619 6.55143 117.619 6.69727V6.76562C117.61 6.79297 117.578 6.86589 117.523 6.98438C117.469 7.10286 117.428 7.18034 117.4 7.2168C117.355 8.13737 117.327 9.06706 117.318 10.0059C117.318 10.9355 117.273 11.8607 117.182 12.7812C117.173 12.8086 117.136 12.8496 117.072 12.9043C117.018 12.959 116.977 12.9909 116.949 13C116.904 13.0182 116.854 13.0091 116.799 12.9727C116.753 12.9362 116.703 12.8952 116.648 12.8496C116.603 12.7949 116.562 12.7402 116.525 12.6855C116.498 12.6217 116.484 12.5762 116.484 12.5488V7.36719Z" fill="#6C6C6C"/>
</svg>
