<svg width="136" height="118" viewBox="0 0 136 118" fill="none" xmlns="http://www.w3.org/2000/svg">
    <g filter="url(#filter0_d_391_2426)">
    <path d="M32.0054 18.5879C32.6603 10.1452 44.0558 7.99314 47.7447 15.6155L53.3529 27.2038C54.6382 29.8597 57.2374 31.6331 60.179 31.8613L73.0146 32.857C81.4572 33.5119 83.6093 44.9074 75.987 48.5962L64.3986 54.2045C61.7428 55.4898 59.9694 58.0889 59.7412 61.0306L58.7455 73.8661C58.0906 82.3088 46.6951 84.4609 43.0062 76.8385L37.398 65.2502C36.1127 62.5943 33.5135 60.821 30.5719 60.5928L17.7363 59.5971C9.29366 58.9421 7.14158 47.5466 14.7639 43.8578L26.3523 38.2495C29.0081 36.9642 30.7815 34.3651 31.0097 31.4234L32.0054 18.5879Z" fill="#A180FF"/>
    <path d="M84.1951 64.6679C84.2576 60.2978 90.0574 58.8183 92.2056 62.6245L95.4716 68.4111C96.2202 69.7373 97.6167 70.5662 99.1394 70.588L105.783 70.6831C110.154 70.7456 111.633 76.5454 107.827 78.6936L102.04 81.9596C100.714 82.7082 99.8852 84.1047 99.8634 85.6274L99.7683 92.2714C99.7058 96.6416 93.906 98.121 91.7578 94.3148L88.4917 88.5282C87.7432 87.202 86.3467 86.3732 84.824 86.3514L78.18 86.2563C73.8098 86.1938 72.3303 80.394 76.1365 78.2458L81.9231 74.9797C83.2493 74.2312 84.0782 72.8347 84.1 71.312L84.1951 64.6679Z" fill="#A180FF"/>
    <path d="M79.415 64.1699C79.9067 55.3815 91.5217 52.4185 96.1631 59.8975L96.3818 60.2676L99.502 65.7969L105.852 65.8877C115.116 66.0203 118.252 78.316 110.184 82.8701L104.653 85.9902L104.563 92.3398C104.431 101.604 92.1362 104.74 87.582 96.6719L84.46 91.1416L78.1113 91.0508C68.8471 90.9182 65.7105 78.6234 73.7793 74.0693L79.3086 70.9482L79.4004 64.5996L79.415 64.1699ZM27.2246 18.2168C28.2583 4.89434 46.2405 1.49829 52.0615 13.5264L57.6689 25.1152C58.2113 26.2359 59.3086 26.9837 60.5498 27.0801L73.3857 28.0762C86.7081 29.1099 90.1042 47.092 78.0762 52.9131L66.4873 58.5205C65.3666 59.0629 64.6188 60.1601 64.5225 61.4014L63.5264 74.2373C62.4926 87.5597 44.5105 90.9557 38.6895 78.9277L33.0811 67.3389C32.5386 66.2184 31.4423 65.4704 30.2012 65.374L17.3652 64.3779C4.04278 63.3443 0.646726 45.3621 12.6748 39.541L24.2637 33.9326C25.3841 33.3902 26.1322 32.2938 26.2285 31.0527L27.2246 18.2168Z" stroke="white" stroke-width="9.59078"/>
    </g>
    <defs>
    <filter id="filter0_d_391_2426" x="0.476562" y="0.326172" width="135.141" height="116.778" filterUnits="userSpaceOnUse" color-interpolation-filters="sRGB">
    <feFlood flood-opacity="0" result="BackgroundImageFix"/>
    <feColorMatrix in="SourceAlpha" type="matrix" values="0 0 0 0 0 0 0 0 0 0 0 0 0 0 0 0 0 0 127 0" result="hardAlpha"/>
    <feOffset dx="10" dy="5"/>
    <feGaussianBlur stdDeviation="3"/>
    <feComposite in2="hardAlpha" operator="out"/>
    <feColorMatrix type="matrix" values="0 0 0 0 0 0 0 0 0 0 0 0 0 0 0 0 0 0 0.25 0"/>
    <feBlend mode="normal" in2="BackgroundImageFix" result="effect1_dropShadow_391_2426"/>
    <feBlend mode="normal" in="SourceGraphic" in2="effect1_dropShadow_391_2426" result="shape"/>
    </filter>
    </defs>
    </svg>
    