<svg width="79" height="91" viewBox="0 0 79 91" fill="none" xmlns="http://www.w3.org/2000/svg">
<path d="M41.0032 35.3425C41.638 35.8998 42.3587 36.323 42.7887 36.9468C43.4431 37.8958 43.4583 38.7824 41.9272 40.1529C40.6003 41.3407 39.0934 42.2862 37.3594 42.7934C36.1725 43.1406 33.9021 42.9682 33.0684 41.4322C32.8623 41.0525 32.6665 41.1281 32.5403 41.5308C32.1964 42.6278 31.6621 43.6985 31.5276 44.8186C31.381 46.0395 31.5756 47.306 31.6748 48.5484C31.6993 48.8552 31.9305 49.1457 32.0668 49.4436C32.3137 49.2786 32.6117 49.1577 32.7995 48.9413C34.3146 47.1955 36.2579 46.3315 38.5255 46.3156C39.6549 46.3078 40.5771 46.9723 41.0377 48.0187C41.1664 48.3111 40.9366 48.9487 40.6624 49.1992C39.3638 50.3854 37.9405 51.3744 36.2455 51.9832C34.792 52.5054 33.566 52.3991 32.4734 51.2733C32.4088 51.2067 32.3089 51.1743 32.2254 51.1259C32.1544 51.3328 32.0239 51.5393 32.0225 51.7466C32.0158 52.7094 31.8681 53.6558 32.1616 54.6359C32.5716 56.0048 32.7951 57.4238 33.6284 58.641C33.9907 59.1701 34.11 59.1902 34.4972 58.6999C35.7666 57.0921 37.2651 55.7588 39.1883 54.9779C40.2112 54.5625 41.1305 54.9526 41.7562 56.0154C42.7845 57.7622 42.6664 58.11 41.2669 59.6653C40.1931 60.8587 38.8155 61.4315 37.3811 61.8514C36.2617 62.1791 35.2087 61.6609 34.3433 60.9163C33.9471 60.5755 33.8689 60.6541 33.7766 61.1063C33.6273 61.8361 33.3866 62.5488 33.2646 63.282C33.1396 64.0321 33.3171 64.7255 33.7903 65.3641C34.4533 66.2586 35.0412 67.2085 35.6817 68.1204C36.1873 68.8405 37.0474 69.0556 37.896 68.6637C38.6406 68.3198 39.3501 67.8984 40.1011 67.5709C40.4246 67.4297 40.8351 67.3421 41.1653 67.4151C41.3733 67.461 41.6987 67.9217 41.6421 68.0733C41.0695 69.6062 40.4135 71.1076 39.8121 72.6301C39.3075 73.9076 38.7315 75.1322 37.7286 76.1094C37.0213 76.7988 36.6257 76.7748 36.0903 75.9481C35.6095 75.2057 35.1794 74.4301 34.6854 73.6971C33.9978 72.6767 33.2596 71.6904 32.5739 70.6688C32.4628 70.5036 32.4116 70.1497 32.5103 70.0304C32.6269 69.89 32.935 69.8985 33.1635 69.8642C33.3076 69.8426 33.4665 69.8932 33.6035 69.8555C34.0788 69.7249 34.5472 69.5698 35.0183 69.424C34.8135 68.9789 34.7038 68.4445 34.3862 68.1052C33.3894 67.0404 32.6825 65.7831 32.3948 64.4139C32.2029 63.5007 32.3856 62.4102 32.7106 61.511C33.1292 60.3521 33.1082 59.3912 32.3717 58.41C31.5066 57.2572 31.4101 55.8457 31.1217 54.4985C30.8609 53.2799 30.8495 52.0928 31.2823 50.8997C31.3716 50.6533 31.251 50.2729 31.1162 50.0117C30.1023 48.0455 30.32 46.017 30.7008 43.9517C30.9833 42.4196 31.8538 41.1792 32.4974 39.8181C33.066 38.6153 33.2725 37.245 33.8026 36.0194C35.0725 33.0831 37.2903 30.9612 40.0687 29.5015C41.8963 28.5412 43.8701 27.851 45.804 27.1066C46.4942 26.8409 47.2547 26.7054 47.994 26.6457C48.2893 26.6219 48.6166 26.9593 48.9158 27.153C48.9288 27.1615 48.8094 27.4826 48.747 27.4844C46.3963 27.5492 44.2226 28.3762 42.1546 29.3249C40.5074 30.0804 39.0545 31.277 37.5562 32.3359C35.8005 33.5765 35.1256 35.5895 34.13 37.3651C34.0149 37.5702 34.0779 37.8753 34.0582 38.134C34.1999 37.9895 34.3303 37.8311 34.485 37.7024C36.0659 36.3878 37.7748 35.3277 39.8818 35.1337C40.2329 35.1014 40.5995 35.2391 41.0032 35.3425ZM35.6441 41.8563C36.1409 41.8911 36.6706 42.0544 37.1283 41.937C38.6529 41.5457 39.9688 40.7068 41.1427 39.6862C41.5652 39.3189 41.9346 38.7671 42.0821 38.2316C42.4257 36.9848 40.647 35.5963 39.1556 36.0585C37.2258 36.6565 35.5138 37.6863 34.034 39.0648C33.7973 39.2853 33.6517 39.6959 33.6247 40.0317C33.55 40.9562 34.2441 41.6072 35.6441 41.8563ZM39.3646 60.1127C39.8199 59.7161 40.3021 59.346 40.7254 58.9176C41.6447 57.9869 41.6389 57.0617 40.6845 56.1406C40.4434 55.908 39.9943 55.6408 39.7423 55.7187C39.0987 55.9175 38.4444 56.2157 37.9183 56.6312C37.0352 57.3293 36.2341 58.1346 35.4275 58.9247C35.0715 59.2733 34.4685 59.5563 34.723 60.179C34.7602 60.27 35.5085 60.0473 35.9311 60.0151C36.0891 60.0032 36.2726 60.0977 36.4135 60.1906C36.4808 60.2349 36.5116 60.3946 36.496 60.4921C36.4691 60.66 36.3929 60.8202 36.3374 60.9835C36.5354 60.9731 36.7446 61.0005 36.9292 60.9454C37.7155 60.7107 38.4943 60.4515 39.3646 60.1127ZM33.7839 49.212C33.5342 49.4619 33.2486 49.6869 33.0501 49.9724C32.9532 50.1117 32.9291 50.4569 33.0255 50.5502C33.6019 51.1075 34.3065 51.7351 35.1081 51.3846C36.6557 50.7083 38.1394 49.8738 39.6065 49.03C40.1714 48.705 40.1483 47.9984 39.5915 47.6095C39.2481 47.3699 38.7722 47.1802 38.365 47.1967C36.6379 47.2669 35.0708 47.7838 33.7839 49.212ZM36.2642 74.0267C36.4268 74.1002 36.5894 74.1739 36.752 74.2476C36.6573 73.9466 36.581 73.6377 36.4589 73.3481C36.4107 73.2336 36.2606 73.1619 36.1567 73.0707C36.1926 73.3302 36.2284 73.5898 36.2642 74.0267Z" fill="#001F3F"/>
<path d="M10.8717 3.85909C10.9376 3.83712 11.0584 3.82614 11.2342 3.82614C11.8055 3.82614 12.3877 3.95797 12.981 4.22163C13.6181 4.49628 13.9367 4.82036 13.9367 5.19388C13.9367 5.40261 13.8488 5.61684 13.6731 5.83656C13.5193 6.05628 13.2721 6.16614 12.9315 6.16614C12.6788 6.16614 12.3987 6.10022 12.0911 5.96839C11.8604 5.86952 11.6132 5.82008 11.3495 5.82008C10.965 5.82008 10.6025 5.92445 10.2619 6.13318C9.92138 6.33092 9.66321 6.60008 9.48744 6.94064C9.35561 7.18233 9.28969 7.5229 9.28969 7.96233C9.28969 8.29191 9.31715 8.51163 9.37208 8.62149C9.438 8.73135 9.61927 8.92909 9.91589 9.21473C10.4872 9.75304 11.1024 10.0222 11.7615 10.0222C11.8494 10.0222 12.0252 10.0112 12.2888 9.98923C12.4317 9.96726 12.5965 9.95628 12.7832 9.95628C12.9919 9.95628 13.1677 10.0277 13.3105 10.1705C13.4863 10.3463 13.5742 10.566 13.5742 10.8297C13.5742 11.1153 13.4643 11.368 13.2446 11.5877C13.1018 11.7305 12.948 11.8184 12.7832 11.8513C12.6294 11.8733 12.2724 11.8843 11.7121 11.8843C11.1628 11.8843 10.7783 11.8678 10.5586 11.8349C10.3388 11.7909 10.0752 11.6921 9.76758 11.5382C8.94363 11.1318 8.24603 10.5001 7.67476 9.64318C7.54293 9.44543 7.45504 9.27515 7.4111 9.13233C7.36715 8.97853 7.34518 8.73684 7.34518 8.40726C7.34518 8.36332 7.34518 8.28642 7.34518 8.17656C7.35617 8.0667 7.36166 7.97881 7.36166 7.9129C7.37265 7.34163 7.40011 6.95712 7.44406 6.75938C7.488 6.55064 7.60335 6.2705 7.79011 5.91895C8.08673 5.3367 8.44927 4.90276 8.87772 4.61712C9.31715 4.33149 9.9818 4.07881 10.8717 3.85909ZM16.801 4.28754C16.9438 4.19966 17.0976 4.15571 17.2624 4.15571C17.4162 4.15571 17.6084 4.22163 17.8391 4.35346C18.0808 4.48529 18.2236 4.60614 18.2676 4.71599C18.3005 4.80388 18.317 5.01811 18.317 5.35867C18.317 6.56712 18.2182 7.94036 18.0204 9.47839C17.9325 10.2694 17.8886 10.7088 17.8886 10.7967C17.8886 11.0823 17.9435 11.2691 18.0534 11.357C18.1632 11.4449 18.3774 11.4888 18.696 11.4888C18.74 11.4888 18.8169 11.4888 18.9267 11.4888C19.0476 11.4778 19.141 11.4723 19.2069 11.4723C19.2728 11.4723 19.3497 11.4723 19.4376 11.4723C19.5365 11.4613 19.6079 11.4559 19.6518 11.4559C20.0253 11.4559 20.2945 11.5437 20.4593 11.7195C20.69 11.9612 20.8053 12.2084 20.8053 12.4611C20.8053 12.6368 20.7614 12.7961 20.6735 12.939C20.4538 13.3674 19.8276 13.5816 18.7949 13.5816C17.4876 13.5597 16.5373 13.0818 15.9441 12.148C15.8012 11.9173 15.7298 11.6371 15.7298 11.3075C15.7298 10.967 15.8232 10.1101 16.01 8.73684C16.1198 8.02276 16.1858 7.21529 16.2077 6.31445C16.2077 5.19388 16.4055 4.51825 16.801 4.28754ZM23.4583 5.95191C23.678 5.76515 23.8922 5.67177 24.101 5.67177C24.3097 5.67177 24.5184 5.77614 24.7272 5.98487C24.87 6.12769 24.9579 6.28149 24.9908 6.44628C25.0238 6.60008 25.0403 6.97909 25.0403 7.58332C25.0403 8.25346 25.1007 9.12135 25.2215 10.187C25.2875 10.7033 25.3204 11.0823 25.3204 11.324C25.3204 11.5437 25.2984 11.6921 25.2545 11.769C25.0568 12.1425 24.7711 12.3292 24.3976 12.3292C24.1779 12.3292 23.9746 12.2523 23.7879 12.0985C23.6121 11.9447 23.4913 11.736 23.4253 11.4723C23.3484 11.1647 23.2606 10.5275 23.1617 9.56078C23.0738 8.59402 23.0299 7.83599 23.0299 7.2867C23.0299 7.24276 23.0299 7.18233 23.0299 7.10543C23.0408 7.02853 23.0463 6.97909 23.0463 6.95712C23.0683 6.67149 23.1068 6.46276 23.1617 6.33092C23.2166 6.19909 23.3155 6.07276 23.4583 5.95191ZM22.9639 1.46966C23.1617 1.24994 23.3814 1.14008 23.6231 1.14008C23.8758 1.14008 24.1175 1.27191 24.3482 1.53557C24.5349 1.75529 24.6283 1.94205 24.6283 2.09585C24.6283 2.17276 24.6118 2.28811 24.5789 2.44191C24.447 3.2329 24.1394 3.62839 23.6561 3.62839C23.6121 3.62839 23.5242 3.6174 23.3924 3.59543C22.898 3.48557 22.6508 3.07909 22.6508 2.37599C22.6508 2.01346 22.7552 1.71135 22.9639 1.46966ZM30.5369 3.85909C30.6028 3.83712 30.7236 3.82614 30.8994 3.82614C31.4707 3.82614 32.0529 3.95797 32.6462 4.22163C33.2834 4.49628 33.602 4.82036 33.602 5.19388C33.602 5.40261 33.5141 5.61684 33.3383 5.83656C33.1845 6.05628 32.9373 6.16614 32.5967 6.16614C32.3441 6.16614 32.0639 6.10022 31.7563 5.96839C31.5256 5.86952 31.2784 5.82008 31.0148 5.82008C30.6303 5.82008 30.2677 5.92445 29.9272 6.13318C29.5866 6.33092 29.3284 6.60008 29.1527 6.94064C29.0208 7.18233 28.9549 7.5229 28.9549 7.96233C28.9549 8.29191 28.9824 8.51163 29.0373 8.62149C29.1032 8.73135 29.2845 8.92909 29.5811 9.21473C30.1524 9.75304 30.7676 10.0222 31.4267 10.0222C31.5146 10.0222 31.6904 10.0112 31.9541 9.98923C32.0969 9.96726 32.2617 9.95628 32.4484 9.95628C32.6572 9.95628 32.8329 10.0277 32.9758 10.1705C33.1515 10.3463 33.2394 10.566 33.2394 10.8297C33.2394 11.1153 33.1296 11.368 32.9098 11.5877C32.767 11.7305 32.6132 11.8184 32.4484 11.8513C32.2946 11.8733 31.9376 11.8843 31.3773 11.8843C30.828 11.8843 30.4435 11.8678 30.2238 11.8349C30.0041 11.7909 29.7404 11.6921 29.4328 11.5382C28.6089 11.1318 27.9112 10.5001 27.34 9.64318C27.2081 9.44543 27.1203 9.27515 27.0763 9.13233C27.0324 8.97853 27.0104 8.73684 27.0104 8.40726C27.0104 8.36332 27.0104 8.28642 27.0104 8.17656C27.0214 8.0667 27.0269 7.97881 27.0269 7.9129C27.0379 7.34163 27.0653 6.95712 27.1093 6.75938C27.1532 6.55064 27.2686 6.2705 27.4553 5.91895C27.752 5.3367 28.1145 4.90276 28.5429 4.61712C28.9824 4.33149 29.647 4.07881 30.5369 3.85909ZM35.8235 3.97445C36.0103 3.84261 36.186 3.7767 36.3508 3.7767C36.5706 3.7767 36.7848 3.88107 36.9935 4.0898C37.1363 4.23261 37.2242 4.37543 37.2572 4.51825C37.2901 4.65008 37.3066 4.9467 37.3066 5.40811C37.3066 6.07825 37.3615 6.41332 37.4714 6.41332C37.6362 6.41332 38.1196 6.21557 38.9215 5.82008C39.7345 5.4136 40.2453 5.11698 40.4541 4.93022C40.8276 4.62261 41.1352 4.46881 41.3769 4.46881C41.4758 4.46881 41.5911 4.49628 41.7229 4.55121C42.1184 4.77092 42.3162 5.04557 42.3162 5.37515C42.3162 5.66078 42.1789 5.9574 41.9042 6.26501C41.5856 6.59459 40.9759 6.97909 40.0751 7.41853C39.2401 7.82501 38.8227 8.08867 38.8227 8.20952C38.8227 8.23149 38.8337 8.25346 38.8556 8.27543C38.9545 8.37431 39.5258 8.62149 40.5694 9.01698C41.6241 9.40149 42.3986 9.64867 42.8929 9.75853C43.3983 9.87938 43.8158 9.9398 44.1453 9.9398C44.4749 9.9398 44.7331 10.0332 44.9198 10.2199C45.1176 10.3957 45.2165 10.6264 45.2165 10.9121C45.2165 11.2526 45.1121 11.4888 44.9034 11.6206C44.7056 11.7525 44.3486 11.8184 43.8322 11.8184C43.25 11.8184 42.3601 11.6261 41.1627 11.2416C39.8004 10.7912 38.9655 10.5001 38.6579 10.3682C38.1855 10.1705 37.9053 10.0716 37.8175 10.0716C37.7845 10.0716 37.768 10.0991 37.768 10.154C37.768 10.2639 37.801 10.4067 37.8669 10.5825C37.9877 10.9011 38.0482 11.1977 38.0482 11.4723C38.0482 11.8019 37.9273 12.093 37.6856 12.3457C37.4659 12.5654 37.2791 12.6753 37.1253 12.6753C37.0924 12.6753 37.032 12.6643 36.9441 12.6423C36.4497 12.5105 36.1641 12.2029 36.0872 11.7195C36.0542 11.4449 35.9498 11.0384 35.7741 10.5001C35.5983 9.92881 35.4775 8.8467 35.4115 7.25374C35.3896 6.79233 35.3786 6.17163 35.3786 5.39163C35.3786 4.80937 35.3896 4.49628 35.4115 4.45233C35.4884 4.26557 35.6258 4.10628 35.8235 3.97445ZM57.8249 4.45233C58.0226 4.38642 58.2204 4.35346 58.4181 4.35346C58.9674 4.35346 59.4508 4.62811 59.8682 5.1774C60.2088 5.63881 60.5109 6.86923 60.7746 8.86867C60.9064 9.8574 60.9723 10.566 60.9723 10.9944C60.9723 11.4778 60.868 11.8184 60.6592 12.0161C60.4505 12.2249 60.2143 12.3292 59.9506 12.3292C59.687 12.3292 59.4673 12.2304 59.2915 12.0326C59.1706 11.9228 59.0828 11.7525 59.0278 11.5218C58.9839 11.2911 58.9289 10.8077 58.863 10.0716C58.6873 8.33585 58.5005 7.27022 58.3028 6.87473C58.2478 6.76487 58.2039 6.70994 58.1709 6.70994C58.138 6.70994 58.0775 6.75388 57.9897 6.84177C57.8578 6.9736 57.5502 7.51191 57.0668 8.4567C56.7373 9.11585 56.5066 9.53332 56.3747 9.70909C56.2429 9.88487 56.0506 10.0387 55.798 10.1705C55.5233 10.3243 55.3201 10.4012 55.1882 10.4012C55.1113 10.4012 54.9795 10.3628 54.7928 10.2859C54.4961 10.154 54.1556 9.91783 53.7711 9.57726C53.3866 9.2367 53.1723 9.06642 53.1284 9.06642C53.0735 9.06642 53.046 9.21473 53.046 9.51135C53.046 10.0716 53.1174 10.6374 53.2602 11.2087C53.3591 11.6261 53.4085 11.8843 53.4085 11.9832C53.4085 12.104 53.3426 12.2523 53.2108 12.4281C52.9581 12.7577 52.6889 12.9225 52.4033 12.9225C52.2385 12.9225 52.0847 12.8675 51.9419 12.7577C51.6123 12.505 51.3926 12.1864 51.2828 11.8019C51.1729 11.4174 51.1125 10.7747 51.1015 9.87388C51.1015 9.07191 51.118 8.56107 51.1509 8.34135C51.1839 8.12163 51.2992 7.80853 51.497 7.40205C51.8815 6.57811 52.3044 6.16614 52.7659 6.16614C53.1833 6.16614 53.6612 6.46276 54.1995 7.056C54.6939 7.55036 54.963 7.79754 55.007 7.79754C55.0949 7.79754 55.2816 7.49543 55.5673 6.89121C55.8199 6.36388 56.177 5.85304 56.6384 5.35867C57.0998 4.8643 57.4953 4.56219 57.8249 4.45233ZM65.2754 2.34304C65.8466 2.22219 66.352 2.16177 66.7914 2.16177C67.2309 2.16177 67.5275 2.2167 67.6813 2.32656C67.923 2.50233 68.0438 2.73853 68.0438 3.03515C68.0438 3.21092 68.0054 3.37022 67.9285 3.51304C67.8076 3.72177 67.6813 3.85909 67.5495 3.92501C67.4176 3.99092 67.132 4.04585 66.6926 4.0898C66.0773 4.17769 65.6379 4.2436 65.3742 4.28754L64.7151 4.41937L64.7481 5.45754L64.7645 6.47923L65.572 6.46276C66.1323 6.41881 66.4838 6.34191 66.6266 6.23205C66.7804 6.12219 66.9672 6.06726 67.1869 6.06726C67.4506 6.06726 67.6868 6.14966 67.8955 6.31445C68.1152 6.47923 68.2251 6.68247 68.2251 6.92416C68.2251 7.14388 68.1152 7.38557 67.8955 7.64923C67.6868 7.9129 67.4506 8.08318 67.1869 8.16008C67.0112 8.21501 66.5937 8.2974 65.9345 8.40726C65.2864 8.50614 64.8689 8.55557 64.6821 8.55557C64.6272 8.55557 64.5997 8.65994 64.5997 8.86867C64.5997 9.40698 64.6986 9.91783 64.8964 10.4012C64.9842 10.6209 65.0612 10.7692 65.1271 10.8461C65.204 10.9121 65.3138 10.945 65.4566 10.945C65.7862 10.945 66.2202 10.8516 66.7585 10.6649C67.3078 10.4781 67.6703 10.2968 67.8461 10.1211C68.0768 9.90135 68.335 9.79149 68.6206 9.79149C68.9062 9.79149 69.1424 9.90135 69.3292 10.1211C69.5159 10.3408 69.6093 10.544 69.6093 10.7308C69.6093 10.8736 69.5489 11.0933 69.4281 11.3899C69.3182 11.6646 69.0875 11.8898 68.7359 12.0656C68.3954 12.2304 67.8021 12.4226 66.9562 12.6423C66.2092 12.8291 65.6269 12.9225 65.2095 12.9225C64.4954 12.9225 63.9241 12.6094 63.4957 11.9832C63.3089 11.7195 63.1276 11.2911 62.9519 10.6978C62.7761 10.1046 62.6772 9.62121 62.6552 9.24769V8.88515C62.6552 8.03923 62.6882 6.90219 62.7541 5.47402C62.831 4.04585 62.8914 3.26036 62.9354 3.11754C63.0892 2.72205 63.4572 2.5243 64.0395 2.5243C64.3581 2.50233 64.77 2.44191 65.2754 2.34304Z" fill="#001F3F"/>
</svg>
