<svg width="122" height="117" viewBox="0 0 122 117" fill="none" xmlns="http://www.w3.org/2000/svg">
    <g filter="url(#filter0_d_391_2375)">
    <mask id="path-1-inside-1_391_2375" fill="white">
    <path d="M46.4491 6.29354C55.908 -1.04569 69.5256 0.672641 76.8648 10.1315C82.413 17.2821 82.7831 26.8083 78.5477 34.2031C86.7649 31.9335 95.9052 34.6583 101.455 41.8112C108.794 51.27 107.076 64.8877 97.6173 72.227L60.2951 101.186C50.8362 108.525 37.2185 106.806 29.8793 97.3476C24.3312 90.1972 23.96 80.6706 28.195 73.2758C19.9782 75.5449 10.8386 72.8204 5.28888 65.6679C-2.05028 56.2091 -0.331767 42.5914 9.12687 35.2521L46.4491 6.29354Z"/>
    </mask>
    <path d="M46.4491 6.29354C55.908 -1.04569 69.5256 0.672641 76.8648 10.1315C82.413 17.2821 82.7831 26.8083 78.5477 34.2031C86.7649 31.9335 95.9052 34.6583 101.455 41.8112C108.794 51.27 107.076 64.8877 97.6173 72.227L60.2951 101.186C50.8362 108.525 37.2185 106.806 29.8793 97.3476C24.3312 90.1972 23.96 80.6706 28.195 73.2758C19.9782 75.5449 10.8386 72.8204 5.28888 65.6679C-2.05028 56.2091 -0.331767 42.5914 9.12687 35.2521L46.4491 6.29354Z" fill="#FCBC53"/>
    <path d="M46.4491 6.29354L40.9762 -0.760039L40.9762 -0.760038L46.4491 6.29354ZM76.8648 10.1315L83.9184 4.65865L83.9184 4.65861L76.8648 10.1315ZM78.5477 34.2031L70.8006 29.766L60.0241 48.5814L80.9246 42.8087L78.5477 34.2031ZM101.455 41.8112L108.509 36.3383L108.509 36.3383L101.455 41.8112ZM97.6173 72.227L103.09 79.2806L103.09 79.2805L97.6173 72.227ZM60.2951 101.186L65.768 108.239L65.768 108.239L60.2951 101.186ZM29.8793 97.3476L22.8257 102.821L22.8258 102.821L29.8793 97.3476ZM28.195 73.2758L35.9423 77.7127L46.7169 58.8993L25.8187 64.6701L28.195 73.2758ZM5.28888 65.6679L-1.7647 71.1408L-1.76466 71.1409L5.28888 65.6679ZM9.12687 35.2521L3.65395 28.1986L3.65383 28.1987L9.12687 35.2521ZM46.4491 6.29354L51.922 13.3471C57.4853 9.0305 65.4946 10.0411 69.8113 15.6045L76.8648 10.1315L83.9184 4.65861C73.5566 -8.69587 54.3306 -11.1219 40.9762 -0.760039L46.4491 6.29354ZM76.8648 10.1315L69.8112 15.6044C73.0649 19.7978 73.3015 25.3994 70.8006 29.766L78.5477 34.2031L86.2948 38.6402C92.2646 28.2172 91.7611 14.7665 83.9184 4.65865L76.8648 10.1315ZM78.5477 34.2031L80.9246 42.8087C85.7766 41.4686 91.1468 43.0892 94.4017 47.2842L101.455 41.8112L108.509 36.3383C100.664 26.2274 87.7533 22.3984 76.1708 25.5975L78.5477 34.2031ZM101.455 41.8112L94.4016 47.2841C98.7181 52.8473 97.7075 60.8568 92.1442 65.1735L97.6173 72.227L103.09 79.2805C116.444 68.9187 118.871 49.6928 108.509 36.3383L101.455 41.8112ZM97.6173 72.227L92.1443 65.1734L54.8221 94.132L60.2951 101.186L65.768 108.239L103.09 79.2806L97.6173 72.227ZM60.2951 101.186L54.8221 94.132C49.2589 98.4485 41.2495 97.4379 36.9328 91.8746L29.8793 97.3476L22.8258 102.821C33.1876 116.175 52.4135 118.601 65.768 108.239L60.2951 101.186ZM29.8793 97.3476L36.9329 91.8747C33.6788 87.6807 33.4419 82.0786 35.9423 77.7127L28.195 73.2758L20.4478 68.839C14.4781 79.2626 14.9837 92.7136 22.8257 102.821L29.8793 97.3476ZM28.195 73.2758L25.8187 64.6701C20.9666 66.01 15.597 64.3894 12.3424 60.1949L5.28888 65.6679L-1.76466 71.1409C6.08031 81.2514 18.9897 85.0798 30.5714 81.8816L28.195 73.2758ZM5.28888 65.6679L12.3425 60.195C8.026 54.6319 9.0366 46.6224 14.5999 42.3056L9.12687 35.2521L3.65383 28.1987C-9.70014 38.5605 -12.1266 57.7863 -1.7647 71.1408L5.28888 65.6679ZM9.12687 35.2521L14.5998 42.3057L51.922 13.3471L46.4491 6.29354L40.9762 -0.760038L3.65395 28.1986L9.12687 35.2521Z" fill="white" mask="url(#path-1-inside-1_391_2375)"/>
    </g>
    <defs>
    <filter id="filter0_d_391_2375" x="0.738281" y="0.741211" width="121.27" height="115.996" filterUnits="userSpaceOnUse" color-interpolation-filters="sRGB">
    <feFlood flood-opacity="0" result="BackgroundImageFix"/>
    <feColorMatrix in="SourceAlpha" type="matrix" values="0 0 0 0 0 0 0 0 0 0 0 0 0 0 0 0 0 0 127 0" result="hardAlpha"/>
    <feOffset dx="10" dy="5"/>
    <feGaussianBlur stdDeviation="3"/>
    <feComposite in2="hardAlpha" operator="out"/>
    <feColorMatrix type="matrix" values="0 0 0 0 0 0 0 0 0 0 0 0 0 0 0 0 0 0 0.25 0"/>
    <feBlend mode="normal" in2="BackgroundImageFix" result="effect1_dropShadow_391_2375"/>
    <feBlend mode="normal" in="SourceGraphic" in2="effect1_dropShadow_391_2375" result="shape"/>
    </filter>
    </defs>
    </svg>
    