<svg width="59" height="54" viewBox="0 0 59 54" fill="none" xmlns="http://www.w3.org/2000/svg">
    <g filter="url(#filter0_d_391_2409)">
    <path d="M18.0176 11.4707C21.5832 6.27973 29.3112 6.27989 32.877 11.4707C39.1587 11.0217 43.9766 17.0636 42.1416 23.0879C46.4097 27.7194 44.6898 35.2541 38.835 37.5752C37.8747 43.7996 30.9123 47.152 25.4473 44.0215C19.9819 47.1518 13.0182 43.7992 12.0586 37.5742C6.20518 35.2524 4.48553 27.719 8.75293 23.0879C6.91807 17.0638 11.7362 11.0221 18.0176 11.4707Z" fill="#A180FF" stroke="white" stroke-width="2"/>
    <path d="M25.9199 21.4883C26.5678 21.4883 27.188 21.9045 27.6572 22.6475C28.1246 23.3876 28.4209 24.4244 28.4209 25.5811C28.4208 26.7374 28.1245 27.7736 27.6572 28.5137C27.188 29.2567 26.5678 29.6738 25.9199 29.6738C25.272 29.6738 24.6519 29.2567 24.1826 28.5137C23.7153 27.7736 23.419 26.7375 23.4189 25.5811C23.4189 24.4244 23.7152 23.3876 24.1826 22.6475C24.6519 21.9044 25.272 21.4883 25.9199 21.4883Z" fill="white" stroke="white" stroke-width="0.45474"/>
    <path d="M35.0137 21.4883C35.6616 21.4883 36.2817 21.9045 36.751 22.6475C37.2184 23.3876 37.5146 24.4244 37.5146 25.5811C37.5146 26.7374 37.2182 27.7736 36.751 28.5137C36.2817 29.2567 35.6616 29.6738 35.0137 29.6738C34.3658 29.6738 33.7457 29.2567 33.2764 28.5137C32.8091 27.7736 32.5127 26.7375 32.5127 25.5811C32.5127 24.4244 32.8089 23.3876 33.2764 22.6475C33.7457 21.9044 34.3658 21.4883 35.0137 21.4883Z" fill="white" stroke="white" stroke-width="0.45474"/>
    <path d="M28.34 33.0639C28.5778 32.8231 28.9021 32.6875 29.2405 32.6875H31.0957H32.7951C33.1603 32.6875 33.5059 32.8526 33.7353 33.1367V33.1367C34.2216 33.7387 34.0246 34.6363 33.3308 34.9794L31.738 35.767C31.2076 36.0293 30.5852 36.0293 30.0547 35.767L28.6796 35.087C27.9064 34.7046 27.734 33.6777 28.34 33.0639V33.0639Z" fill="white"/>
    <path d="M36.832 5.91602C37.5594 3.22604 41.3752 3.22605 42.1025 5.91602L42.8027 8.50684C42.8705 8.75748 43.0667 8.95371 43.3174 9.02148L45.9092 9.72266C48.5988 10.4502 48.5989 14.2657 45.9092 14.9932L43.3174 15.6934C43.0667 15.7611 42.8705 15.9574 42.8027 16.208L42.1025 18.7998C41.3751 21.4895 37.5596 21.4894 36.832 18.7998L36.1309 16.208C36.0631 15.9574 35.8669 15.7611 35.6162 15.6934L33.0254 14.9932C30.3354 14.2658 30.3354 10.45 33.0254 9.72266L35.6162 9.02148C35.8669 8.95371 36.0631 8.75748 36.1309 8.50684L36.832 5.91602Z" fill="#A180FF" stroke="white" stroke-width="2"/>
    <path d="M45.7263 17.4386C46.1121 15.5456 48.7523 15.3788 49.3733 17.2081L49.799 18.4621L51.0965 18.7265C52.9898 19.1122 53.1566 21.7526 51.327 22.3735L50.073 22.7992L49.8087 24.0967C49.423 25.99 46.7826 26.1568 46.1616 24.3272L45.736 23.0732L44.4384 22.8088C42.5455 22.423 42.3786 19.7828 44.2079 19.1618L45.4619 18.7362L45.7263 17.4386Z" fill="#A180FF" stroke="white" stroke-width="2"/>
    </g>
    <defs>
    <filter id="filter0_d_391_2409" x="2.37891" y="1.89844" width="56.2344" height="51.3154" filterUnits="userSpaceOnUse" color-interpolation-filters="sRGB">
    <feFlood flood-opacity="0" result="BackgroundImageFix"/>
    <feColorMatrix in="SourceAlpha" type="matrix" values="0 0 0 0 0 0 0 0 0 0 0 0 0 0 0 0 0 0 127 0" result="hardAlpha"/>
    <feOffset dx="1" dy="3"/>
    <feGaussianBlur stdDeviation="2"/>
    <feComposite in2="hardAlpha" operator="out"/>
    <feColorMatrix type="matrix" values="0 0 0 0 0 0 0 0 0 0 0 0 0 0 0 0 0 0 0.25 0"/>
    <feBlend mode="normal" in2="BackgroundImageFix" result="effect1_dropShadow_391_2409"/>
    <feBlend mode="normal" in="SourceGraphic" in2="effect1_dropShadow_391_2409" result="shape"/>
    </filter>
    </defs>
    </svg>
    