<svg width="113" height="110" viewBox="0 0 113 110" fill="none" xmlns="http://www.w3.org/2000/svg">
    <g filter="url(#filter0_d_391_2372)">
    <path d="M86.5188 68.2376C78.716 91.3957 53.6173 103.844 30.4593 96.0408V96.0408C7.30125 88.238 -5.14665 63.1393 2.65612 39.9813L12.0871 11.9907C14.6813 4.29143 23.0258 0.152925 30.7251 2.74709L86.7062 21.6091C94.4055 24.2033 98.544 32.5478 95.9498 40.2471L86.5188 68.2376Z" fill="#E7015B"/>
    <path d="M31.8523 91.9079C10.9768 84.8742 -0.244531 62.2497 6.78891 41.3742L16.2201 13.3833C18.0452 7.9664 23.9157 5.0549 29.3325 6.88002L85.3135 25.742C90.7304 27.5672 93.6419 33.4376 91.8168 38.8545L82.3856 66.8455C75.3518 87.7207 52.7276 98.9413 31.8523 91.9079Z" stroke="white" stroke-width="8.72194"/>
    </g>
    <defs>
    <filter id="filter0_d_391_2372" x="0.328125" y="0.972656" width="112.395" height="108.396" filterUnits="userSpaceOnUse" color-interpolation-filters="sRGB">
    <feFlood flood-opacity="0" result="BackgroundImageFix"/>
    <feColorMatrix in="SourceAlpha" type="matrix" values="0 0 0 0 0 0 0 0 0 0 0 0 0 0 0 0 0 0 127 0" result="hardAlpha"/>
    <feOffset dx="10" dy="5"/>
    <feGaussianBlur stdDeviation="3"/>
    <feComposite in2="hardAlpha" operator="out"/>
    <feColorMatrix type="matrix" values="0 0 0 0 0 0 0 0 0 0 0 0 0 0 0 0 0 0 0.25 0"/>
    <feBlend mode="normal" in2="BackgroundImageFix" result="effect1_dropShadow_391_2372"/>
    <feBlend mode="normal" in="SourceGraphic" in2="effect1_dropShadow_391_2372" result="shape"/>
    </filter>
    </defs>
    </svg>
    