<svg width="125" height="121" viewBox="0 0 125 121" fill="none" xmlns="http://www.w3.org/2000/svg">
    <g filter="url(#filter0_d_391_2380)">
    <path d="M75.6418 14.8494C84.2648 19.2406 68.3849 38.5418 68.3849 38.5418C68.3849 38.5418 83.4365 18.5879 89.7228 25.9447C96.009 33.3015 73.9516 45.0565 73.9516 45.0565C73.9516 45.0565 95.4935 32.3816 98.4859 41.584C101.478 50.7864 76.6015 53.2056 76.6015 53.2056C76.6015 53.2056 101.354 49.7392 100.597 59.3863C99.8401 69.0334 75.9311 61.7485 75.9311 61.7485C75.9311 61.7485 100.126 68.0184 95.7349 76.6414C91.3438 85.2645 72.0426 69.3845 72.0426 69.3845C72.0426 69.3845 91.9964 84.4362 84.6396 90.7224C77.2828 97.0086 65.5278 74.9513 65.5278 74.9513C65.5278 74.9513 78.2028 96.4931 69.0003 99.4855C59.7979 102.478 57.3787 77.6011 57.3787 77.6011C57.3787 77.6011 60.8451 102.354 51.198 101.597C41.551 100.84 48.8358 76.9308 48.8358 76.9308C48.8358 76.9308 42.566 101.126 33.9429 96.7346C25.3199 92.3434 41.1998 73.0422 41.1998 73.0422C41.1998 73.0422 26.1482 92.9961 19.862 85.6393C13.5757 78.2825 35.6331 66.5275 35.6331 66.5275C35.6331 66.5275 14.0912 79.2024 11.0988 70C8.10643 60.7976 32.9832 58.3784 32.9832 58.3784C32.9832 58.3784 8.23062 61.8447 8.98762 52.1977C9.74463 42.5506 33.6536 49.8355 33.6536 49.8355C33.6536 49.8355 9.45863 43.5656 13.8498 34.9426C18.2409 26.3195 37.5421 42.1994 37.5421 42.1994C37.5421 42.1994 17.5883 27.1478 24.9451 20.8616C32.3019 14.5754 44.0569 36.6327 44.0569 36.6327C44.0569 36.6327 31.3819 15.0908 40.5844 12.0985C49.7868 9.10607 52.206 33.9829 52.206 33.9829C52.206 33.9829 48.7396 9.23025 58.3867 9.98726C68.0337 10.7443 60.7489 34.6532 60.7489 34.6532C60.7489 34.6532 67.0188 10.4583 75.6418 14.8494Z" fill="#36BFFF"/>
    <path d="M77.4545 11.2892C79.3523 12.2557 80.7321 13.7445 81.4993 15.6043C82.2287 17.3727 82.3015 19.2186 82.1153 20.855C82.1034 20.9597 82.0867 21.0646 82.0724 21.1696C82.1715 21.1311 82.2701 21.0918 82.3694 21.0556C83.9168 20.4919 85.7281 20.131 87.618 20.4265C89.6058 20.7374 91.3761 21.7304 92.7596 23.3495C94.1432 24.9686 94.8484 26.872 94.8454 28.884C94.8426 30.7969 94.2038 32.5304 93.4056 33.971C93.3545 34.0631 93.2988 34.153 93.2455 34.2446C93.3517 34.2469 93.4578 34.2484 93.5633 34.253C95.2088 34.3244 97.0206 34.6839 98.6536 35.6802C100.371 36.7281 101.627 38.323 102.285 40.3482C102.944 42.3735 102.866 44.4018 102.094 46.2595C101.359 48.0258 100.106 49.3833 98.8168 50.4089C98.7343 50.4745 98.6482 50.5358 98.5638 50.6C98.6611 50.6428 98.7584 50.6846 98.8542 50.7293C100.347 51.4249 101.883 52.4511 103.011 53.9966C104.196 55.622 104.747 57.5756 104.58 59.6989C104.414 61.8221 103.566 63.6664 102.141 65.087C100.786 66.4376 99.109 67.2118 97.5258 67.666C97.4245 67.6951 97.3212 67.7192 97.2186 67.7463C97.2921 67.823 97.3666 67.8985 97.4379 67.9763C98.551 69.1903 99.5777 70.726 100.028 72.5851C100.501 74.5406 100.262 76.5566 99.2956 78.4544C98.3291 80.3523 96.8396 81.7315 94.9796 82.4987C93.2111 83.2282 91.3654 83.301 89.7289 83.1148C89.6241 83.1028 89.5195 83.0861 89.4143 83.0718C89.4529 83.171 89.493 83.2698 89.5292 83.3692C90.0929 84.9166 90.4538 86.7281 90.1583 88.6178C89.8475 90.6056 88.8544 92.376 87.2354 93.7595C85.6162 95.1431 83.712 95.8478 81.7 95.8448C79.7871 95.8419 78.0535 95.2033 76.6129 94.405C76.5205 94.3538 76.4304 94.298 76.3385 94.2444C76.3362 94.3509 76.3364 94.4575 76.3318 94.5632C76.2604 96.2086 75.9 98.0201 74.9037 99.653C73.8558 101.371 72.2611 102.626 70.2357 103.285C68.2103 103.943 66.1822 103.866 64.3245 103.093C62.5584 102.358 61.2015 101.105 60.176 99.8167C60.1101 99.7339 60.0475 99.6475 59.9831 99.5628C59.9403 99.6601 59.9002 99.7583 59.8556 99.8541C59.16 101.347 58.1336 102.883 56.5883 104.011C54.9628 105.196 53.0083 105.746 50.8851 105.58C48.762 105.413 46.9175 104.565 45.497 103.141C44.1465 101.786 43.3731 100.109 42.9188 98.5257C42.8896 98.424 42.8639 98.3205 42.8368 98.2176C42.7601 98.291 42.6854 98.3661 42.6076 98.4374C41.3936 99.5505 39.8581 100.577 37.9988 101.027C36.0433 101.501 34.0274 101.261 32.1296 100.295C30.2318 99.3285 28.8524 97.839 28.0852 95.979C27.3559 94.2106 27.283 92.3648 27.4692 90.7283C27.4811 90.6234 27.497 90.5186 27.5112 90.4133C27.4124 90.4518 27.3147 90.493 27.2156 90.5291C25.668 91.0928 23.8561 91.4534 21.9661 91.1578C19.9783 90.8468 18.208 89.8539 16.8244 88.2348C15.4409 86.6156 14.737 84.7119 14.74 82.6999C14.7428 80.7869 15.3815 79.0535 16.1798 77.6128C16.231 77.5204 16.2851 77.4293 16.3386 77.3375C16.2327 77.3352 16.1269 77.3362 16.0216 77.3317C14.3761 77.2603 12.564 76.8996 10.9309 75.9032C9.21355 74.8552 7.95785 73.2604 7.29929 71.2352C6.64078 69.2099 6.71817 67.1816 7.49086 65.3239C8.22553 63.5577 9.47938 62.2014 10.7681 61.1758C10.8508 61.1101 10.9357 61.0464 11.0203 60.982C10.9233 60.9394 10.8253 60.8995 10.7299 60.855C9.23696 60.1594 7.70086 59.1331 6.57343 57.5877C5.38767 55.9622 4.83853 54.0082 5.00514 51.8849C5.1718 49.7618 6.0195 47.9174 7.44428 46.4969C8.79891 45.1464 10.4761 44.3729 12.0591 43.9187C12.1607 43.8895 12.2635 43.8633 12.3663 43.8362C12.293 43.7597 12.2178 43.6847 12.1466 43.6071C11.0336 42.3931 10.0067 40.8574 9.55654 38.9982C9.08314 37.0428 9.32338 35.0272 10.2898 33.1294C11.2563 31.2317 12.745 29.8518 14.6049 29.0846C16.3733 28.3552 18.2192 28.2825 19.8556 28.4686C19.9605 28.4805 20.0654 28.4964 20.1706 28.5107C20.1322 28.412 20.0918 28.3144 20.0558 28.2155C19.492 26.6679 19.1315 24.856 19.4271 22.966C19.7379 20.9781 20.7308 19.2079 22.35 17.8243C23.9691 16.4409 25.8722 15.7365 27.8841 15.7394C29.7971 15.7423 31.5305 16.381 32.9712 17.1793C33.0632 17.2303 33.1541 17.2843 33.2456 17.3376C33.2479 17.2319 33.2486 17.1265 33.2531 17.0215C33.3245 15.3759 33.6844 13.5635 34.6808 11.9304C35.7287 10.213 37.3235 8.95729 39.3488 8.29872C41.3741 7.64015 43.4024 7.7177 45.26 8.49029C47.0263 9.225 48.3834 10.4792 49.409 11.768C49.4744 11.8503 49.537 11.9351 49.601 12.0193C49.6437 11.9223 49.6854 11.8252 49.7298 11.7298C50.4255 10.2368 51.4517 8.70074 52.9971 7.57331C54.6225 6.38768 56.5759 5.83801 58.699 6.00457C60.8223 6.17119 62.6665 7.01888 64.0871 8.44371C65.4378 9.79844 66.2119 11.4758 66.6661 13.059C66.6952 13.1602 66.7199 13.2629 66.7469 13.3653C66.8235 13.2919 66.8991 13.2173 66.9769 13.146C68.1909 12.033 69.7265 11.0062 71.5857 10.556C73.5412 10.0825 75.5567 10.3228 77.4545 11.2892Z" stroke="white" stroke-width="7.99053"/>
    </g>
    <defs>
    <filter id="filter0_d_391_2380" x="0.980469" y="0.979492" width="123.625" height="119.625" filterUnits="userSpaceOnUse" color-interpolation-filters="sRGB">
    <feFlood flood-opacity="0" result="BackgroundImageFix"/>
    <feColorMatrix in="SourceAlpha" type="matrix" values="0 0 0 0 0 0 0 0 0 0 0 0 0 0 0 0 0 0 127 0" result="hardAlpha"/>
    <feOffset dx="10" dy="5"/>
    <feGaussianBlur stdDeviation="3"/>
    <feComposite in2="hardAlpha" operator="out"/>
    <feColorMatrix type="matrix" values="0 0 0 0 0 0 0 0 0 0 0 0 0 0 0 0 0 0 0.25 0"/>
    <feBlend mode="normal" in2="BackgroundImageFix" result="effect1_dropShadow_391_2380"/>
    <feBlend mode="normal" in="SourceGraphic" in2="effect1_dropShadow_391_2380" result="shape"/>
    </filter>
    </defs>
    </svg>
    